<svg width="1460" height="275" viewBox="0 0 1460 275" fill="none" xmlns="http://www.w3.org/2000/svg">
<mask id="path-1-outside-1_1_2" maskUnits="userSpaceOnUse" x="20" y="26" width="1423" height="232" fill="black">
<rect fill="white" x="20" y="26" width="1423" height="232"/>
<path d="M43.9176 194L68.0653 48.5455H128.719C139.609 48.5455 148.487 50.0843 155.352 53.1619C162.218 56.2396 167.047 60.5483 169.841 66.0881C172.682 71.6278 173.487 78.0436 172.256 85.3352C171.261 90.8277 169.225 95.7519 166.148 100.108C163.117 104.417 159.33 108.015 154.784 110.903C150.239 113.744 145.22 115.733 139.727 116.869L139.443 118.29C145.314 118.527 150.499 120.089 154.997 122.977C159.543 125.866 162.904 129.914 165.082 135.122C167.26 140.283 167.758 146.344 166.574 153.304C165.295 161.116 162.147 168.1 157.128 174.256C152.156 180.364 145.598 185.193 137.455 188.744C129.311 192.248 119.888 194 109.188 194H43.9176ZM83.9034 165.662H105.636C113.165 165.662 118.989 164.218 123.108 161.33C127.275 158.394 129.737 154.369 130.494 149.256C131.11 145.515 130.778 142.295 129.5 139.597C128.222 136.85 126.091 134.743 123.108 133.276C120.125 131.76 116.361 131.003 111.815 131.003H89.4432L83.9034 165.662ZM93.3494 108.347H112.881C116.669 108.347 120.149 107.707 123.321 106.429C126.541 105.151 129.192 103.304 131.276 100.889C133.406 98.4744 134.732 95.5625 135.253 92.1534C136.058 87.2765 134.945 83.4413 131.915 80.6477C128.884 77.8542 124.457 76.4574 118.634 76.4574H98.6051L93.3494 108.347ZM566.751 123.545C564.1 139.218 558.892 152.452 551.126 163.247C543.409 173.995 534.01 182.139 522.93 187.679C511.898 193.219 500.037 195.989 487.348 195.989C473.948 195.989 462.348 193.006 452.547 187.04C442.746 181.074 435.62 172.385 431.169 160.974C426.766 149.563 425.913 135.714 428.612 119.426C431.169 103.754 436.306 90.4962 444.024 79.6534C451.789 68.8106 461.235 60.5956 472.362 55.0085C483.536 49.374 495.516 46.5568 508.3 46.5568C521.605 46.5568 533.134 49.5634 542.888 55.5767C552.689 61.59 559.791 70.3258 564.195 81.7841C568.598 93.2424 569.45 107.163 566.751 123.545ZM531.595 119.426C533.063 110.288 533.063 102.594 531.595 96.3438C530.175 90.0938 527.381 85.3826 523.214 82.2102C519.048 78.9905 513.626 77.3807 506.95 77.3807C499.564 77.3807 492.888 79.2036 486.922 82.8494C481.003 86.4479 476.055 91.7036 472.078 98.6165C468.101 105.482 465.331 113.792 463.768 123.545C462.159 132.778 462.111 140.473 463.626 146.628C465.189 152.783 468.101 157.423 472.362 160.548C476.624 163.626 482.045 165.165 488.626 165.165C495.965 165.165 502.571 163.389 508.442 159.838C514.313 156.287 519.214 151.102 523.143 144.284C527.121 137.466 529.938 129.18 531.595 119.426ZM702.316 194L726.464 48.5455H787.117C798.007 48.5455 806.885 50.0843 813.751 53.1619C820.616 56.2396 825.446 60.5483 828.239 66.0881C831.08 71.6278 831.885 78.0436 830.654 85.3352C829.66 90.8277 827.624 95.7519 824.546 100.108C821.516 104.417 817.728 108.015 813.183 110.903C808.637 113.744 803.618 115.733 798.126 116.869L797.842 118.29C803.713 118.527 808.897 120.089 813.396 122.977C817.941 125.866 821.303 129.914 823.481 135.122C825.659 140.283 826.156 146.344 824.972 153.304C823.694 161.116 820.545 168.1 815.526 174.256C810.555 180.364 803.997 185.193 795.853 188.744C787.709 192.248 778.287 194 767.586 194H702.316ZM742.302 165.662H764.035C771.563 165.662 777.387 164.218 781.506 161.33C785.673 158.394 788.135 154.369 788.893 149.256C789.508 145.515 789.177 142.295 787.898 139.597C786.62 136.85 784.489 134.743 781.506 133.276C778.523 131.76 774.759 131.003 770.214 131.003H747.842L742.302 165.662ZM751.748 108.347H771.279C775.067 108.347 778.547 107.707 781.719 106.429C784.939 105.151 787.591 103.304 789.674 100.889C791.805 98.4744 793.13 95.5625 793.651 92.1534C794.456 87.2765 793.344 83.4413 790.313 80.6477C787.283 77.8542 782.856 76.4574 777.032 76.4574H757.004L751.748 108.347Z"/>
<path d="M227.44 196.06C216.029 196.06 206.56 193.811 199.031 189.312C191.55 184.767 186.295 178.304 183.264 169.923C180.234 161.495 179.689 151.481 181.631 139.881C183.525 128.612 187.384 118.763 193.207 110.335C199.079 101.86 206.465 95.2784 215.366 90.5909C224.268 85.8561 234.188 83.4886 245.125 83.4886C252.89 83.4886 259.779 84.696 265.793 87.1108C271.806 89.5256 276.777 93.1241 280.707 97.9062C284.637 102.641 287.313 108.465 288.733 115.378C290.153 122.291 290.106 130.222 288.591 139.17L287.241 147.835H192.497L195.693 127.665H258.193C258.761 123.972 258.454 120.681 257.27 117.793C256.086 114.904 254.169 112.655 251.517 111.045C248.913 109.388 245.717 108.56 241.929 108.56C238.094 108.56 234.495 109.459 231.134 111.259C227.819 113.01 225.002 115.378 222.682 118.361C220.362 121.344 218.847 124.705 218.136 128.446L214.372 149.114C213.615 153.706 213.828 157.636 215.011 160.903C216.195 164.17 218.231 166.68 221.119 168.432C224.008 170.136 227.724 170.989 232.27 170.989C235.3 170.989 238.141 170.586 240.793 169.781C243.444 168.929 245.812 167.674 247.895 166.017C250.026 164.312 251.754 162.253 253.08 159.838L284.756 160.761C282.199 167.911 278.245 174.137 272.895 179.44C267.545 184.696 261.01 188.792 253.293 191.727C245.622 194.616 237.005 196.06 227.44 196.06ZM347.948 196.06C336.537 196.06 327.067 193.811 319.539 189.312C312.058 184.767 306.802 178.304 303.772 169.923C300.742 161.495 300.197 151.481 302.138 139.881C304.032 128.612 307.891 118.763 313.715 110.335C319.586 101.86 326.973 95.2784 335.874 90.5909C344.776 85.8561 354.695 83.4886 365.633 83.4886C373.398 83.4886 380.287 84.696 386.3 87.1108C392.314 89.5256 397.285 93.1241 401.215 97.9062C405.145 102.641 407.82 108.465 409.241 115.378C410.661 122.291 410.614 130.222 409.099 139.17L407.749 147.835H313.005L316.201 127.665H378.701C379.269 123.972 378.961 120.681 377.778 117.793C376.594 114.904 374.676 112.655 372.025 111.045C369.421 109.388 366.225 108.56 362.437 108.56C358.602 108.56 355.003 109.459 351.641 111.259C348.327 113.01 345.51 115.378 343.19 118.361C340.87 121.344 339.354 124.705 338.644 128.446L334.88 149.114C334.122 153.706 334.335 157.636 335.519 160.903C336.703 164.17 338.739 166.68 341.627 168.432C344.515 170.136 348.232 170.989 352.778 170.989C355.808 170.989 358.649 170.586 361.3 169.781C363.952 168.929 366.319 167.674 368.403 166.017C370.533 164.312 372.262 162.253 373.587 159.838L405.263 160.761C402.707 167.911 398.753 174.137 393.403 179.44C388.052 184.696 381.518 188.792 373.8 191.727C366.13 194.616 357.513 196.06 347.948 196.06ZM620.871 131.784L610.501 194H575.771L593.953 84.9091H626.979L623.712 104.938H624.919C628.328 98.2614 633.276 93.0294 639.763 89.2415C646.25 85.4062 653.541 83.4886 661.638 83.4886C669.261 83.4886 675.629 85.1932 680.743 88.6023C685.857 92.0114 689.479 96.7936 691.609 102.949C693.74 109.057 694.095 116.23 692.675 124.469L681.027 194H646.297L656.737 131.287C657.779 125.274 657.045 120.562 654.536 117.153C652.073 113.697 648.049 111.969 642.462 111.969C638.816 111.969 635.478 112.774 632.447 114.384C629.464 115.946 626.955 118.195 624.919 121.131C622.93 124.066 621.581 127.617 620.871 131.784ZM913.325 146.912L923.694 84.9091H958.353L940.171 194H907.075L910.413 173.688H909.276C905.915 180.364 900.967 185.667 894.433 189.597C887.898 193.479 880.536 195.42 872.344 195.42C864.911 195.42 858.661 193.716 853.594 190.307C848.528 186.898 844.93 182.139 842.799 176.031C840.716 169.876 840.337 162.679 841.663 154.44L853.31 84.9091H888.04L877.6 147.622C876.701 153.541 877.482 158.205 879.944 161.614C882.453 165.023 886.383 166.727 891.734 166.727C895.19 166.727 898.433 165.97 901.464 164.455C904.494 162.892 907.051 160.643 909.134 157.707C911.265 154.724 912.662 151.126 913.325 146.912ZM1001.98 195.562C993.929 195.562 986.946 193.479 981.027 189.312C975.108 185.146 970.871 178.896 968.314 170.562C965.804 162.229 965.568 151.884 967.604 139.526C969.734 126.694 973.522 116.135 978.967 107.849C984.412 99.5634 990.757 93.4318 998.001 89.4545C1005.29 85.4773 1012.73 83.4886 1020.3 83.4886C1026.03 83.4886 1030.77 84.483 1034.51 86.4716C1038.29 88.4129 1041.25 90.9223 1043.38 94C1045.52 97.0777 1046.98 100.274 1047.79 103.588H1048.57L1057.73 48.5455H1092.46L1068.31 194H1033.94L1036.85 176.315H1035.79C1033.75 179.677 1031.15 182.826 1027.97 185.761C1024.8 188.697 1021.04 191.064 1016.68 192.864C1012.37 194.663 1007.47 195.562 1001.98 195.562ZM1018.38 168.503C1022.6 168.503 1026.41 167.319 1029.82 164.952C1033.23 162.537 1036.09 159.152 1038.41 154.795C1040.78 150.439 1042.44 145.326 1043.38 139.455C1044.38 133.489 1044.43 128.351 1043.53 124.043C1042.63 119.734 1040.85 116.42 1038.2 114.099C1035.6 111.779 1032.16 110.619 1027.9 110.619C1023.64 110.619 1019.83 111.803 1016.47 114.17C1013.11 116.538 1010.31 119.876 1008.09 124.185C1005.86 128.493 1004.25 133.583 1003.26 139.455C1002.31 145.326 1002.22 150.439 1002.97 154.795C1003.78 159.152 1005.46 162.537 1008.02 164.952C1010.62 167.319 1014.08 168.503 1018.38 168.503ZM1134.44 237.182C1124.02 237.182 1115.35 235.738 1108.44 232.849C1101.53 229.961 1096.37 226.008 1092.96 220.989C1089.55 215.97 1087.92 210.288 1088.06 203.943L1121.3 202.097C1121.58 204.369 1122.41 206.334 1123.78 207.991C1125.16 209.649 1127.12 210.903 1129.68 211.756C1132.23 212.655 1135.41 213.105 1139.19 213.105C1145.02 213.105 1150.08 211.685 1154.39 208.844C1158.7 206.003 1161.35 201.102 1162.35 194.142L1165.54 174.966H1164.34C1162.44 178.328 1159.89 181.334 1156.67 183.986C1153.45 186.637 1149.63 188.721 1145.23 190.236C1140.83 191.751 1135.95 192.509 1130.6 192.509C1122.6 192.509 1115.62 190.662 1109.65 186.969C1103.68 183.228 1099.37 177.452 1096.72 169.639C1094.07 161.779 1093.76 151.67 1095.8 139.312C1097.93 126.576 1101.72 116.088 1107.16 107.849C1112.61 99.5634 1118.95 93.4318 1126.2 89.4545C1133.49 85.4773 1140.95 83.4886 1148.57 83.4886C1154.3 83.4886 1159.03 84.483 1162.77 86.4716C1166.51 88.4129 1169.45 90.9223 1171.58 94C1173.71 97.0777 1175.23 100.274 1176.13 103.588H1177.12L1180.17 84.9091H1214.76L1196.58 194.426C1195.11 203.706 1191.54 211.519 1185.86 217.864C1180.17 224.208 1172.91 229.014 1164.05 232.281C1155.2 235.548 1145.33 237.182 1134.44 237.182ZM1146.65 167.224C1150.87 167.224 1154.68 166.112 1158.09 163.886C1161.5 161.661 1164.36 158.465 1166.68 154.298C1169 150.132 1170.63 145.136 1171.58 139.312C1172.53 133.394 1172.53 128.304 1171.58 124.043C1170.68 119.734 1168.93 116.42 1166.33 114.099C1163.72 111.779 1160.29 110.619 1156.03 110.619C1151.72 110.619 1147.88 111.803 1144.52 114.17C1141.21 116.538 1138.41 119.876 1136.14 124.185C1133.92 128.446 1132.35 133.489 1131.45 139.312C1130.51 145.136 1130.44 150.132 1131.24 154.298C1132.09 158.465 1133.8 161.661 1136.35 163.886C1138.96 166.112 1142.39 167.224 1146.65 167.224ZM1269.43 196.06C1258.02 196.06 1248.55 193.811 1241.02 189.312C1233.54 184.767 1228.29 178.304 1225.26 169.923C1222.23 161.495 1221.68 151.481 1223.62 139.881C1225.52 128.612 1229.38 118.763 1235.2 110.335C1241.07 101.86 1248.46 95.2784 1257.36 90.5909C1266.26 85.8561 1276.18 83.4886 1287.12 83.4886C1294.88 83.4886 1301.77 84.696 1307.78 87.1108C1313.8 89.5256 1318.77 93.1241 1322.7 97.9062C1326.63 102.641 1329.3 108.465 1330.73 115.378C1332.15 122.291 1332.1 130.222 1330.58 139.17L1329.23 147.835H1234.49L1237.69 127.665H1300.19C1300.75 123.972 1300.45 120.681 1299.26 117.793C1298.08 114.904 1296.16 112.655 1293.51 111.045C1290.91 109.388 1287.71 108.56 1283.92 108.56C1280.09 108.56 1276.49 109.459 1273.13 111.259C1269.81 113.01 1266.99 115.378 1264.67 118.361C1262.35 121.344 1260.84 124.705 1260.13 128.446L1256.36 149.114C1255.61 153.706 1255.82 157.636 1257 160.903C1258.19 164.17 1260.22 166.68 1263.11 168.432C1266 170.136 1269.72 170.989 1274.26 170.989C1277.29 170.989 1280.13 170.586 1282.78 169.781C1285.44 168.929 1287.8 167.674 1289.89 166.017C1292.02 164.312 1293.75 162.253 1295.07 159.838L1326.75 160.761C1324.19 167.911 1320.24 174.137 1314.89 179.44C1309.54 184.696 1303 188.792 1295.28 191.727C1287.61 194.616 1279 196.06 1269.43 196.06ZM1418.99 84.9091L1414.66 110.477H1345.84L1350.17 84.9091H1418.99ZM1368.85 58.7727H1403.58L1386.82 159.696C1386.48 161.827 1386.53 163.555 1386.96 164.881C1387.43 166.159 1388.28 167.082 1389.51 167.651C1390.79 168.171 1392.36 168.432 1394.2 168.432C1395.48 168.432 1396.9 168.29 1398.46 168.006C1400.03 167.722 1401.21 167.509 1402.01 167.366L1403.15 192.438C1401.3 192.958 1398.82 193.55 1395.69 194.213C1392.62 194.923 1389.02 195.373 1384.9 195.562C1376.56 195.894 1369.68 194.923 1364.23 192.651C1358.83 190.33 1355.02 186.732 1352.8 181.855C1350.62 176.978 1350.19 170.87 1351.52 163.531L1368.85 58.7727Z"/>
</mask>
<path d="M43.9176 194L68.0653 48.5455H128.719C139.609 48.5455 148.487 50.0843 155.352 53.1619C162.218 56.2396 167.047 60.5483 169.841 66.0881C172.682 71.6278 173.487 78.0436 172.256 85.3352C171.261 90.8277 169.225 95.7519 166.148 100.108C163.117 104.417 159.33 108.015 154.784 110.903C150.239 113.744 145.22 115.733 139.727 116.869L139.443 118.29C145.314 118.527 150.499 120.089 154.997 122.977C159.543 125.866 162.904 129.914 165.082 135.122C167.26 140.283 167.758 146.344 166.574 153.304C165.295 161.116 162.147 168.1 157.128 174.256C152.156 180.364 145.598 185.193 137.455 188.744C129.311 192.248 119.888 194 109.188 194H43.9176ZM83.9034 165.662H105.636C113.165 165.662 118.989 164.218 123.108 161.33C127.275 158.394 129.737 154.369 130.494 149.256C131.11 145.515 130.778 142.295 129.5 139.597C128.222 136.85 126.091 134.743 123.108 133.276C120.125 131.76 116.361 131.003 111.815 131.003H89.4432L83.9034 165.662ZM93.3494 108.347H112.881C116.669 108.347 120.149 107.707 123.321 106.429C126.541 105.151 129.192 103.304 131.276 100.889C133.406 98.4744 134.732 95.5625 135.253 92.1534C136.058 87.2765 134.945 83.4413 131.915 80.6477C128.884 77.8542 124.457 76.4574 118.634 76.4574H98.6051L93.3494 108.347ZM566.751 123.545C564.1 139.218 558.892 152.452 551.126 163.247C543.409 173.995 534.01 182.139 522.93 187.679C511.898 193.219 500.037 195.989 487.348 195.989C473.948 195.989 462.348 193.006 452.547 187.04C442.746 181.074 435.62 172.385 431.169 160.974C426.766 149.563 425.913 135.714 428.612 119.426C431.169 103.754 436.306 90.4962 444.024 79.6534C451.789 68.8106 461.235 60.5956 472.362 55.0085C483.536 49.374 495.516 46.5568 508.3 46.5568C521.605 46.5568 533.134 49.5634 542.888 55.5767C552.689 61.59 559.791 70.3258 564.195 81.7841C568.598 93.2424 569.45 107.163 566.751 123.545ZM531.595 119.426C533.063 110.288 533.063 102.594 531.595 96.3438C530.175 90.0938 527.381 85.3826 523.214 82.2102C519.048 78.9905 513.626 77.3807 506.95 77.3807C499.564 77.3807 492.888 79.2036 486.922 82.8494C481.003 86.4479 476.055 91.7036 472.078 98.6165C468.101 105.482 465.331 113.792 463.768 123.545C462.159 132.778 462.111 140.473 463.626 146.628C465.189 152.783 468.101 157.423 472.362 160.548C476.624 163.626 482.045 165.165 488.626 165.165C495.965 165.165 502.571 163.389 508.442 159.838C514.313 156.287 519.214 151.102 523.143 144.284C527.121 137.466 529.938 129.18 531.595 119.426ZM702.316 194L726.464 48.5455H787.117C798.007 48.5455 806.885 50.0843 813.751 53.1619C820.616 56.2396 825.446 60.5483 828.239 66.0881C831.08 71.6278 831.885 78.0436 830.654 85.3352C829.66 90.8277 827.624 95.7519 824.546 100.108C821.516 104.417 817.728 108.015 813.183 110.903C808.637 113.744 803.618 115.733 798.126 116.869L797.842 118.29C803.713 118.527 808.897 120.089 813.396 122.977C817.941 125.866 821.303 129.914 823.481 135.122C825.659 140.283 826.156 146.344 824.972 153.304C823.694 161.116 820.545 168.1 815.526 174.256C810.555 180.364 803.997 185.193 795.853 188.744C787.709 192.248 778.287 194 767.586 194H702.316ZM742.302 165.662H764.035C771.563 165.662 777.387 164.218 781.506 161.33C785.673 158.394 788.135 154.369 788.893 149.256C789.508 145.515 789.177 142.295 787.898 139.597C786.62 136.85 784.489 134.743 781.506 133.276C778.523 131.76 774.759 131.003 770.214 131.003H747.842L742.302 165.662ZM751.748 108.347H771.279C775.067 108.347 778.547 107.707 781.719 106.429C784.939 105.151 787.591 103.304 789.674 100.889C791.805 98.4744 793.13 95.5625 793.651 92.1534C794.456 87.2765 793.344 83.4413 790.313 80.6477C787.283 77.8542 782.856 76.4574 777.032 76.4574H757.004L751.748 108.347Z" fill="#F4CE14"/>
<path d="M227.44 196.06C216.029 196.06 206.56 193.811 199.031 189.312C191.55 184.767 186.295 178.304 183.264 169.923C180.234 161.495 179.689 151.481 181.631 139.881C183.525 128.612 187.384 118.763 193.207 110.335C199.079 101.86 206.465 95.2784 215.366 90.5909C224.268 85.8561 234.188 83.4886 245.125 83.4886C252.89 83.4886 259.779 84.696 265.793 87.1108C271.806 89.5256 276.777 93.1241 280.707 97.9062C284.637 102.641 287.313 108.465 288.733 115.378C290.153 122.291 290.106 130.222 288.591 139.17L287.241 147.835H192.497L195.693 127.665H258.193C258.761 123.972 258.454 120.681 257.27 117.793C256.086 114.904 254.169 112.655 251.517 111.045C248.913 109.388 245.717 108.56 241.929 108.56C238.094 108.56 234.495 109.459 231.134 111.259C227.819 113.01 225.002 115.378 222.682 118.361C220.362 121.344 218.847 124.705 218.136 128.446L214.372 149.114C213.615 153.706 213.828 157.636 215.011 160.903C216.195 164.17 218.231 166.68 221.119 168.432C224.008 170.136 227.724 170.989 232.27 170.989C235.3 170.989 238.141 170.586 240.793 169.781C243.444 168.929 245.812 167.674 247.895 166.017C250.026 164.312 251.754 162.253 253.08 159.838L284.756 160.761C282.199 167.911 278.245 174.137 272.895 179.44C267.545 184.696 261.01 188.792 253.293 191.727C245.622 194.616 237.005 196.06 227.44 196.06ZM347.948 196.06C336.537 196.06 327.067 193.811 319.539 189.312C312.058 184.767 306.802 178.304 303.772 169.923C300.742 161.495 300.197 151.481 302.138 139.881C304.032 128.612 307.891 118.763 313.715 110.335C319.586 101.86 326.973 95.2784 335.874 90.5909C344.776 85.8561 354.695 83.4886 365.633 83.4886C373.398 83.4886 380.287 84.696 386.3 87.1108C392.314 89.5256 397.285 93.1241 401.215 97.9062C405.145 102.641 407.82 108.465 409.241 115.378C410.661 122.291 410.614 130.222 409.099 139.17L407.749 147.835H313.005L316.201 127.665H378.701C379.269 123.972 378.961 120.681 377.778 117.793C376.594 114.904 374.676 112.655 372.025 111.045C369.421 109.388 366.225 108.56 362.437 108.56C358.602 108.56 355.003 109.459 351.641 111.259C348.327 113.01 345.51 115.378 343.19 118.361C340.87 121.344 339.354 124.705 338.644 128.446L334.88 149.114C334.122 153.706 334.335 157.636 335.519 160.903C336.703 164.17 338.739 166.68 341.627 168.432C344.515 170.136 348.232 170.989 352.778 170.989C355.808 170.989 358.649 170.586 361.3 169.781C363.952 168.929 366.319 167.674 368.403 166.017C370.533 164.312 372.262 162.253 373.587 159.838L405.263 160.761C402.707 167.911 398.753 174.137 393.403 179.44C388.052 184.696 381.518 188.792 373.8 191.727C366.13 194.616 357.513 196.06 347.948 196.06ZM620.871 131.784L610.501 194H575.771L593.953 84.9091H626.979L623.712 104.938H624.919C628.328 98.2614 633.276 93.0294 639.763 89.2415C646.25 85.4062 653.541 83.4886 661.638 83.4886C669.261 83.4886 675.629 85.1932 680.743 88.6023C685.857 92.0114 689.479 96.7936 691.609 102.949C693.74 109.057 694.095 116.23 692.675 124.469L681.027 194H646.297L656.737 131.287C657.779 125.274 657.045 120.562 654.536 117.153C652.073 113.697 648.049 111.969 642.462 111.969C638.816 111.969 635.478 112.774 632.447 114.384C629.464 115.946 626.955 118.195 624.919 121.131C622.93 124.066 621.581 127.617 620.871 131.784ZM913.325 146.912L923.694 84.9091H958.353L940.171 194H907.075L910.413 173.688H909.276C905.915 180.364 900.967 185.667 894.433 189.597C887.898 193.479 880.536 195.42 872.344 195.42C864.911 195.42 858.661 193.716 853.594 190.307C848.528 186.898 844.93 182.139 842.799 176.031C840.716 169.876 840.337 162.679 841.663 154.44L853.31 84.9091H888.04L877.6 147.622C876.701 153.541 877.482 158.205 879.944 161.614C882.453 165.023 886.383 166.727 891.734 166.727C895.19 166.727 898.433 165.97 901.464 164.455C904.494 162.892 907.051 160.643 909.134 157.707C911.265 154.724 912.662 151.126 913.325 146.912ZM1001.98 195.562C993.929 195.562 986.946 193.479 981.027 189.312C975.108 185.146 970.871 178.896 968.314 170.562C965.804 162.229 965.568 151.884 967.604 139.526C969.734 126.694 973.522 116.135 978.967 107.849C984.412 99.5634 990.757 93.4318 998.001 89.4545C1005.29 85.4773 1012.73 83.4886 1020.3 83.4886C1026.03 83.4886 1030.77 84.483 1034.51 86.4716C1038.29 88.4129 1041.25 90.9223 1043.38 94C1045.52 97.0777 1046.98 100.274 1047.79 103.588H1048.57L1057.73 48.5455H1092.46L1068.31 194H1033.94L1036.85 176.315H1035.79C1033.75 179.677 1031.15 182.826 1027.97 185.761C1024.8 188.697 1021.04 191.064 1016.68 192.864C1012.37 194.663 1007.47 195.562 1001.98 195.562ZM1018.38 168.503C1022.6 168.503 1026.41 167.319 1029.82 164.952C1033.23 162.537 1036.09 159.152 1038.41 154.795C1040.78 150.439 1042.44 145.326 1043.38 139.455C1044.38 133.489 1044.43 128.351 1043.53 124.043C1042.63 119.734 1040.85 116.42 1038.2 114.099C1035.6 111.779 1032.16 110.619 1027.9 110.619C1023.64 110.619 1019.83 111.803 1016.47 114.17C1013.11 116.538 1010.31 119.876 1008.09 124.185C1005.86 128.493 1004.25 133.583 1003.26 139.455C1002.31 145.326 1002.22 150.439 1002.97 154.795C1003.78 159.152 1005.46 162.537 1008.02 164.952C1010.62 167.319 1014.08 168.503 1018.38 168.503ZM1134.44 237.182C1124.02 237.182 1115.35 235.738 1108.44 232.849C1101.53 229.961 1096.37 226.008 1092.96 220.989C1089.55 215.97 1087.92 210.288 1088.06 203.943L1121.3 202.097C1121.58 204.369 1122.41 206.334 1123.78 207.991C1125.16 209.649 1127.12 210.903 1129.68 211.756C1132.23 212.655 1135.41 213.105 1139.19 213.105C1145.02 213.105 1150.08 211.685 1154.39 208.844C1158.7 206.003 1161.35 201.102 1162.35 194.142L1165.54 174.966H1164.34C1162.44 178.328 1159.89 181.334 1156.67 183.986C1153.45 186.637 1149.63 188.721 1145.23 190.236C1140.83 191.751 1135.95 192.509 1130.6 192.509C1122.6 192.509 1115.62 190.662 1109.65 186.969C1103.68 183.228 1099.37 177.452 1096.72 169.639C1094.07 161.779 1093.76 151.67 1095.8 139.312C1097.93 126.576 1101.72 116.088 1107.16 107.849C1112.61 99.5634 1118.95 93.4318 1126.2 89.4545C1133.49 85.4773 1140.95 83.4886 1148.57 83.4886C1154.3 83.4886 1159.03 84.483 1162.77 86.4716C1166.51 88.4129 1169.45 90.9223 1171.58 94C1173.71 97.0777 1175.23 100.274 1176.13 103.588H1177.12L1180.17 84.9091H1214.76L1196.58 194.426C1195.11 203.706 1191.54 211.519 1185.86 217.864C1180.17 224.208 1172.91 229.014 1164.05 232.281C1155.2 235.548 1145.33 237.182 1134.44 237.182ZM1146.65 167.224C1150.87 167.224 1154.68 166.112 1158.09 163.886C1161.5 161.661 1164.36 158.465 1166.68 154.298C1169 150.132 1170.63 145.136 1171.58 139.312C1172.53 133.394 1172.53 128.304 1171.58 124.043C1170.68 119.734 1168.93 116.42 1166.33 114.099C1163.72 111.779 1160.29 110.619 1156.03 110.619C1151.72 110.619 1147.88 111.803 1144.52 114.17C1141.21 116.538 1138.41 119.876 1136.14 124.185C1133.92 128.446 1132.35 133.489 1131.45 139.312C1130.51 145.136 1130.44 150.132 1131.24 154.298C1132.09 158.465 1133.8 161.661 1136.35 163.886C1138.96 166.112 1142.39 167.224 1146.65 167.224ZM1269.43 196.06C1258.02 196.06 1248.55 193.811 1241.02 189.312C1233.54 184.767 1228.29 178.304 1225.26 169.923C1222.23 161.495 1221.68 151.481 1223.62 139.881C1225.52 128.612 1229.38 118.763 1235.2 110.335C1241.07 101.86 1248.46 95.2784 1257.36 90.5909C1266.26 85.8561 1276.18 83.4886 1287.12 83.4886C1294.88 83.4886 1301.77 84.696 1307.78 87.1108C1313.8 89.5256 1318.77 93.1241 1322.7 97.9062C1326.63 102.641 1329.3 108.465 1330.73 115.378C1332.15 122.291 1332.1 130.222 1330.58 139.17L1329.23 147.835H1234.49L1237.69 127.665H1300.19C1300.75 123.972 1300.45 120.681 1299.26 117.793C1298.08 114.904 1296.16 112.655 1293.51 111.045C1290.91 109.388 1287.71 108.56 1283.92 108.56C1280.09 108.56 1276.49 109.459 1273.13 111.259C1269.81 113.01 1266.99 115.378 1264.67 118.361C1262.35 121.344 1260.84 124.705 1260.13 128.446L1256.36 149.114C1255.61 153.706 1255.82 157.636 1257 160.903C1258.19 164.17 1260.22 166.68 1263.11 168.432C1266 170.136 1269.72 170.989 1274.26 170.989C1277.29 170.989 1280.13 170.586 1282.78 169.781C1285.44 168.929 1287.8 167.674 1289.89 166.017C1292.02 164.312 1293.75 162.253 1295.07 159.838L1326.75 160.761C1324.19 167.911 1320.24 174.137 1314.89 179.44C1309.54 184.696 1303 188.792 1295.28 191.727C1287.61 194.616 1279 196.06 1269.43 196.06ZM1418.99 84.9091L1414.66 110.477H1345.84L1350.17 84.9091H1418.99ZM1368.85 58.7727H1403.58L1386.82 159.696C1386.48 161.827 1386.53 163.555 1386.96 164.881C1387.43 166.159 1388.28 167.082 1389.51 167.651C1390.79 168.171 1392.36 168.432 1394.2 168.432C1395.48 168.432 1396.9 168.29 1398.46 168.006C1400.03 167.722 1401.21 167.509 1402.01 167.366L1403.15 192.438C1401.3 192.958 1398.82 193.55 1395.69 194.213C1392.62 194.923 1389.02 195.373 1384.9 195.562C1376.56 195.894 1369.68 194.923 1364.23 192.651C1358.83 190.33 1355.02 186.732 1352.8 181.855C1350.62 176.978 1350.19 170.87 1351.52 163.531L1368.85 58.7727Z" fill="#379777"/>
<path d="M43.9176 194L24.1877 190.725L20.3236 214H43.9176V194ZM68.0653 48.5455V28.5455H51.1119L48.3354 45.27L68.0653 48.5455ZM169.841 66.0881L151.983 75.0933L152.014 75.154L152.045 75.2144L169.841 66.0881ZM172.256 85.3352L191.936 88.898L191.957 88.7815L191.977 88.6647L172.256 85.3352ZM166.148 100.108L149.813 88.5673L149.801 88.5849L149.788 88.6025L166.148 100.108ZM154.784 110.903L165.384 127.863L165.447 127.824L165.51 127.784L154.784 110.903ZM139.727 116.869L135.675 97.2841L122.712 99.9662L120.116 112.947L139.727 116.869ZM139.443 118.29L119.832 114.367L115.239 137.33L138.637 138.274L139.443 118.29ZM154.997 122.977L144.191 139.807L144.231 139.832L144.271 139.858L154.997 122.977ZM165.082 135.122L146.631 142.838L146.643 142.868L146.656 142.898L165.082 135.122ZM166.574 153.304L146.857 149.951L146.846 150.012L146.836 150.074L166.574 153.304ZM157.128 174.256L141.627 161.617L141.622 161.624L141.617 161.63L157.128 174.256ZM137.455 188.744L145.359 207.116L145.404 207.097L145.449 207.077L137.455 188.744ZM83.9034 165.662L64.1541 162.505L60.4528 185.662H83.9034V165.662ZM123.108 161.33L134.59 177.705L134.608 177.692L134.627 177.679L123.108 161.33ZM130.494 149.256L110.76 146.008L110.734 146.166L110.71 146.325L130.494 149.256ZM129.5 139.597L111.368 148.037L111.397 148.098L111.425 148.158L129.5 139.597ZM123.108 133.276L114.051 151.107L114.164 151.165L114.278 151.221L123.108 133.276ZM89.4432 131.003V111.003H72.386L69.6939 127.846L89.4432 131.003ZM93.3494 108.347L73.6156 105.094L69.7834 128.347H93.3494V108.347ZM123.321 106.429L115.94 87.8406L115.893 87.8595L115.846 87.8786L123.321 106.429ZM131.276 100.889L116.279 87.6568L116.205 87.7402L116.132 87.8245L131.276 100.889ZM135.253 92.1534L115.52 88.8965L115.5 89.0146L115.482 89.1329L135.253 92.1534ZM98.6051 76.4574V56.4574H81.6315L78.8713 73.205L98.6051 76.4574ZM63.6476 197.275L87.7953 51.8209L48.3354 45.27L24.1877 190.725L63.6476 197.275ZM68.0653 68.5455H128.719V28.5455H68.0653V68.5455ZM128.719 68.5455C137.952 68.5455 143.762 69.884 147.171 71.4121L163.533 34.9117C153.211 30.2846 141.266 28.5455 128.719 28.5455V68.5455ZM147.171 71.4121C150.768 73.0246 151.671 74.4753 151.983 75.0933L187.699 57.0828C182.423 46.6212 173.667 39.4546 163.533 34.9117L147.171 71.4121ZM152.045 75.2144C152.569 76.2365 153.187 78.1418 152.535 82.0057L191.977 88.6647C193.786 77.9453 192.795 67.0192 187.637 56.9617L152.045 75.2144ZM152.576 81.7725C152.076 84.5302 151.129 86.7056 149.813 88.5673L182.482 111.649C187.322 104.798 190.446 97.1251 191.936 88.898L152.576 81.7725ZM149.788 88.6025C148.3 90.7193 146.442 92.5079 144.058 94.0229L165.51 127.784C172.217 123.522 177.935 118.114 182.507 111.613L149.788 88.6025ZM144.184 93.9434C141.741 95.4706 138.956 96.6054 135.675 97.2841L143.779 136.455C151.484 134.861 158.737 132.018 165.384 127.863L144.184 93.9434ZM120.116 112.947L119.832 114.367L159.055 122.212L159.339 120.792L120.116 112.947ZM138.637 138.274C141.317 138.382 142.978 139.028 144.191 139.807L165.803 106.148C158.02 101.15 149.312 98.6715 140.249 98.306L138.637 138.274ZM144.271 139.858C145.192 140.443 145.95 141.21 146.631 142.838L183.534 127.406C179.859 118.618 173.893 111.288 165.723 106.097L144.271 139.858ZM146.656 142.898C147.01 143.738 147.567 145.775 146.857 149.951L186.291 156.657C187.948 146.913 187.51 136.828 183.509 127.346L146.656 142.898ZM146.836 150.074C146.125 154.422 144.443 158.164 141.627 161.617L172.628 186.894C179.851 178.037 184.466 167.811 186.311 156.534L146.836 150.074ZM141.617 161.63C138.905 164.962 135.058 167.971 129.461 170.411L145.449 207.077C156.139 202.416 165.407 195.766 172.639 186.881L141.617 161.63ZM129.55 170.372C124.364 172.604 117.721 174 109.188 174V214C122.056 214 134.258 211.892 145.359 207.116L129.55 170.372ZM109.188 174H43.9176V214H109.188V174ZM83.9034 185.662H105.636V145.662H83.9034V185.662ZM105.636 185.662C115.348 185.662 125.815 183.858 134.59 177.705L111.626 144.954C111.931 144.74 111.808 144.926 110.837 145.167C109.839 145.414 108.17 145.662 105.636 145.662V185.662ZM134.627 177.679C143.341 171.54 148.731 162.629 150.278 152.187L110.71 146.325C110.696 146.422 110.693 146.382 110.743 146.241C110.794 146.095 110.883 145.895 111.019 145.672C111.155 145.449 111.302 145.266 111.431 145.131C111.557 144.998 111.626 144.954 111.589 144.98L134.627 177.679ZM150.229 152.503C151.327 145.831 151.011 138.29 147.575 131.035L111.425 148.158C111.014 147.29 110.86 146.543 110.813 146.084C110.769 145.658 110.827 145.597 110.76 146.008L150.229 152.503ZM147.632 131.156C144.237 123.863 138.59 118.603 131.938 115.33L114.278 151.221C114.046 151.107 113.505 150.795 112.88 150.178C112.238 149.543 111.72 148.793 111.368 148.037L147.632 131.156ZM132.165 115.444C125.554 112.086 118.435 111.003 111.815 111.003V151.003C112.997 151.003 113.73 151.103 114.102 151.178C114.463 151.251 114.392 151.281 114.051 151.107L132.165 115.444ZM111.815 111.003H89.4432V151.003H111.815V111.003ZM69.6939 127.846L64.1541 162.505L103.653 168.819L109.193 134.159L69.6939 127.846ZM93.3494 128.347H112.881V88.3466H93.3494V128.347ZM112.881 128.347C118.955 128.347 125.005 127.313 130.797 124.979L115.846 87.8786C115.292 88.1017 114.382 88.3466 112.881 88.3466V128.347ZM130.702 125.017C136.652 122.655 142.053 119.015 146.419 113.954L116.132 87.8245C116.16 87.7922 116.193 87.7587 116.227 87.7279C116.261 87.6972 116.286 87.679 116.295 87.6731C116.303 87.6674 116.285 87.6807 116.232 87.7087C116.179 87.737 116.085 87.7833 115.94 87.8406L130.702 125.017ZM146.272 114.122C151.122 108.625 153.966 102.093 155.023 95.1739L115.482 89.1329C115.478 89.159 115.509 88.951 115.666 88.607C115.827 88.2534 116.046 87.9206 116.279 87.6568L146.272 114.122ZM154.986 95.4103C156.636 85.4141 154.492 74.2592 145.471 65.9428L118.359 95.3526C117.283 94.3608 116.308 92.8929 115.814 91.192C115.365 89.6436 115.549 88.7192 115.52 88.8965L154.986 95.4103ZM145.471 65.9428C137.463 58.5606 127.408 56.4574 118.634 56.4574V96.4574C120 96.4574 120.459 96.6272 120.304 96.5782C120.208 96.548 119.948 96.4555 119.583 96.2504C119.211 96.0417 118.786 95.7465 118.359 95.3526L145.471 65.9428ZM118.634 56.4574H98.6051V96.4574H118.634V56.4574ZM78.8713 73.205L73.6156 105.094L113.083 111.599L118.339 79.7097L78.8713 73.205ZM199.031 189.312L188.646 206.405L188.709 206.443L188.773 206.481L199.031 189.312ZM183.264 169.923L164.444 176.69L164.45 176.707L164.456 176.724L183.264 169.923ZM181.631 139.881L161.907 136.566L161.905 136.58L181.631 139.881ZM193.207 110.335L176.767 98.9462L176.76 98.9558L176.754 98.9654L193.207 110.335ZM215.366 90.5909L224.685 108.287L224.722 108.268L224.759 108.248L215.366 90.5909ZM265.793 87.1108L273.246 68.5514L273.246 68.5513L265.793 87.1108ZM280.707 97.9062L265.256 110.604L265.287 110.642L265.318 110.68L280.707 97.9062ZM288.733 115.378L308.324 111.352L308.324 111.352L288.733 115.378ZM288.591 139.17L268.872 135.832L268.849 135.962L268.829 136.093L288.591 139.17ZM287.241 147.835V167.835H304.368L307.003 150.913L287.241 147.835ZM192.497 147.835L172.744 144.705L169.079 167.835H192.497V147.835ZM195.693 127.665V107.665H178.613L175.94 124.535L195.693 127.665ZM258.193 127.665V147.665H275.352L277.961 130.706L258.193 127.665ZM251.517 111.045L240.78 127.919L240.957 128.032L241.137 128.141L251.517 111.045ZM231.134 111.259L240.48 128.94L240.525 128.916L240.571 128.892L231.134 111.259ZM218.136 128.446L198.487 124.715L198.473 124.789L198.46 124.862L218.136 128.446ZM214.372 149.114L194.696 145.53L194.666 145.694L194.639 145.859L214.372 149.114ZM215.011 160.903L196.208 167.716L196.208 167.716L215.011 160.903ZM221.119 168.432L210.747 185.532L210.85 185.595L210.954 185.656L221.119 168.432ZM240.793 169.781L246.602 188.919L246.758 188.872L246.913 188.822L240.793 169.781ZM247.895 166.017L260.345 181.669L260.367 181.652L260.389 181.634L247.895 166.017ZM253.08 159.838L253.662 139.847L241.435 139.49L235.548 150.213L253.08 159.838ZM284.756 160.761L303.588 167.496L312.859 141.572L285.338 140.77L284.756 160.761ZM272.895 179.44L286.91 193.708L286.942 193.677L286.974 193.645L272.895 179.44ZM253.293 191.727L260.34 210.444L260.372 210.433L260.403 210.421L253.293 191.727ZM227.44 176.06C218.578 176.06 212.916 174.31 209.289 172.144L188.773 206.481C200.204 213.311 213.481 216.06 227.44 216.06V176.06ZM209.416 172.22C205.911 170.09 203.582 167.297 202.072 163.123L164.456 176.724C169.007 189.311 177.19 199.444 188.646 206.405L209.416 172.22ZM202.085 163.156C200.521 158.806 199.809 152.43 201.356 143.182L161.905 136.58C159.57 150.532 159.947 164.184 164.444 176.69L202.085 163.156ZM201.354 143.196C202.818 134.483 205.688 127.455 209.661 121.705L176.754 98.9654C169.079 110.072 164.231 122.741 161.907 136.566L201.354 143.196ZM209.648 121.724C213.734 115.825 218.703 111.437 224.685 108.287L206.048 72.8946C194.227 79.1193 184.423 87.8945 176.767 98.9462L209.648 121.724ZM224.759 108.248C230.527 105.18 237.178 103.489 245.125 103.489V63.4886C231.197 63.4886 218.009 66.5322 205.974 72.9334L224.759 108.248ZM245.125 103.489C250.832 103.489 255.116 104.376 258.34 105.67L273.246 68.5513C264.443 65.0165 254.949 63.4886 245.125 63.4886V103.489ZM258.34 105.67C261.388 106.894 263.559 108.54 265.256 110.604L296.159 85.2082C289.996 77.7085 282.224 72.1566 273.246 68.5514L258.34 105.67ZM265.318 110.68C266.86 112.538 268.285 115.231 269.142 119.403L308.324 111.352C306.34 101.699 302.414 92.7441 296.097 85.1329L265.318 110.68ZM269.142 119.403C269.944 123.307 270.086 128.658 268.872 135.832L308.31 142.509C310.126 131.785 310.362 121.275 308.324 111.352L269.142 119.403ZM268.829 136.093L267.48 144.758L307.003 150.913L308.353 142.248L268.829 136.093ZM287.241 127.835H192.497V167.835H287.241V127.835ZM212.251 150.965L215.447 130.795L175.94 124.535L172.744 144.705L212.251 150.965ZM195.693 147.665H258.193V107.665H195.693V147.665ZM277.961 130.706C278.972 124.134 278.587 117.067 275.776 110.208L238.764 125.377C238.564 124.889 238.495 124.494 238.475 124.289C238.458 124.104 238.492 124.192 238.426 124.624L277.961 130.706ZM275.776 110.208C272.981 103.389 268.229 97.7944 261.897 93.9497L241.137 128.141C240.732 127.895 240.217 127.493 239.725 126.916C239.234 126.34 238.93 125.782 238.764 125.377L275.776 110.208ZM262.255 94.1722C255.781 90.0528 248.654 88.5597 241.929 88.5597V128.56C242.373 128.56 242.409 128.609 242.148 128.541C241.862 128.467 241.361 128.289 240.78 127.919L262.255 94.1722ZM241.929 88.5597C234.821 88.5597 227.978 90.2628 221.696 93.6252L240.571 128.892C241.012 128.656 241.366 128.56 241.929 128.56V88.5597ZM221.787 93.5766C215.947 96.6638 210.94 100.881 206.895 106.082L238.469 130.64C239.063 129.875 239.691 129.357 240.48 128.94L221.787 93.5766ZM206.895 106.082C202.613 111.587 199.785 117.884 198.487 124.715L237.785 132.177C237.909 131.527 238.111 131.1 238.469 130.64L206.895 106.082ZM198.46 124.862L194.696 145.53L234.048 152.697L237.813 132.03L198.46 124.862ZM194.639 145.859C193.506 152.726 193.527 160.318 196.208 167.716L233.815 154.09C233.973 154.525 233.949 154.686 233.934 154.423C233.919 154.143 233.921 153.484 234.106 152.369L194.639 145.859ZM196.208 167.716C198.898 175.141 203.837 181.341 210.747 185.532L231.492 151.332C231.923 151.593 232.462 152.025 232.957 152.635C233.448 153.24 233.704 153.784 233.815 154.09L196.208 167.716ZM210.954 185.656C217.828 189.713 225.373 190.989 232.27 190.989V150.989C231.224 150.989 230.687 150.888 230.543 150.855C230.418 150.827 230.734 150.883 231.284 151.208L210.954 185.656ZM232.27 190.989C237.086 190.989 241.9 190.346 246.602 188.919L234.983 150.644C234.382 150.826 233.515 150.989 232.27 150.989V190.989ZM246.913 188.822C251.754 187.266 256.287 184.897 260.345 181.669L235.444 150.365C235.336 150.451 235.134 150.592 234.672 150.741L246.913 188.822ZM260.389 181.634C264.597 178.268 268.03 174.165 270.611 169.463L235.548 150.213C235.499 150.302 235.471 150.335 235.468 150.338C235.464 150.343 235.46 150.348 235.452 150.355C235.444 150.363 235.428 150.378 235.401 150.4L260.389 181.634ZM252.497 179.83L284.173 180.753L285.338 140.77L253.662 139.847L252.497 179.83ZM265.924 154.027C264.365 158.386 262.026 162.053 258.816 165.235L286.974 193.645C294.464 186.221 300.033 177.436 303.588 167.496L265.924 154.027ZM258.88 165.173C255.691 168.304 251.58 170.981 246.182 173.034L260.403 210.421C270.441 206.603 279.398 201.088 286.91 193.708L258.88 165.173ZM246.245 173.01C241.169 174.921 234.992 176.06 227.44 176.06V216.06C239.017 216.06 250.075 214.31 260.34 210.444L246.245 173.01ZM319.539 189.312L309.154 206.405L309.217 206.443L309.281 206.481L319.539 189.312ZM303.772 169.923L284.952 176.69L284.958 176.707L284.964 176.724L303.772 169.923ZM302.138 139.881L282.415 136.566L282.413 136.58L302.138 139.881ZM313.715 110.335L297.275 98.9462L297.268 98.9558L297.261 98.9654L313.715 110.335ZM335.874 90.5909L345.193 108.287L345.23 108.268L345.267 108.248L335.874 90.5909ZM386.3 87.1108L393.753 68.5514L393.753 68.5513L386.3 87.1108ZM401.215 97.9062L385.763 110.604L385.794 110.642L385.826 110.68L401.215 97.9062ZM409.241 115.378L428.831 111.352L428.831 111.352L409.241 115.378ZM409.099 139.17L389.379 135.832L389.357 135.962L389.337 136.093L409.099 139.17ZM407.749 147.835V167.835H424.876L427.511 150.913L407.749 147.835ZM313.005 147.835L293.251 144.705L289.586 167.835H313.005V147.835ZM316.201 127.665V107.665H299.12L296.447 124.535L316.201 127.665ZM378.701 127.665V147.665H395.859L398.468 130.706L378.701 127.665ZM372.025 111.045L361.287 127.919L361.465 128.032L361.645 128.141L372.025 111.045ZM351.641 111.259L360.987 128.94L361.033 128.916L361.079 128.892L351.641 111.259ZM338.644 128.446L318.995 124.715L318.981 124.789L318.968 124.862L338.644 128.446ZM334.88 149.114L315.204 145.53L315.174 145.694L315.147 145.859L334.88 149.114ZM335.519 160.903L316.715 167.716L316.715 167.716L335.519 160.903ZM341.627 168.432L331.255 185.532L331.358 185.595L331.462 185.656L341.627 168.432ZM361.3 169.781L367.11 188.919L367.266 188.872L367.421 188.822L361.3 169.781ZM368.403 166.017L380.853 181.669L380.875 181.652L380.897 181.634L368.403 166.017ZM373.587 159.838L374.17 139.847L361.943 139.49L356.056 150.213L373.587 159.838ZM405.263 160.761L424.096 167.496L433.366 141.572L405.846 140.77L405.263 160.761ZM393.403 179.44L407.418 193.708L407.45 193.677L407.482 193.645L393.403 179.44ZM373.8 191.727L380.848 210.444L380.88 210.433L380.911 210.421L373.8 191.727ZM347.948 176.06C339.086 176.06 333.424 174.31 329.797 172.144L309.281 206.481C320.711 213.311 333.989 216.06 347.948 216.06V176.06ZM329.924 172.22C326.419 170.09 324.09 167.297 322.58 163.123L284.964 176.724C289.515 189.311 297.698 199.444 309.154 206.405L329.924 172.22ZM322.592 163.156C321.028 158.806 320.317 152.43 321.864 143.182L282.413 136.58C280.078 150.532 280.455 164.184 284.952 176.69L322.592 163.156ZM321.862 143.196C323.326 134.483 326.196 127.455 330.169 121.705L297.261 98.9654C289.587 110.072 284.739 122.741 282.415 136.566L321.862 143.196ZM330.156 121.724C334.242 115.825 339.211 111.437 345.193 108.287L326.555 72.8946C314.735 79.1193 304.931 87.8945 297.275 98.9462L330.156 121.724ZM345.267 108.248C351.035 105.18 357.686 103.489 365.633 103.489V63.4886C351.704 63.4886 338.516 66.5322 326.482 72.9334L345.267 108.248ZM365.633 103.489C371.339 103.489 375.623 104.376 378.847 105.67L393.753 68.5513C384.951 65.0165 375.457 63.4886 365.633 63.4886V103.489ZM378.847 105.67C381.896 106.894 384.067 108.54 385.763 110.604L416.667 85.2082C410.504 77.7085 402.731 72.1566 393.753 68.5514L378.847 105.67ZM385.826 110.68C387.368 112.538 388.793 115.231 389.65 119.403L428.831 111.352C426.848 101.699 422.922 92.7441 416.605 85.1329L385.826 110.68ZM389.65 119.403C390.452 123.307 390.594 128.658 389.379 135.832L428.818 142.509C430.634 131.785 430.87 121.275 428.831 111.352L389.65 119.403ZM389.337 136.093L387.988 144.758L427.511 150.913L428.861 142.248L389.337 136.093ZM407.749 127.835H313.005V167.835H407.749V127.835ZM332.759 150.965L335.955 130.795L296.447 124.535L293.251 144.705L332.759 150.965ZM316.201 147.665H378.701V107.665H316.201V147.665ZM398.468 130.706C399.48 124.134 399.095 117.067 396.284 110.208L359.272 125.377C359.072 124.889 359.002 124.494 358.983 124.289C358.966 124.104 359 124.192 358.934 124.624L398.468 130.706ZM396.284 110.208C393.489 103.389 388.737 97.7944 382.404 93.9497L361.645 128.141C361.239 127.895 360.724 127.493 360.233 126.916C359.742 126.34 359.438 125.782 359.272 125.377L396.284 110.208ZM382.762 94.1722C376.289 90.0528 369.162 88.5597 362.437 88.5597V128.56C362.88 128.56 362.916 128.609 362.655 128.541C362.37 128.467 361.869 128.289 361.287 127.919L382.762 94.1722ZM362.437 88.5597C355.329 88.5597 348.486 90.2628 342.204 93.6252L361.079 128.892C361.52 128.656 361.874 128.56 362.437 128.56V88.5597ZM342.295 93.5766C336.455 96.6638 331.448 100.881 327.403 106.082L358.977 130.64C359.571 129.875 360.199 129.357 360.987 128.94L342.295 93.5766ZM327.403 106.082C323.121 111.587 320.292 117.884 318.995 124.715L358.293 132.177C358.416 131.527 358.618 131.1 358.977 130.64L327.403 106.082ZM318.968 124.862L315.204 145.53L354.556 152.697L358.32 132.03L318.968 124.862ZM315.147 145.859C314.014 152.726 314.035 160.318 316.715 167.716L354.323 154.09C354.48 154.525 354.457 154.686 354.442 154.423C354.427 154.143 354.429 153.484 354.613 152.369L315.147 145.859ZM316.715 167.716C319.405 175.141 324.345 181.341 331.255 185.532L351.999 151.332C352.431 151.593 352.97 152.025 353.465 152.635C353.956 153.24 354.212 153.784 354.323 154.09L316.715 167.716ZM331.462 185.656C338.336 189.713 345.88 190.989 352.778 190.989V150.989C351.732 150.989 351.195 150.888 351.051 150.855C350.926 150.827 351.242 150.883 351.792 151.208L331.462 185.656ZM352.778 190.989C357.594 190.989 362.408 190.346 367.11 188.919L355.491 150.644C354.89 150.826 354.022 150.989 352.778 150.989V190.989ZM367.421 188.822C372.262 187.266 376.795 184.897 380.853 181.669L355.952 150.365C355.844 150.451 355.642 150.592 355.18 150.741L367.421 188.822ZM380.897 181.634C385.105 178.268 388.538 174.165 391.119 169.463L356.056 150.213C356.007 150.302 355.979 150.335 355.976 150.338C355.972 150.343 355.968 150.348 355.96 150.355C355.952 150.363 355.936 150.378 355.909 150.4L380.897 181.634ZM373.005 179.83L404.681 180.753L405.846 140.77L374.17 139.847L373.005 179.83ZM386.431 154.027C384.873 158.386 382.534 162.053 379.324 165.235L407.482 193.645C414.972 186.221 420.541 177.436 424.096 167.496L386.431 154.027ZM379.387 165.173C376.199 168.304 372.088 170.981 366.69 173.034L380.911 210.421C390.949 206.603 399.905 201.088 407.418 193.708L379.387 165.173ZM366.753 173.01C361.677 174.921 355.5 176.06 347.948 176.06V216.06C359.525 216.06 370.583 214.31 380.848 210.444L366.753 173.01ZM566.751 123.545L586.471 126.882L586.478 126.839L586.485 126.796L566.751 123.545ZM551.126 163.247L534.89 151.569L534.886 151.575L534.881 151.582L551.126 163.247ZM522.93 187.679L513.986 169.79L513.971 169.798L513.955 169.806L522.93 187.679ZM452.547 187.04L442.148 204.124L442.148 204.124L452.547 187.04ZM431.169 160.974L412.51 168.175L412.523 168.208L412.536 168.242L431.169 160.974ZM428.612 119.426L448.343 122.696L448.347 122.671L448.351 122.646L428.612 119.426ZM444.024 79.6534L427.764 68.0085L427.747 68.032L427.73 68.0556L444.024 79.6534ZM472.362 55.0085L481.337 72.8818L481.352 72.8743L481.367 72.8667L472.362 55.0085ZM542.888 55.5767L532.392 72.6013L532.41 72.6127L532.429 72.624L542.888 55.5767ZM564.195 81.7841L582.864 74.6097L582.864 74.6097L564.195 81.7841ZM531.595 119.426L551.313 122.776L551.328 122.687L551.342 122.598L531.595 119.426ZM531.595 96.3438L512.093 100.776L512.108 100.846L512.125 100.916L531.595 96.3438ZM523.214 82.2102L510.986 98.0359L511.042 98.0797L511.099 98.123L523.214 82.2102ZM486.922 82.8494L497.312 99.9387L497.332 99.9269L497.351 99.9151L486.922 82.8494ZM472.078 98.6165L489.384 108.642L489.399 108.616L489.414 108.59L472.078 98.6165ZM463.768 123.545L483.471 126.981L483.495 126.845L483.517 126.709L463.768 123.545ZM463.626 146.628L444.206 151.408L444.223 151.479L444.241 151.549L463.626 146.628ZM472.362 160.548L460.535 176.676L460.594 176.719L460.652 176.762L472.362 160.548ZM508.442 159.838L498.091 142.725L498.091 142.725L508.442 159.838ZM523.143 144.284L505.868 134.207L505.842 134.252L505.816 134.297L523.143 144.284ZM547.032 120.209C544.791 133.453 540.558 143.69 534.89 151.569L567.363 174.926C577.226 161.214 583.409 144.983 586.471 126.882L547.032 120.209ZM534.881 151.582C528.923 159.879 521.966 165.8 513.986 169.79L531.875 205.568C546.054 198.478 557.894 188.112 567.372 174.913L534.881 151.582ZM513.955 169.806C505.788 173.907 497.011 175.989 487.348 175.989V215.989C503.064 215.989 518.009 212.53 531.905 205.552L513.955 169.806ZM487.348 175.989C476.992 175.989 469.12 173.714 462.946 169.956L442.148 204.124C455.576 212.297 470.905 215.989 487.348 215.989V175.989ZM462.946 169.956C457.152 166.429 452.773 161.325 449.802 153.707L412.536 168.242C418.466 183.445 428.339 195.718 442.148 204.124L462.946 169.956ZM449.828 153.774C447.084 146.663 446.031 136.649 448.343 122.696L408.881 116.157C405.796 134.779 406.447 152.464 412.51 168.175L449.828 153.774ZM448.351 122.646C450.51 109.416 454.685 99.1653 460.318 91.2512L427.73 68.0556C417.928 81.8272 411.828 98.0917 408.873 116.206L448.351 122.646ZM460.284 91.2983C466.3 82.8989 473.312 76.9114 481.337 72.8818L463.388 37.1352C449.159 44.2799 437.279 54.7223 427.764 68.0085L460.284 91.2983ZM481.367 72.8667C489.687 68.6716 498.574 66.5568 508.3 66.5568V26.5568C492.458 26.5568 477.386 30.0765 463.357 37.1503L481.367 72.8667ZM508.3 66.5568C518.506 66.5568 526.274 68.8293 532.392 72.6013L553.384 38.5521C539.994 30.2976 524.704 26.5568 508.3 26.5568V66.5568ZM532.429 72.624C538.221 76.1778 542.586 81.3083 545.526 88.9585L582.864 74.6097C576.997 59.3432 567.157 47.0022 553.347 38.5294L532.429 72.624ZM545.526 88.9585C548.281 96.1281 549.335 106.229 547.017 120.294L586.485 126.796C589.566 108.097 588.915 90.3567 582.864 74.6097L545.526 88.9585ZM551.342 122.598C553.056 111.929 553.331 101.419 551.065 91.7712L512.125 100.916C512.795 103.768 513.07 108.646 511.848 116.254L551.342 122.598ZM551.098 91.9113C548.879 82.148 544.012 72.9079 535.33 66.2974L511.099 98.123C511.099 98.123 511.099 98.1228 511.098 98.1223C511.098 98.1219 511.097 98.1212 511.096 98.1204C511.094 98.1187 511.092 98.1168 511.09 98.1149C511.085 98.1105 511.085 98.1096 511.089 98.1149C511.095 98.1217 511.147 98.1802 511.232 98.3237C511.403 98.613 511.767 99.3448 512.093 100.776L551.098 91.9113ZM535.443 66.3845C526.929 59.8055 516.85 57.3807 506.95 57.3807V97.3807C508.698 97.3807 509.765 97.5929 510.33 97.7606C510.608 97.8431 510.774 97.9173 510.857 97.9593C510.938 98 510.973 98.0263 510.986 98.0359L535.443 66.3845ZM506.95 57.3807C496.101 57.3807 485.779 60.1089 476.493 65.7838L497.351 99.9151C499.997 98.2982 503.027 97.3807 506.95 97.3807V57.3807ZM476.532 65.7602C467.326 71.3572 460.142 79.2572 454.743 88.6426L489.414 108.59C491.968 104.15 494.681 101.539 497.312 99.9387L476.532 65.7602ZM454.772 88.591C449.308 98.0234 445.879 108.781 444.02 120.382L483.517 126.709C484.783 118.802 486.894 112.941 489.384 108.642L454.772 88.591ZM444.066 120.11C442.188 130.879 441.791 141.595 444.206 151.408L483.047 141.847C482.432 139.35 482.129 134.677 483.471 126.981L444.066 120.11ZM444.241 151.549C446.706 161.259 451.813 170.28 460.535 176.676L484.189 144.42C484.17 144.406 484.087 144.355 483.923 144.093C483.734 143.793 483.36 143.08 483.012 141.707L444.241 151.549ZM460.652 176.762C469.098 182.861 478.911 185.165 488.626 185.165V145.165C485.179 145.165 484.149 144.391 484.072 144.335L460.652 176.762ZM488.626 185.165C499.351 185.165 509.581 182.523 518.793 176.951L498.091 142.725C495.56 144.255 492.58 145.165 488.626 145.165V185.165ZM518.792 176.951C527.955 171.41 535.105 163.581 540.471 154.272L505.816 134.297C503.322 138.623 500.671 141.164 498.091 142.725L518.792 176.951ZM540.419 154.362C545.872 145.014 549.351 134.324 551.313 122.776L511.878 116.076C510.525 124.036 508.37 129.918 505.868 134.207L540.419 154.362ZM620.871 131.784L601.155 128.423L601.149 128.46L601.143 128.496L620.871 131.784ZM610.501 194V214H627.444L630.229 197.288L610.501 194ZM575.771 194L556.043 190.712L552.162 214H575.771V194ZM593.953 84.9091V64.9091H577.011L574.225 81.6211L593.953 84.9091ZM626.979 84.9091L646.718 88.1289L650.505 64.9091H626.979V84.9091ZM623.712 104.938L603.973 101.718L600.185 124.938H623.712V104.938ZM624.919 104.938V124.938H637.163L642.731 114.033L624.919 104.938ZM639.763 89.2415L649.848 106.512L649.895 106.485L649.942 106.458L639.763 89.2415ZM680.743 88.6023L669.649 105.243L669.649 105.243L680.743 88.6023ZM691.609 102.949L672.71 109.491L672.717 109.514L672.725 109.536L691.609 102.949ZM692.675 124.469L672.966 121.071L672.957 121.118L672.95 121.164L692.675 124.469ZM681.027 194V214H697.955L700.752 197.304L681.027 194ZM646.297 194L626.568 190.716L622.692 214H646.297V194ZM656.737 131.287L637.031 127.873L637.02 127.938L637.009 128.003L656.737 131.287ZM654.536 117.153L638.246 128.757L638.336 128.884L638.429 129.01L654.536 117.153ZM632.447 114.384L641.728 132.1L641.779 132.073L641.831 132.046L632.447 114.384ZM624.919 121.131L608.485 109.733L608.422 109.823L608.361 109.914L624.919 121.131ZM601.143 128.496L590.774 190.712L630.229 197.288L640.599 135.072L601.143 128.496ZM610.501 174H575.771V214H610.501V174ZM595.499 197.288L613.681 88.1971L574.225 81.6211L556.043 190.712L595.499 197.288ZM593.953 104.909H626.979V64.9091H593.953V104.909ZM607.24 81.6892L603.973 101.718L643.451 108.157L646.718 88.1289L607.24 81.6892ZM623.712 124.938H624.919V84.9375H623.712V124.938ZM642.731 114.033C644.396 110.773 646.659 108.375 649.848 106.512L629.678 71.9705C619.893 77.6839 612.26 85.75 607.107 95.842L642.731 114.033ZM649.942 106.458C653.116 104.58 656.846 103.489 661.638 103.489V63.4886C650.236 63.4886 639.383 66.2321 629.584 72.0254L649.942 106.458ZM661.638 103.489C666.266 103.489 668.533 104.499 669.649 105.243L691.837 71.9613C682.726 65.8871 672.256 63.4886 661.638 63.4886V103.489ZM669.649 105.243C670.902 106.079 671.917 107.2 672.71 109.491L710.509 96.4067C707.041 86.3868 700.811 77.9442 691.837 71.9613L669.649 105.243ZM672.725 109.536C673.458 111.637 673.974 115.224 672.966 121.071L712.384 127.867C714.217 117.236 714.022 106.477 710.493 96.3614L672.725 109.536ZM672.95 121.164L661.302 190.696L700.752 197.304L712.4 127.773L672.95 121.164ZM681.027 174H646.297V214H681.027V174ZM666.025 197.284L676.466 134.571L637.009 128.003L626.568 190.716L666.025 197.284ZM676.444 134.701C678 125.715 677.583 114.727 670.642 105.297L638.429 129.01C638.016 128.449 637.716 127.884 637.511 127.373C637.311 126.871 637.234 126.498 637.206 126.322C637.159 126.019 637.279 126.442 637.031 127.873L676.444 134.701ZM670.825 105.55C663.471 95.2254 652.265 91.9688 642.462 91.9688V131.969C643.261 131.969 642.845 132.1 641.779 131.642C640.538 131.109 639.211 130.113 638.246 128.757L670.825 105.55ZM642.462 91.9688C635.755 91.9688 629.165 93.4805 623.064 96.7212L641.831 132.046C641.861 132.03 641.875 132.024 641.912 132.015C641.954 132.005 642.121 131.969 642.462 131.969V91.9688ZM623.167 96.6669C617.151 99.8185 612.245 104.311 608.485 109.733L641.353 132.529C641.536 132.266 641.651 132.159 641.676 132.136C641.698 132.116 641.705 132.112 641.728 132.1L623.167 96.6669ZM608.361 109.914C604.493 115.623 602.254 121.975 601.155 128.423L640.586 135.145C640.908 133.259 641.367 132.51 641.477 132.348L608.361 109.914ZM702.316 194L682.586 190.725L678.722 214H702.316V194ZM726.464 48.5455V28.5455H709.51L706.734 45.27L726.464 48.5455ZM828.239 66.0881L810.381 75.0933L810.412 75.154L810.443 75.2144L828.239 66.0881ZM830.654 85.3352L850.334 88.898L850.355 88.7815L850.375 88.6647L830.654 85.3352ZM824.546 100.108L808.212 88.5673L808.199 88.5849L808.187 88.6025L824.546 100.108ZM813.183 110.903L823.783 127.863L823.846 127.824L823.909 127.784L813.183 110.903ZM798.126 116.869L794.074 97.2841L781.11 99.9662L778.514 112.947L798.126 116.869ZM797.842 118.29L778.23 114.367L773.638 137.33L797.036 138.274L797.842 118.29ZM813.396 122.977L802.589 139.807L802.629 139.832L802.669 139.858L813.396 122.977ZM823.481 135.122L805.029 142.838L805.042 142.868L805.054 142.898L823.481 135.122ZM824.972 153.304L805.255 149.951L805.245 150.012L805.235 150.074L824.972 153.304ZM815.526 174.256L800.026 161.617L800.02 161.624L800.015 161.63L815.526 174.256ZM795.853 188.744L803.757 207.116L803.802 207.097L803.847 207.077L795.853 188.744ZM742.302 165.662L722.553 162.505L718.851 185.662H742.302V165.662ZM781.506 161.33L792.988 177.705L793.007 177.692L793.025 177.679L781.506 161.33ZM788.893 149.256L769.158 146.008L769.132 146.166L769.109 146.325L788.893 149.256ZM787.898 139.597L769.767 148.037L769.795 148.098L769.824 148.158L787.898 139.597ZM781.506 133.276L772.449 151.107L772.562 151.165L772.676 151.221L781.506 133.276ZM747.842 131.003V111.003H730.784L728.092 127.846L747.842 131.003ZM751.748 108.347L732.014 105.094L728.182 128.347H751.748V108.347ZM781.719 106.429L774.339 87.8406L774.291 87.8595L774.244 87.8786L781.719 106.429ZM789.674 100.889L774.677 87.6568L774.604 87.7402L774.531 87.8245L789.674 100.889ZM793.651 92.1534L773.918 88.8965L773.899 89.0146L773.881 89.1329L793.651 92.1534ZM757.004 76.4574V56.4574H740.03L737.27 73.205L757.004 76.4574ZM722.046 197.275L746.194 51.8209L706.734 45.27L682.586 190.725L722.046 197.275ZM726.464 68.5455H787.117V28.5455H726.464V68.5455ZM787.117 68.5455C796.35 68.5455 802.161 69.884 805.57 71.4121L821.932 34.9117C811.61 30.2846 799.664 28.5455 787.117 28.5455V68.5455ZM805.57 71.4121C809.167 73.0246 810.07 74.4753 810.381 75.0933L846.097 57.0828C840.822 46.6212 832.066 39.4546 821.932 34.9117L805.57 71.4121ZM810.443 75.2144C810.967 76.2365 811.586 78.1418 810.933 82.0057L850.375 88.6647C852.185 77.9453 851.193 67.0192 846.036 56.9617L810.443 75.2144ZM810.974 81.7725C810.475 84.5302 809.527 86.7056 808.212 88.5673L840.881 111.649C845.721 104.798 848.845 97.1251 850.334 88.898L810.974 81.7725ZM808.187 88.6025C806.698 90.7193 804.841 92.5079 802.456 94.0229L823.909 127.784C830.615 123.522 836.334 118.114 840.905 111.613L808.187 88.6025ZM802.583 93.9434C800.139 95.4706 797.354 96.6054 794.074 97.2841L802.178 136.455C809.882 134.861 817.135 132.018 823.783 127.863L802.583 93.9434ZM778.514 112.947L778.23 114.367L817.453 122.212L817.737 120.792L778.514 112.947ZM797.036 138.274C799.715 138.382 801.376 139.028 802.589 139.807L824.202 106.148C816.419 101.15 807.71 98.6715 798.647 98.306L797.036 138.274ZM802.669 139.858C803.591 140.443 804.348 141.21 805.029 142.838L841.932 127.406C838.257 118.618 832.291 111.288 824.122 106.097L802.669 139.858ZM805.054 142.898C805.409 143.738 805.966 145.775 805.255 149.951L844.689 156.657C846.346 146.913 845.909 136.828 841.907 127.346L805.054 142.898ZM805.235 150.074C804.523 154.422 802.841 158.164 800.026 161.617L831.027 186.894C838.249 178.037 842.864 167.811 844.71 156.534L805.235 150.074ZM800.015 161.63C797.304 164.962 793.456 167.971 787.859 170.411L803.847 207.077C814.537 202.416 823.806 195.766 831.038 186.881L800.015 161.63ZM787.949 170.372C782.762 172.604 776.119 174 767.586 174V214C780.454 214 792.656 211.892 803.757 207.116L787.949 170.372ZM767.586 174H702.316V214H767.586V174ZM742.302 185.662H764.035V145.662H742.302V185.662ZM764.035 185.662C773.746 185.662 784.213 183.858 792.988 177.705L770.025 144.954C770.329 144.74 770.207 144.926 769.235 145.167C768.238 145.414 766.568 145.662 764.035 145.662V185.662ZM793.025 177.679C801.739 171.54 807.13 162.629 808.677 152.187L769.109 146.325C769.094 146.422 769.092 146.382 769.142 146.241C769.193 146.095 769.281 145.895 769.417 145.672C769.554 145.449 769.7 145.266 769.829 145.131C769.955 144.998 770.024 144.954 769.987 144.98L793.025 177.679ZM808.627 152.503C809.725 145.831 809.41 138.29 805.973 131.035L769.824 148.158C769.412 147.29 769.258 146.543 769.211 146.084C769.167 145.658 769.226 145.597 769.158 146.008L808.627 152.503ZM806.03 131.156C802.635 123.863 796.988 118.603 790.337 115.33L772.676 151.221C772.444 151.107 771.904 150.795 771.279 150.178C770.637 149.543 770.119 148.793 769.767 148.037L806.03 131.156ZM790.564 115.444C783.953 112.086 776.834 111.003 770.214 111.003V151.003C771.396 151.003 772.128 151.103 772.5 151.178C772.862 151.251 772.791 151.281 772.449 151.107L790.564 115.444ZM770.214 111.003H747.842V151.003H770.214V111.003ZM728.092 127.846L722.553 162.505L762.051 168.819L767.591 134.159L728.092 127.846ZM751.748 128.347H771.279V88.3466H751.748V128.347ZM771.279 128.347C777.353 128.347 783.404 127.313 789.195 124.979L774.244 87.8786C773.69 88.1017 772.781 88.3466 771.279 88.3466V128.347ZM789.1 125.017C795.051 122.655 800.451 119.015 804.817 113.954L774.531 87.8245C774.559 87.7922 774.591 87.7587 774.626 87.7279C774.66 87.6972 774.684 87.679 774.693 87.6731C774.701 87.6674 774.683 87.6807 774.631 87.7087C774.578 87.737 774.483 87.7833 774.339 87.8406L789.1 125.017ZM804.671 114.122C809.521 108.625 812.365 102.093 813.422 95.1739L773.881 89.1329C773.877 89.159 773.907 88.951 774.064 88.607C774.225 88.2534 774.444 87.9206 774.677 87.6568L804.671 114.122ZM813.384 95.4103C815.034 85.4141 812.89 74.2592 803.869 65.9428L776.757 95.3526C775.681 94.3608 774.706 92.8929 774.213 91.192C773.763 89.6436 773.948 88.7192 773.918 88.8965L813.384 95.4103ZM803.869 65.9428C795.861 58.5606 785.806 56.4574 777.032 56.4574V96.4574C778.398 96.4574 778.858 96.6272 778.702 96.5782C778.607 96.548 778.346 96.4555 777.981 96.2504C777.61 96.0417 777.184 95.7465 776.757 95.3526L803.869 65.9428ZM777.032 56.4574H757.004V96.4574H777.032V56.4574ZM737.27 73.205L732.014 105.094L771.482 111.599L776.737 79.7097L737.27 73.205ZM913.325 146.912L893.599 143.613L893.583 143.708L893.568 143.804L913.325 146.912ZM923.694 84.9091V64.9091H906.761L903.968 81.6101L923.694 84.9091ZM958.353 84.9091L978.081 88.1971L981.962 64.9091H958.353V84.9091ZM940.171 194V214H957.114L959.899 197.288L940.171 194ZM907.075 194L887.339 190.757L883.52 214H907.075V194ZM910.413 173.688L930.148 176.931L933.968 153.688H910.413V173.688ZM909.276 173.688V153.688H896.955L891.413 164.693L909.276 173.688ZM894.433 189.597L904.649 206.79L904.695 206.763L904.741 206.735L894.433 189.597ZM853.594 190.307L842.429 206.9L853.594 190.307ZM842.799 176.031L823.855 182.443L823.884 182.531L823.915 182.619L842.799 176.031ZM841.663 154.44L821.937 151.136L821.927 151.199L821.917 151.263L841.663 154.44ZM853.31 84.9091V64.9091H836.382L833.585 81.6048L853.31 84.9091ZM888.04 84.9091L907.769 88.1934L911.645 64.9091H888.04V84.9091ZM877.6 147.622L857.872 144.338L857.848 144.477L857.827 144.617L877.6 147.622ZM879.944 161.614L863.73 173.323L863.783 173.397L863.837 173.47L879.944 161.614ZM901.464 164.455L910.408 182.343L910.519 182.288L910.63 182.231L901.464 164.455ZM909.134 157.707L892.86 146.083L892.842 146.108L892.824 146.132L909.134 157.707ZM933.051 150.211L943.42 88.2081L903.968 81.6101L893.599 143.613L933.051 150.211ZM923.694 104.909H958.353V64.9091H923.694V104.909ZM938.625 81.6211L920.443 190.712L959.899 197.288L978.081 88.1971L938.625 81.6211ZM940.171 174H907.075V214H940.171V174ZM926.81 197.243L930.148 176.931L890.677 170.444L887.339 190.757L926.81 197.243ZM910.413 153.688H909.276V193.688H910.413V153.688ZM891.413 164.693C889.786 167.924 887.49 170.433 884.124 172.458L904.741 206.735C914.443 200.9 922.043 192.803 927.139 182.682L891.413 164.693ZM884.216 172.403C881.013 174.306 877.229 175.42 872.344 175.42V215.42C883.842 215.42 894.784 212.652 904.649 206.79L884.216 172.403ZM872.344 175.42C868.014 175.42 865.868 174.46 864.76 173.714L842.429 206.9C851.453 212.972 861.807 215.42 872.344 215.42V175.42ZM864.76 173.714C863.501 172.866 862.48 171.728 861.683 169.444L823.915 182.619C827.379 192.55 833.556 200.929 842.429 206.9L864.76 173.714ZM861.743 169.619C860.958 167.3 860.457 163.53 861.409 157.618L821.917 151.263C820.217 161.828 820.473 172.452 823.855 182.443L861.743 169.619ZM861.388 157.745L873.036 88.2134L833.585 81.6048L821.937 151.136L861.388 157.745ZM853.31 104.909H888.04V64.9091H853.31V104.909ZM868.312 81.6247L857.872 144.338L897.329 150.907L907.769 88.1934L868.312 81.6247ZM857.827 144.617C856.476 153.51 857.102 164.146 863.73 173.323L896.157 149.904C896.526 150.414 896.791 150.919 896.971 151.366C897.147 151.805 897.214 152.121 897.237 152.255C897.274 152.48 897.161 152.024 897.373 150.628L857.827 144.617ZM863.837 173.47C871.097 183.333 881.886 186.727 891.734 186.727V146.727C891.136 146.727 891.643 146.628 892.732 147.1C893.968 147.637 895.184 148.58 896.051 149.757L863.837 173.47ZM891.734 186.727C898.23 186.727 904.543 185.276 910.408 182.343L892.52 146.566C892.324 146.664 892.15 146.727 891.734 146.727V186.727ZM910.63 182.231C916.662 179.12 921.616 174.677 925.444 169.282L892.824 146.132C892.486 146.609 892.326 146.664 892.298 146.678L910.63 182.231ZM925.409 169.332C929.621 163.436 932.015 156.803 933.082 150.02L893.568 143.804C893.309 145.449 892.909 146.013 892.86 146.083L925.409 169.332ZM981.027 189.312L969.514 205.666L969.514 205.666L981.027 189.312ZM968.314 170.562L949.163 176.329L949.178 176.379L949.194 176.429L968.314 170.562ZM967.604 139.526L947.874 136.249L947.872 136.262L947.87 136.274L967.604 139.526ZM978.967 107.849L995.681 118.833L995.681 118.833L978.967 107.849ZM998.001 89.4545L988.424 71.8966L988.4 71.9098L988.376 71.923L998.001 89.4545ZM1034.51 86.4716L1025.12 104.131L1025.25 104.202L1025.39 104.27L1034.51 86.4716ZM1043.38 94L1026.94 105.384L1026.94 105.384L1043.38 94ZM1047.79 103.588L1028.35 108.308L1032.06 123.588H1047.79V103.588ZM1048.57 103.588V123.588H1065.52L1068.3 106.872L1048.57 103.588ZM1057.73 48.5455V28.5455H1040.79L1038 45.2616L1057.73 48.5455ZM1092.46 48.5455L1112.19 51.8209L1116.06 28.5455H1092.46V48.5455ZM1068.31 194V214H1085.27L1088.04 197.275L1068.31 194ZM1033.94 194L1014.2 190.751L1010.38 214H1033.94V194ZM1036.85 176.315L1056.59 179.565L1060.41 156.315H1036.85V176.315ZM1035.79 176.315V156.315H1024.52L1018.68 165.955L1035.79 176.315ZM1027.97 185.761L1014.39 171.082L1014.39 171.082L1027.97 185.761ZM1016.68 192.864L1009.05 174.378L1009.01 174.393L1008.97 174.408L1016.68 192.864ZM1029.82 164.952L1041.23 181.379L1041.3 181.326L1041.38 181.272L1029.82 164.952ZM1038.41 154.795L1020.84 145.245L1020.8 145.319L1020.76 145.394L1038.41 154.795ZM1043.38 139.455L1023.66 136.167L1023.65 136.218L1023.64 136.27L1043.38 139.455ZM1038.2 114.099L1024.9 129.033L1024.96 129.092L1025.03 129.151L1038.2 114.099ZM1003.26 139.455L983.538 136.115L983.525 136.192L983.512 136.27L1003.26 139.455ZM1002.97 154.795L983.269 158.222L983.287 158.326L983.306 158.43L1002.97 154.795ZM1008.02 164.952L994.283 179.492L994.421 179.623L994.562 179.751L1008.02 164.952ZM1001.98 175.562C997.569 175.562 994.714 174.489 992.54 172.959L969.514 205.666C979.177 212.469 990.29 215.562 1001.98 215.562V175.562ZM992.54 172.959C990.948 171.838 988.963 169.68 987.434 164.696L949.194 176.429C952.778 188.111 959.269 198.454 969.514 205.666L992.54 172.959ZM987.464 164.796C986.135 160.379 985.595 153.352 987.338 142.777L947.87 136.274C945.54 150.415 945.474 164.079 949.163 176.329L987.464 164.796ZM987.334 142.802C989.143 131.903 992.166 124.182 995.681 118.833L962.253 96.8659C954.878 108.088 950.325 121.485 947.874 136.249L987.334 142.802ZM995.681 118.833C999.689 112.734 1003.76 109.107 1007.63 106.986L988.376 71.923C977.751 77.7564 969.135 86.393 962.253 96.8659L995.681 118.833ZM1007.58 107.012C1012.22 104.48 1016.39 103.489 1020.3 103.489V63.4886C1009.07 63.4886 998.364 66.475 988.424 71.8966L1007.58 107.012ZM1020.3 103.489C1023.86 103.489 1025.11 104.125 1025.12 104.131L1043.9 68.8122C1036.43 64.8412 1028.2 63.4886 1020.3 63.4886V103.489ZM1025.39 104.27C1026.65 104.917 1026.93 105.367 1026.94 105.384L1059.83 82.6158C1055.58 76.4775 1049.94 71.9085 1043.63 68.6729L1025.39 104.27ZM1026.94 105.384C1027.81 106.64 1028.18 107.602 1028.35 108.308L1067.22 98.8681C1065.79 92.9453 1063.22 87.5154 1059.83 82.6158L1026.94 105.384ZM1047.79 123.588H1048.57V83.5881H1047.79V123.588ZM1068.3 106.872L1077.46 51.8293L1038 45.2616L1028.84 100.304L1068.3 106.872ZM1057.73 68.5455H1092.46V28.5455H1057.73V68.5455ZM1072.73 45.27L1048.58 190.725L1088.04 197.275L1112.19 51.8209L1072.73 45.27ZM1068.31 174H1033.94V214H1068.31V174ZM1053.67 197.249L1056.59 179.565L1017.12 173.066L1014.2 190.751L1053.67 197.249ZM1036.85 156.315H1035.79V196.315H1036.85V156.315ZM1018.68 165.955C1017.7 167.569 1016.33 169.289 1014.39 171.082L1041.56 200.441C1045.96 196.362 1049.8 191.785 1052.89 186.676L1018.68 165.955ZM1014.39 171.082C1013.11 172.267 1011.41 173.403 1009.05 174.378L1024.32 211.349C1030.67 208.726 1036.49 205.127 1041.56 200.441L1014.39 171.082ZM1008.97 174.408C1007.5 175.025 1005.28 175.562 1001.98 175.562V215.562C1009.66 215.562 1017.25 214.301 1024.39 211.319L1008.97 174.408ZM1018.38 188.503C1026.61 188.503 1034.41 186.11 1041.23 181.379L1018.41 148.524C1018.38 148.545 1018.36 148.556 1018.36 148.56C1018.35 148.565 1018.35 148.563 1018.36 148.558C1018.37 148.553 1018.39 148.546 1018.41 148.538C1018.43 148.53 1018.45 148.522 1018.47 148.515C1018.49 148.508 1018.51 148.503 1018.53 148.499C1018.55 148.496 1018.55 148.495 1018.55 148.495C1018.55 148.495 1018.54 148.497 1018.51 148.499C1018.48 148.501 1018.44 148.503 1018.38 148.503V188.503ZM1041.38 181.272C1047.75 176.758 1052.55 170.806 1056.07 164.197L1020.76 145.394C1019.64 147.497 1018.7 148.316 1018.26 148.631L1041.38 181.272ZM1055.99 164.346C1059.62 157.655 1061.89 150.308 1063.13 142.639L1023.64 136.27C1022.98 140.344 1021.94 143.224 1020.84 145.245L1055.99 164.346ZM1063.11 142.743C1064.37 135.183 1064.66 127.415 1063.1 119.955L1023.95 128.13C1024.19 129.288 1024.39 131.794 1023.66 136.167L1063.11 142.743ZM1063.1 119.955C1061.54 112.47 1058.03 104.878 1051.37 99.0479L1025.03 129.151C1024.43 128.622 1024.06 128.091 1023.89 127.77C1023.74 127.485 1023.82 127.535 1023.95 128.13L1063.1 119.955ZM1051.5 99.1662C1044.47 92.8974 1035.93 90.6193 1027.9 90.6193V130.619C1028.23 130.619 1027.94 130.664 1027.27 130.437C1026.54 130.19 1025.68 129.731 1024.9 129.033L1051.5 99.1662ZM1027.9 90.6193C1019.68 90.6193 1011.81 92.9867 1004.95 97.8183L1027.98 130.523C1028.01 130.506 1027.99 130.517 1027.95 130.541C1027.92 130.552 1027.9 130.564 1027.87 130.576C1027.84 130.588 1027.81 130.598 1027.78 130.607C1027.72 130.626 1027.69 130.63 1027.69 130.63C1027.7 130.629 1027.76 130.619 1027.9 130.619V90.6193ZM1004.95 97.8183C998.524 102.345 993.755 108.35 990.317 115.007L1025.86 133.362C1026.87 131.401 1027.69 130.731 1027.98 130.523L1004.95 97.8183ZM990.317 115.007C986.957 121.512 984.801 128.654 983.538 136.115L1022.98 142.794C1023.7 138.512 1024.77 135.475 1025.86 133.362L990.317 115.007ZM983.512 136.27C982.326 143.625 982.025 151.071 983.269 158.222L1022.68 151.369C1022.41 149.807 1022.29 147.026 1023 142.639L983.512 136.27ZM983.306 158.43C984.68 165.865 987.921 173.483 994.283 179.492L1021.75 150.411C1022.02 150.664 1022.24 150.92 1022.41 151.16C1022.58 151.398 1022.69 151.59 1022.75 151.707C1022.86 151.935 1022.76 151.818 1022.64 151.161L983.306 158.43ZM994.562 179.751C1001.63 186.176 1010.27 188.503 1018.38 188.503V148.503C1018.05 148.503 1018.35 148.456 1019.04 148.694C1019.79 148.952 1020.68 149.431 1021.47 150.153L994.562 179.751ZM1108.44 232.849L1100.73 251.303L1100.73 251.303L1108.44 232.849ZM1092.96 220.989L1076.41 232.226L1092.96 220.989ZM1088.06 203.943L1086.95 183.974L1068.48 185L1068.06 203.496L1088.06 203.943ZM1121.3 202.097L1141.14 199.616L1138.83 181.092L1120.19 182.127L1121.3 202.097ZM1123.78 207.991L1108.38 220.752L1108.38 220.752L1123.78 207.991ZM1129.68 211.756L1136.32 192.889L1136.16 192.834L1136 192.782L1129.68 211.756ZM1154.39 208.844L1143.38 192.147L1143.38 192.147L1154.39 208.844ZM1162.35 194.142L1142.62 190.854L1142.58 191.083L1142.55 191.314L1162.35 194.142ZM1165.54 174.966L1185.27 178.254L1189.15 154.966H1165.54V174.966ZM1164.34 174.966V154.966H1152.65L1146.91 165.149L1164.34 174.966ZM1156.67 183.986L1143.95 168.547L1143.95 168.547L1156.67 183.986ZM1109.65 186.969L1099.03 203.914L1099.07 203.944L1099.12 203.974L1109.65 186.969ZM1096.72 169.639L1077.77 176.032L1077.78 176.05L1077.78 176.067L1096.72 169.639ZM1095.8 139.312L1076.07 136.013L1076.07 136.037L1076.07 136.061L1095.8 139.312ZM1107.16 107.849L1123.85 118.877L1123.86 118.855L1123.88 118.833L1107.16 107.849ZM1126.2 89.4545L1116.62 71.8966L1116.6 71.9098L1116.57 71.923L1126.2 89.4545ZM1162.77 86.4716L1153.39 104.131L1153.47 104.178L1153.56 104.223L1162.77 86.4716ZM1176.13 103.588L1156.82 108.827L1160.83 123.588H1176.13V103.588ZM1177.12 103.588V123.588H1194.12L1196.86 106.815L1177.12 103.588ZM1180.17 84.9091V64.9091H1163.18L1160.44 81.682L1180.17 84.9091ZM1214.76 84.9091L1234.49 88.1846L1238.36 64.9091H1214.76V84.9091ZM1196.58 194.426L1176.85 191.151L1176.84 191.226L1176.83 191.302L1196.58 194.426ZM1185.86 217.864L1170.96 204.521L1185.86 217.864ZM1164.05 232.281L1157.13 213.518L1157.13 213.518L1164.05 232.281ZM1158.09 163.886L1169.02 180.634L1158.09 163.886ZM1171.58 139.312L1191.32 142.522L1191.33 142.497L1191.33 142.472L1171.58 139.312ZM1171.58 124.043L1152 128.13L1152.03 128.256L1152.06 128.381L1171.58 124.043ZM1166.33 114.099L1153.02 129.033L1153.02 129.033L1166.33 114.099ZM1144.52 114.17L1133.01 97.8183L1132.95 97.8569L1132.9 97.8958L1144.52 114.17ZM1136.14 124.185L1118.45 114.854L1118.43 114.89L1118.41 114.927L1136.14 124.185ZM1131.45 139.312L1151.19 142.522L1151.21 142.444L1151.22 142.366L1131.45 139.312ZM1131.24 154.298L1111.6 158.092L1111.62 158.199L1111.65 158.306L1131.24 154.298ZM1136.35 163.886L1123.22 178.972L1123.29 179.032L1123.36 179.091L1136.35 163.886ZM1134.44 217.182C1125.7 217.182 1119.87 215.948 1116.15 214.395L1100.73 251.303C1110.84 255.527 1122.34 257.182 1134.44 257.182V217.182ZM1116.15 214.395C1111.98 212.651 1110.27 210.877 1109.5 209.751L1076.41 232.226C1082.47 241.139 1091.08 247.271 1100.73 251.303L1116.15 214.395ZM1109.5 209.751C1108.54 208.338 1108 206.78 1108.05 204.391L1068.06 203.496C1067.83 213.796 1070.56 223.601 1076.41 232.226L1109.5 209.751ZM1089.17 223.912L1122.41 222.066L1120.19 182.127L1086.95 183.974L1089.17 223.912ZM1101.45 204.577C1102.18 210.376 1104.42 215.97 1108.38 220.752L1139.18 195.231C1139.73 195.895 1140.21 196.667 1140.56 197.504C1140.91 198.332 1141.07 199.066 1141.14 199.616L1101.45 204.577ZM1108.38 220.752C1112.68 225.933 1118.14 228.991 1123.35 230.729L1136 192.782C1136.1 192.815 1137.64 193.364 1139.18 195.231L1108.38 220.752ZM1123.04 230.622C1128.39 232.505 1133.98 233.105 1139.19 233.105V193.105C1138.08 193.105 1137.29 193.038 1136.78 192.966C1136.27 192.893 1136.15 192.831 1136.32 192.889L1123.04 230.622ZM1139.19 233.105C1148.41 233.105 1157.42 230.805 1165.4 225.541L1143.38 192.147C1142.75 192.564 1141.62 193.105 1139.19 193.105V233.105ZM1165.4 225.541C1176.04 218.525 1180.65 207.452 1182.15 196.97L1142.55 191.314C1142.3 193.038 1141.97 193.616 1142.02 193.52C1142.06 193.455 1142.19 193.24 1142.44 192.955C1142.7 192.665 1143.02 192.384 1143.38 192.147L1165.4 225.541ZM1182.08 197.43L1185.27 178.254L1145.82 171.678L1142.62 190.854L1182.08 197.43ZM1165.54 154.966H1164.34V194.966H1165.54V154.966ZM1146.91 165.149C1146.32 166.194 1145.42 167.336 1143.95 168.547L1169.38 199.424C1174.35 195.333 1178.56 190.461 1181.76 184.783L1146.91 165.149ZM1143.95 168.547C1142.78 169.513 1141.13 170.496 1138.72 171.324L1151.74 209.148C1158.14 206.945 1164.11 203.762 1169.38 199.424L1143.95 168.547ZM1138.72 171.324C1136.7 172.02 1134.06 172.509 1130.6 172.509V212.509C1137.84 212.509 1144.96 211.482 1151.74 209.148L1138.72 171.324ZM1130.6 172.509C1125.78 172.509 1122.55 171.436 1120.18 169.963L1099.12 203.974C1108.68 209.888 1119.41 212.509 1130.6 212.509V172.509ZM1120.27 170.024C1118.85 169.134 1117.1 167.449 1115.66 163.211L1077.78 176.067C1081.65 187.454 1088.51 197.323 1099.03 203.914L1120.27 170.024ZM1115.67 163.246C1114.47 159.672 1113.78 153.202 1115.53 142.564L1076.07 136.061C1073.75 150.139 1073.68 163.887 1077.77 176.032L1115.67 163.246ZM1115.53 142.612C1117.33 131.825 1120.34 124.18 1123.85 118.877L1090.48 96.8219C1083.09 107.996 1078.53 121.327 1076.07 136.013L1115.53 142.612ZM1123.88 118.833C1127.89 112.734 1131.96 109.107 1135.82 106.986L1116.57 71.923C1105.95 77.7564 1097.33 86.393 1090.45 96.8659L1123.88 118.833ZM1135.77 107.012C1140.4 104.491 1144.59 103.489 1148.57 103.489V63.4886C1137.31 63.4886 1126.58 66.464 1116.62 71.8966L1135.77 107.012ZM1148.57 103.489C1152.13 103.489 1153.37 104.125 1153.39 104.131L1172.16 68.8122C1164.69 64.8412 1156.47 63.4886 1148.57 63.4886V103.489ZM1153.56 104.223C1154.78 104.854 1155.08 105.309 1155.14 105.384L1188.02 82.6158C1183.82 76.5361 1178.25 71.9713 1171.99 68.7199L1153.56 104.223ZM1155.14 105.384C1156.09 106.759 1156.57 107.898 1156.82 108.827L1195.43 98.349C1193.88 92.6496 1191.33 87.3962 1188.02 82.6158L1155.14 105.384ZM1176.13 123.588H1177.12V83.5881H1176.13V123.588ZM1196.86 106.815L1199.91 88.1362L1160.44 81.682L1157.38 100.361L1196.86 106.815ZM1180.17 104.909H1214.76V64.9091H1180.17V104.909ZM1195.03 81.6336L1176.85 191.151L1216.31 197.702L1234.49 88.1846L1195.03 81.6336ZM1176.83 191.302C1175.9 197.187 1173.81 201.336 1170.96 204.521L1200.76 231.206C1209.27 221.701 1214.33 210.226 1216.34 197.551L1176.83 191.302ZM1170.96 204.521C1167.68 208.181 1163.26 211.256 1157.13 213.518L1170.98 251.045C1182.55 246.772 1192.67 240.235 1200.76 231.206L1170.96 204.521ZM1157.13 213.518C1150.8 215.852 1143.32 217.182 1134.44 217.182V257.182C1147.33 257.182 1159.59 255.245 1170.98 251.045L1157.13 213.518ZM1146.65 187.224C1154.6 187.224 1162.24 185.059 1169.02 180.634L1147.15 147.139C1147.09 147.178 1147.06 147.192 1147.06 147.193C1147.06 147.194 1147.06 147.194 1147.06 147.193C1147.06 147.192 1147.07 147.191 1147.07 147.191C1147.07 147.191 1147.06 147.193 1147.05 147.195C1147.04 147.197 1147.02 147.201 1146.99 147.205C1146.93 147.213 1146.82 147.224 1146.65 147.224V187.224ZM1169.02 180.634C1175.58 176.353 1180.53 170.544 1184.15 164.028L1149.21 144.569C1148.19 146.386 1147.41 146.969 1147.15 147.139L1169.02 180.634ZM1184.15 164.028C1187.83 157.42 1190.09 150.112 1191.32 142.522L1151.84 136.103C1151.18 140.161 1150.17 142.843 1149.21 144.569L1184.15 164.028ZM1191.33 142.472C1192.54 134.93 1192.76 127.161 1191.1 119.704L1152.06 128.381C1152.29 129.447 1152.52 131.858 1151.83 136.153L1191.33 142.472ZM1191.16 119.955C1189.62 112.563 1186.19 105.008 1179.63 99.1662L1153.02 129.033C1152.41 128.491 1152.07 127.964 1151.91 127.671C1151.77 127.415 1151.87 127.499 1152 128.13L1191.16 119.955ZM1179.63 99.1662C1172.59 92.8974 1164.06 90.6193 1156.03 90.6193V130.619C1156.35 130.619 1156.07 130.664 1155.39 130.437C1154.67 130.19 1153.8 129.731 1153.02 129.033L1179.63 99.1662ZM1156.03 90.6193C1147.81 90.6193 1139.91 92.9591 1133.01 97.8183L1156.04 130.523C1156.05 130.516 1156.04 130.518 1156.03 130.524C1156.02 130.53 1156.01 130.54 1155.98 130.552C1155.96 130.564 1155.93 130.577 1155.9 130.588C1155.87 130.6 1155.84 130.61 1155.82 130.618C1155.79 130.625 1155.77 130.63 1155.76 130.633C1155.75 130.635 1155.75 130.635 1155.76 130.633C1155.78 130.63 1155.87 130.619 1156.03 130.619V90.6193ZM1132.9 97.8958C1126.6 102.395 1121.89 108.325 1118.45 114.854L1153.83 133.516C1154.93 131.427 1155.82 130.68 1156.15 130.445L1132.9 97.8958ZM1118.41 114.927C1114.97 121.512 1112.85 128.741 1111.69 136.259L1151.22 142.366C1151.86 138.237 1152.86 135.38 1153.87 133.443L1118.41 114.927ZM1111.71 136.103C1110.52 143.409 1110.21 150.906 1111.6 158.092L1150.88 150.505C1150.66 149.357 1150.49 146.863 1151.19 142.522L1111.71 136.103ZM1111.65 158.306C1113.15 165.662 1116.59 173.198 1123.22 178.972L1149.48 148.8C1150.17 149.395 1150.59 150.004 1150.8 150.409C1151 150.774 1150.94 150.807 1150.83 150.29L1111.65 158.306ZM1123.36 179.091C1130.41 185.112 1138.83 187.224 1146.65 187.224V147.224C1146.25 147.224 1146.45 147.171 1147.05 147.364C1147.7 147.576 1148.54 147.993 1149.35 148.682L1123.36 179.091ZM1241.02 189.312L1230.64 206.405L1230.7 206.443L1230.77 206.481L1241.02 189.312ZM1225.26 169.923L1206.44 176.69L1206.44 176.707L1206.45 176.724L1225.26 169.923ZM1223.62 139.881L1203.9 136.566L1203.9 136.58L1223.62 139.881ZM1235.2 110.335L1218.76 98.9462L1218.75 98.9558L1218.75 98.9654L1235.2 110.335ZM1257.36 90.5909L1266.68 108.287L1266.71 108.268L1266.75 108.248L1257.36 90.5909ZM1307.78 87.1108L1315.24 68.5514L1315.24 68.5513L1307.78 87.1108ZM1322.7 97.9062L1307.25 110.604L1307.28 110.642L1307.31 110.68L1322.7 97.9062ZM1330.73 115.378L1350.32 111.352L1350.32 111.352L1330.73 115.378ZM1330.58 139.17L1310.86 135.832L1310.84 135.962L1310.82 136.093L1330.58 139.17ZM1329.23 147.835V167.835H1346.36L1349 150.913L1329.23 147.835ZM1234.49 147.835L1214.74 144.705L1211.07 167.835H1234.49V147.835ZM1237.69 127.665V107.665H1220.6L1217.93 124.535L1237.69 127.665ZM1300.19 127.665V147.665H1317.34L1319.95 130.706L1300.19 127.665ZM1293.51 111.045L1282.77 127.919L1282.95 128.032L1283.13 128.141L1293.51 111.045ZM1273.13 111.259L1282.47 128.94L1282.52 128.916L1282.56 128.892L1273.13 111.259ZM1260.13 128.446L1240.48 124.715L1240.47 124.789L1240.45 124.862L1260.13 128.446ZM1256.36 149.114L1236.69 145.53L1236.66 145.694L1236.63 145.859L1256.36 149.114ZM1257 160.903L1238.2 167.716L1238.2 167.716L1257 160.903ZM1263.11 168.432L1252.74 185.532L1252.84 185.595L1252.95 185.656L1263.11 168.432ZM1282.78 169.781L1288.59 188.919L1288.75 188.872L1288.9 188.822L1282.78 169.781ZM1289.89 166.017L1302.34 181.669L1302.36 181.652L1302.38 181.634L1289.89 166.017ZM1295.07 159.838L1295.65 139.847L1283.43 139.49L1277.54 150.213L1295.07 159.838ZM1326.75 160.761L1345.58 167.496L1354.85 141.572L1327.33 140.77L1326.75 160.761ZM1314.89 179.44L1328.9 193.708L1328.93 193.677L1328.97 193.645L1314.89 179.44ZM1295.28 191.727L1302.33 210.444L1302.36 210.433L1302.4 210.421L1295.28 191.727ZM1269.43 176.06C1260.57 176.06 1254.91 174.31 1251.28 172.144L1230.77 206.481C1242.2 213.311 1255.47 216.06 1269.43 216.06V176.06ZM1251.41 172.22C1247.9 170.09 1245.57 167.297 1244.06 163.123L1206.45 176.724C1211 189.311 1219.18 199.444 1230.64 206.405L1251.41 172.22ZM1244.08 163.156C1242.51 158.806 1241.8 152.43 1243.35 143.182L1203.9 136.58C1201.56 150.532 1201.94 164.184 1206.44 176.69L1244.08 163.156ZM1243.35 143.196C1244.81 134.483 1247.68 127.455 1251.65 121.705L1218.75 98.9654C1211.07 110.072 1206.22 122.741 1203.9 136.566L1243.35 143.196ZM1251.64 121.724C1255.73 115.825 1260.7 111.437 1266.68 108.287L1248.04 72.8946C1236.22 79.1193 1226.42 87.8945 1218.76 98.9462L1251.64 121.724ZM1266.75 108.248C1272.52 105.18 1279.17 103.489 1287.12 103.489V63.4886C1273.19 63.4886 1260 66.5322 1247.97 72.9334L1266.75 108.248ZM1287.12 103.489C1292.82 103.489 1297.11 104.376 1300.33 105.67L1315.24 68.5513C1306.44 65.0165 1296.94 63.4886 1287.12 63.4886V103.489ZM1300.33 105.67C1303.38 106.894 1305.55 108.54 1307.25 110.604L1338.15 85.2082C1331.99 77.7085 1324.22 72.1566 1315.24 68.5514L1300.33 105.67ZM1307.31 110.68C1308.85 112.538 1310.28 115.231 1311.13 119.403L1350.32 111.352C1348.33 101.699 1344.41 92.7441 1338.09 85.1329L1307.31 110.68ZM1311.13 119.403C1311.94 123.307 1312.08 128.658 1310.86 135.832L1350.3 142.509C1352.12 131.785 1352.35 121.275 1350.32 111.352L1311.13 119.403ZM1310.82 136.093L1309.47 144.758L1349 150.913L1350.34 142.248L1310.82 136.093ZM1329.23 127.835H1234.49V167.835H1329.23V127.835ZM1254.24 150.965L1257.44 130.795L1217.93 124.535L1214.74 144.705L1254.24 150.965ZM1237.69 147.665H1300.19V107.665H1237.69V147.665ZM1319.95 130.706C1320.96 124.134 1320.58 117.067 1317.77 110.208L1280.76 125.377C1280.56 124.889 1280.49 124.494 1280.47 124.289C1280.45 124.104 1280.48 124.192 1280.42 124.624L1319.95 130.706ZM1317.77 110.208C1314.97 103.389 1310.22 97.7944 1303.89 93.9497L1283.13 128.141C1282.72 127.895 1282.21 127.493 1281.72 126.916C1281.23 126.34 1280.92 125.782 1280.76 125.377L1317.77 110.208ZM1304.25 94.1722C1297.77 90.0528 1290.65 88.5597 1283.92 88.5597V128.56C1284.36 128.56 1284.4 128.609 1284.14 128.541C1283.85 128.467 1283.35 128.289 1282.77 127.919L1304.25 94.1722ZM1283.92 88.5597C1276.81 88.5597 1269.97 90.2628 1263.69 93.6252L1282.56 128.892C1283 128.656 1283.36 128.56 1283.92 128.56V88.5597ZM1263.78 93.5766C1257.94 96.6638 1252.93 100.881 1248.89 106.082L1280.46 130.64C1281.06 129.875 1281.68 129.357 1282.47 128.94L1263.78 93.5766ZM1248.89 106.082C1244.61 111.587 1241.78 117.884 1240.48 124.715L1279.78 132.177C1279.9 131.527 1280.1 131.1 1280.46 130.64L1248.89 106.082ZM1240.45 124.862L1236.69 145.53L1276.04 152.697L1279.8 132.03L1240.45 124.862ZM1236.63 145.859C1235.5 152.726 1235.52 160.318 1238.2 167.716L1275.81 154.09C1275.96 154.525 1275.94 154.686 1275.93 154.423C1275.91 154.143 1275.91 153.484 1276.1 152.369L1236.63 145.859ZM1238.2 167.716C1240.89 175.141 1245.83 181.341 1252.74 185.532L1273.48 151.332C1273.91 151.593 1274.45 152.025 1274.95 152.635C1275.44 153.24 1275.7 153.784 1275.81 154.09L1238.2 167.716ZM1252.95 185.656C1259.82 189.713 1267.36 190.989 1274.26 190.989V150.989C1273.22 150.989 1272.68 150.888 1272.54 150.855C1272.41 150.827 1272.73 150.883 1273.28 151.208L1252.95 185.656ZM1274.26 190.989C1279.08 190.989 1283.89 190.346 1288.59 188.919L1276.98 150.644C1276.37 150.826 1275.51 150.989 1274.26 150.989V190.989ZM1288.9 188.822C1293.75 187.266 1298.28 184.897 1302.34 181.669L1277.44 150.365C1277.33 150.451 1277.13 150.592 1276.66 150.741L1288.9 188.822ZM1302.38 181.634C1306.59 178.268 1310.02 174.165 1312.6 169.463L1277.54 150.213C1277.49 150.302 1277.46 150.335 1277.46 150.338C1277.46 150.343 1277.45 150.348 1277.44 150.355C1277.44 150.363 1277.42 150.378 1277.39 150.4L1302.38 181.634ZM1294.49 179.83L1326.17 180.753L1327.33 140.77L1295.65 139.847L1294.49 179.83ZM1307.92 154.027C1306.36 158.386 1304.02 162.053 1300.81 165.235L1328.97 193.645C1336.46 186.221 1342.03 177.436 1345.58 167.496L1307.92 154.027ZM1300.87 165.173C1297.68 168.304 1293.57 170.981 1288.17 173.034L1302.4 210.421C1312.43 206.603 1321.39 201.088 1328.9 193.708L1300.87 165.173ZM1288.24 173.01C1283.16 174.921 1276.98 176.06 1269.43 176.06V216.06C1281.01 216.06 1292.07 214.31 1302.33 210.444L1288.24 173.01ZM1418.99 84.9091L1438.71 88.2504L1442.66 64.9091H1418.99V84.9091ZM1414.66 110.477V130.477H1431.55L1434.38 113.819L1414.66 110.477ZM1345.84 110.477L1326.12 107.136L1322.16 130.477H1345.84V110.477ZM1350.17 84.9091V64.9091H1333.27L1330.45 81.5678L1350.17 84.9091ZM1368.85 58.7727V38.7727H1351.88L1349.11 55.5086L1368.85 58.7727ZM1403.58 58.7727L1423.31 62.0494L1427.17 38.7727H1403.58V58.7727ZM1386.82 159.696L1367.09 156.419L1367.07 156.521L1367.05 156.622L1386.82 159.696ZM1386.96 164.881L1367.92 171.001L1368.05 171.417L1368.2 171.827L1386.96 164.881ZM1389.51 167.651L1381.13 185.81L1381.55 186.001L1381.97 186.172L1389.51 167.651ZM1402.01 167.366L1421.99 166.461L1420.96 143.714L1398.54 147.671L1402.01 167.366ZM1403.15 192.438L1408.58 211.686L1423.85 207.38L1423.13 191.532L1403.15 192.438ZM1395.69 194.213L1391.54 174.648L1391.37 174.685L1391.2 174.725L1395.69 194.213ZM1384.9 195.562L1385.69 215.547L1385.75 215.544L1385.82 215.541L1384.9 195.562ZM1364.23 192.651L1356.33 211.025L1356.43 211.067L1356.53 211.107L1364.23 192.651ZM1352.8 181.855L1334.53 190.011L1334.57 190.084L1334.6 190.158L1352.8 181.855ZM1351.52 163.531L1371.2 167.087L1371.22 166.941L1371.25 166.795L1351.52 163.531ZM1399.27 81.5678L1394.94 107.136L1434.38 113.819L1438.71 88.2504L1399.27 81.5678ZM1414.66 90.4773H1345.84V130.477H1414.66V90.4773ZM1365.55 113.819L1369.89 88.2504L1330.45 81.5678L1326.12 107.136L1365.55 113.819ZM1350.17 104.909H1418.99V64.9091H1350.17V104.909ZM1368.85 78.7727H1403.58V38.7727H1368.85V78.7727ZM1383.85 55.496L1367.09 156.419L1406.55 162.973L1423.31 62.0494L1383.85 55.496ZM1367.05 156.622C1366.48 160.304 1366.16 165.523 1367.92 171.001L1406 158.761C1406.48 160.274 1406.58 161.45 1406.59 162.042C1406.61 162.644 1406.55 162.917 1406.58 162.77L1367.05 156.622ZM1368.2 171.827C1370.5 178.038 1375.07 183.01 1381.13 185.81L1397.9 149.491C1399.48 150.221 1401.15 151.348 1402.65 152.966C1404.14 154.583 1405.12 156.333 1405.71 157.934L1368.2 171.827ZM1381.97 186.172C1386.3 187.938 1390.59 188.432 1394.2 188.432V148.432C1394.2 148.432 1394.47 148.431 1394.93 148.509C1395.4 148.587 1396.15 148.756 1397.06 149.129L1381.97 186.172ZM1394.2 188.432C1396.93 188.432 1399.57 188.133 1402.04 187.683L1394.89 148.328C1394.57 148.385 1394.36 148.412 1394.24 148.425C1394.11 148.437 1394.1 148.432 1394.2 148.432V188.432ZM1402.04 187.683C1403.59 187.401 1404.74 187.195 1405.49 187.062L1398.54 147.671C1397.68 147.822 1396.46 148.043 1394.89 148.328L1402.04 187.683ZM1382.03 168.272L1383.17 193.343L1423.13 191.532L1421.99 166.461L1382.03 168.272ZM1397.72 173.189C1396.48 173.538 1394.48 174.025 1391.54 174.648L1399.84 213.778C1403.16 213.075 1406.13 212.379 1408.58 211.686L1397.72 173.189ZM1391.2 174.725C1389.59 175.097 1387.24 175.434 1383.98 175.584L1385.82 215.541C1390.8 215.312 1395.64 214.75 1400.19 213.701L1391.2 174.725ZM1384.1 175.578C1377.56 175.839 1373.82 174.981 1371.93 174.194L1356.53 211.107C1365.53 214.866 1375.57 215.949 1385.69 215.547L1384.1 175.578ZM1372.13 174.276C1371.32 173.931 1371.06 173.677 1371.05 173.669C1371.04 173.657 1371.05 173.66 1371.05 173.67C1371.06 173.678 1371.03 173.648 1370.99 173.552L1334.6 190.158C1339.09 200.004 1346.85 206.947 1356.33 211.025L1372.13 174.276ZM1371.06 173.699C1371.05 173.686 1370.31 171.984 1371.2 167.087L1331.84 159.976C1330.07 169.757 1330.18 180.27 1334.53 190.011L1371.06 173.699ZM1371.25 166.795L1388.58 62.0368L1349.11 55.5086L1331.79 160.267L1371.25 166.795Z" fill="#1D1D1D" mask="url(#path-1-outside-1_1_2)"/>
<rect x="481" y="92" width="33" height="60" fill="#1D1D1D"/>
</svg>
