<svg width="1460" height="275" viewBox="0 0 1460 275" fill="none" xmlns="http://www.w3.org/2000/svg">
<rect x="481" y="92" width="33" height="60" fill="#F4CE14"/>
<mask id="path-2-outside-1_5_2" maskUnits="userSpaceOnUse" x="12" y="19" width="1439" height="246" fill="black">
<rect fill="white" x="12" y="19" width="1439" height="246"/>
<path d="M43.9176 194L68.0653 48.5455H128.719C139.609 48.5455 148.487 50.0843 155.352 53.1619C162.218 56.2396 167.047 60.5483 169.841 66.0881C172.682 71.6278 173.487 78.0436 172.256 85.3352C171.261 90.8277 169.225 95.7519 166.148 100.108C163.117 104.417 159.33 108.015 154.784 110.903C150.239 113.744 145.22 115.733 139.727 116.869L139.443 118.29C145.314 118.527 150.499 120.089 154.997 122.977C159.543 125.866 162.904 129.914 165.082 135.122C167.26 140.283 167.758 146.344 166.574 153.304C165.295 161.116 162.147 168.1 157.128 174.256C152.156 180.364 145.598 185.193 137.455 188.744C129.311 192.248 119.888 194 109.188 194H43.9176ZM83.9034 165.662H105.636C113.165 165.662 118.989 164.218 123.108 161.33C127.275 158.394 129.737 154.369 130.494 149.256C131.11 145.515 130.778 142.295 129.5 139.597C128.222 136.85 126.091 134.743 123.108 133.276C120.125 131.76 116.361 131.003 111.815 131.003H89.4432L83.9034 165.662ZM93.3494 108.347H112.881C116.669 108.347 120.149 107.707 123.321 106.429C126.541 105.151 129.192 103.304 131.276 100.889C133.406 98.4744 134.732 95.5625 135.253 92.1534C136.058 87.2765 134.945 83.4413 131.915 80.6477C128.884 77.8542 124.457 76.4574 118.634 76.4574H98.6051L93.3494 108.347ZM566.751 123.545C564.1 139.218 558.892 152.452 551.126 163.247C543.409 173.995 534.01 182.139 522.93 187.679C511.898 193.219 500.037 195.989 487.348 195.989C473.948 195.989 462.348 193.006 452.547 187.04C442.746 181.074 435.62 172.385 431.169 160.974C426.766 149.563 425.913 135.714 428.612 119.426C431.169 103.754 436.306 90.4962 444.024 79.6534C451.789 68.8106 461.235 60.5956 472.362 55.0085C483.536 49.374 495.516 46.5568 508.3 46.5568C521.605 46.5568 533.134 49.5634 542.888 55.5767C552.689 61.59 559.791 70.3258 564.195 81.7841C568.598 93.2424 569.45 107.163 566.751 123.545ZM531.595 119.426C533.063 110.288 533.063 102.594 531.595 96.3438C530.175 90.0938 527.381 85.3826 523.214 82.2102C519.048 78.9905 513.626 77.3807 506.95 77.3807C499.564 77.3807 492.888 79.2036 486.922 82.8494C481.003 86.4479 476.055 91.7036 472.078 98.6165C468.101 105.482 465.331 113.792 463.768 123.545C462.159 132.778 462.111 140.473 463.626 146.628C465.189 152.783 468.101 157.423 472.362 160.548C476.624 163.626 482.045 165.165 488.626 165.165C495.965 165.165 502.571 163.389 508.442 159.838C514.313 156.287 519.214 151.102 523.143 144.284C527.121 137.466 529.938 129.18 531.595 119.426ZM702.316 194L726.464 48.5455H787.117C798.007 48.5455 806.885 50.0843 813.751 53.1619C820.616 56.2396 825.446 60.5483 828.239 66.0881C831.08 71.6278 831.885 78.0436 830.654 85.3352C829.66 90.8277 827.624 95.7519 824.546 100.108C821.516 104.417 817.728 108.015 813.183 110.903C808.637 113.744 803.618 115.733 798.126 116.869L797.842 118.29C803.713 118.527 808.897 120.089 813.396 122.977C817.941 125.866 821.303 129.914 823.481 135.122C825.659 140.283 826.156 146.344 824.972 153.304C823.694 161.116 820.545 168.1 815.526 174.256C810.555 180.364 803.997 185.193 795.853 188.744C787.709 192.248 778.287 194 767.586 194H702.316ZM742.302 165.662H764.035C771.563 165.662 777.387 164.218 781.506 161.33C785.673 158.394 788.135 154.369 788.893 149.256C789.508 145.515 789.177 142.295 787.898 139.597C786.62 136.85 784.489 134.743 781.506 133.276C778.523 131.76 774.759 131.003 770.214 131.003H747.842L742.302 165.662ZM751.748 108.347H771.279C775.067 108.347 778.547 107.707 781.719 106.429C784.939 105.151 787.591 103.304 789.674 100.889C791.805 98.4744 793.13 95.5625 793.651 92.1534C794.456 87.2765 793.344 83.4413 790.313 80.6477C787.283 77.8542 782.856 76.4574 777.032 76.4574H757.004L751.748 108.347Z"/>
<path d="M227.44 196.06C216.029 196.06 206.56 193.811 199.031 189.312C191.55 184.767 186.295 178.304 183.264 169.923C180.234 161.495 179.689 151.481 181.631 139.881C183.525 128.612 187.384 118.763 193.207 110.335C199.079 101.86 206.465 95.2784 215.366 90.5909C224.268 85.8561 234.188 83.4886 245.125 83.4886C252.89 83.4886 259.779 84.696 265.793 87.1108C271.806 89.5256 276.777 93.1241 280.707 97.9062C284.637 102.641 287.313 108.465 288.733 115.378C290.153 122.291 290.106 130.222 288.591 139.17L287.241 147.835H192.497L195.693 127.665H258.193C258.761 123.972 258.454 120.681 257.27 117.793C256.086 114.904 254.169 112.655 251.517 111.045C248.913 109.388 245.717 108.56 241.929 108.56C238.094 108.56 234.495 109.459 231.134 111.259C227.819 113.01 225.002 115.378 222.682 118.361C220.362 121.344 218.847 124.705 218.136 128.446L214.372 149.114C213.615 153.706 213.828 157.636 215.011 160.903C216.195 164.17 218.231 166.68 221.119 168.432C224.008 170.136 227.724 170.989 232.27 170.989C235.3 170.989 238.141 170.586 240.793 169.781C243.444 168.929 245.812 167.674 247.895 166.017C250.026 164.312 251.754 162.253 253.08 159.838L284.756 160.761C282.199 167.911 278.245 174.137 272.895 179.44C267.545 184.696 261.01 188.792 253.293 191.727C245.622 194.616 237.005 196.06 227.44 196.06ZM347.948 196.06C336.537 196.06 327.067 193.811 319.539 189.312C312.058 184.767 306.802 178.304 303.772 169.923C300.742 161.495 300.197 151.481 302.138 139.881C304.032 128.612 307.891 118.763 313.715 110.335C319.586 101.86 326.973 95.2784 335.874 90.5909C344.776 85.8561 354.695 83.4886 365.633 83.4886C373.398 83.4886 380.287 84.696 386.3 87.1108C392.314 89.5256 397.285 93.1241 401.215 97.9062C405.145 102.641 407.82 108.465 409.241 115.378C410.661 122.291 410.614 130.222 409.099 139.17L407.749 147.835H313.005L316.201 127.665H378.701C379.269 123.972 378.961 120.681 377.778 117.793C376.594 114.904 374.676 112.655 372.025 111.045C369.421 109.388 366.225 108.56 362.437 108.56C358.602 108.56 355.003 109.459 351.641 111.259C348.327 113.01 345.51 115.378 343.19 118.361C340.87 121.344 339.354 124.705 338.644 128.446L334.88 149.114C334.122 153.706 334.335 157.636 335.519 160.903C336.703 164.17 338.739 166.68 341.627 168.432C344.515 170.136 348.232 170.989 352.778 170.989C355.808 170.989 358.649 170.586 361.3 169.781C363.952 168.929 366.319 167.674 368.403 166.017C370.533 164.312 372.262 162.253 373.587 159.838L405.263 160.761C402.707 167.911 398.753 174.137 393.403 179.44C388.052 184.696 381.518 188.792 373.8 191.727C366.13 194.616 357.513 196.06 347.948 196.06ZM620.871 131.784L610.501 194H575.771L593.953 84.9091H626.979L623.712 104.938H624.919C628.328 98.2614 633.276 93.0294 639.763 89.2415C646.25 85.4062 653.541 83.4886 661.638 83.4886C669.261 83.4886 675.629 85.1932 680.743 88.6023C685.857 92.0114 689.479 96.7936 691.609 102.949C693.74 109.057 694.095 116.23 692.675 124.469L681.027 194H646.297L656.737 131.287C657.779 125.274 657.045 120.562 654.536 117.153C652.073 113.697 648.049 111.969 642.462 111.969C638.816 111.969 635.478 112.774 632.447 114.384C629.464 115.946 626.955 118.195 624.919 121.131C622.93 124.066 621.581 127.617 620.871 131.784ZM913.325 146.912L923.694 84.9091H958.353L940.171 194H907.075L910.413 173.688H909.276C905.915 180.364 900.967 185.667 894.433 189.597C887.898 193.479 880.536 195.42 872.344 195.42C864.911 195.42 858.661 193.716 853.594 190.307C848.528 186.898 844.93 182.139 842.799 176.031C840.716 169.876 840.337 162.679 841.663 154.44L853.31 84.9091H888.04L877.6 147.622C876.701 153.541 877.482 158.205 879.944 161.614C882.453 165.023 886.383 166.727 891.734 166.727C895.19 166.727 898.433 165.97 901.464 164.455C904.494 162.892 907.051 160.643 909.134 157.707C911.265 154.724 912.662 151.126 913.325 146.912ZM1001.98 195.562C993.929 195.562 986.946 193.479 981.027 189.312C975.108 185.146 970.871 178.896 968.314 170.562C965.804 162.229 965.568 151.884 967.604 139.526C969.734 126.694 973.522 116.135 978.967 107.849C984.412 99.5634 990.757 93.4318 998.001 89.4545C1005.29 85.4773 1012.73 83.4886 1020.3 83.4886C1026.03 83.4886 1030.77 84.483 1034.51 86.4716C1038.29 88.4129 1041.25 90.9223 1043.38 94C1045.52 97.0777 1046.98 100.274 1047.79 103.588H1048.57L1057.73 48.5455H1092.46L1068.31 194H1033.94L1036.85 176.315H1035.79C1033.75 179.677 1031.15 182.826 1027.97 185.761C1024.8 188.697 1021.04 191.064 1016.68 192.864C1012.37 194.663 1007.47 195.562 1001.98 195.562ZM1018.38 168.503C1022.6 168.503 1026.41 167.319 1029.82 164.952C1033.23 162.537 1036.09 159.152 1038.41 154.795C1040.78 150.439 1042.44 145.326 1043.38 139.455C1044.38 133.489 1044.43 128.351 1043.53 124.043C1042.63 119.734 1040.85 116.42 1038.2 114.099C1035.6 111.779 1032.16 110.619 1027.9 110.619C1023.64 110.619 1019.83 111.803 1016.47 114.17C1013.11 116.538 1010.31 119.876 1008.09 124.185C1005.86 128.493 1004.25 133.583 1003.26 139.455C1002.31 145.326 1002.22 150.439 1002.97 154.795C1003.78 159.152 1005.46 162.537 1008.02 164.952C1010.62 167.319 1014.08 168.503 1018.38 168.503ZM1134.44 237.182C1124.02 237.182 1115.35 235.738 1108.44 232.849C1101.53 229.961 1096.37 226.008 1092.96 220.989C1089.55 215.97 1087.92 210.288 1088.06 203.943L1121.3 202.097C1121.58 204.369 1122.41 206.334 1123.78 207.991C1125.16 209.649 1127.12 210.903 1129.68 211.756C1132.23 212.655 1135.41 213.105 1139.19 213.105C1145.02 213.105 1150.08 211.685 1154.39 208.844C1158.7 206.003 1161.35 201.102 1162.35 194.142L1165.54 174.966H1164.34C1162.44 178.328 1159.89 181.334 1156.67 183.986C1153.45 186.637 1149.63 188.721 1145.23 190.236C1140.83 191.751 1135.95 192.509 1130.6 192.509C1122.6 192.509 1115.62 190.662 1109.65 186.969C1103.68 183.228 1099.37 177.452 1096.72 169.639C1094.07 161.779 1093.76 151.67 1095.8 139.312C1097.93 126.576 1101.72 116.088 1107.16 107.849C1112.61 99.5634 1118.95 93.4318 1126.2 89.4545C1133.49 85.4773 1140.95 83.4886 1148.57 83.4886C1154.3 83.4886 1159.03 84.483 1162.77 86.4716C1166.51 88.4129 1169.45 90.9223 1171.58 94C1173.71 97.0777 1175.23 100.274 1176.13 103.588H1177.12L1180.17 84.9091H1214.76L1196.58 194.426C1195.11 203.706 1191.54 211.519 1185.86 217.864C1180.17 224.208 1172.91 229.014 1164.05 232.281C1155.2 235.548 1145.33 237.182 1134.44 237.182ZM1146.65 167.224C1150.87 167.224 1154.68 166.112 1158.09 163.886C1161.5 161.661 1164.36 158.465 1166.68 154.298C1169 150.132 1170.63 145.136 1171.58 139.312C1172.53 133.394 1172.53 128.304 1171.58 124.043C1170.68 119.734 1168.93 116.42 1166.33 114.099C1163.72 111.779 1160.29 110.619 1156.03 110.619C1151.72 110.619 1147.88 111.803 1144.52 114.17C1141.21 116.538 1138.41 119.876 1136.14 124.185C1133.92 128.446 1132.35 133.489 1131.45 139.312C1130.51 145.136 1130.44 150.132 1131.24 154.298C1132.09 158.465 1133.8 161.661 1136.35 163.886C1138.96 166.112 1142.39 167.224 1146.65 167.224ZM1269.43 196.06C1258.02 196.06 1248.55 193.811 1241.02 189.312C1233.54 184.767 1228.29 178.304 1225.26 169.923C1222.23 161.495 1221.68 151.481 1223.62 139.881C1225.52 128.612 1229.38 118.763 1235.2 110.335C1241.07 101.86 1248.46 95.2784 1257.36 90.5909C1266.26 85.8561 1276.18 83.4886 1287.12 83.4886C1294.88 83.4886 1301.77 84.696 1307.78 87.1108C1313.8 89.5256 1318.77 93.1241 1322.7 97.9062C1326.63 102.641 1329.3 108.465 1330.73 115.378C1332.15 122.291 1332.1 130.222 1330.58 139.17L1329.23 147.835H1234.49L1237.69 127.665H1300.19C1300.75 123.972 1300.45 120.681 1299.26 117.793C1298.08 114.904 1296.16 112.655 1293.51 111.045C1290.91 109.388 1287.71 108.56 1283.92 108.56C1280.09 108.56 1276.49 109.459 1273.13 111.259C1269.81 113.01 1266.99 115.378 1264.67 118.361C1262.35 121.344 1260.84 124.705 1260.13 128.446L1256.36 149.114C1255.61 153.706 1255.82 157.636 1257 160.903C1258.19 164.17 1260.22 166.68 1263.11 168.432C1266 170.136 1269.72 170.989 1274.26 170.989C1277.29 170.989 1280.13 170.586 1282.78 169.781C1285.44 168.929 1287.8 167.674 1289.89 166.017C1292.02 164.312 1293.75 162.253 1295.07 159.838L1326.75 160.761C1324.19 167.911 1320.24 174.137 1314.89 179.44C1309.54 184.696 1303 188.792 1295.28 191.727C1287.61 194.616 1279 196.06 1269.43 196.06ZM1418.99 84.9091L1414.66 110.477H1345.84L1350.17 84.9091H1418.99ZM1368.85 58.7727H1403.58L1386.82 159.696C1386.48 161.827 1386.53 163.555 1386.96 164.881C1387.43 166.159 1388.28 167.082 1389.51 167.651C1390.79 168.171 1392.36 168.432 1394.2 168.432C1395.48 168.432 1396.9 168.29 1398.46 168.006C1400.03 167.722 1401.21 167.509 1402.01 167.366L1403.15 192.438C1401.3 192.958 1398.82 193.55 1395.69 194.213C1392.62 194.923 1389.02 195.373 1384.9 195.562C1376.56 195.894 1369.68 194.923 1364.23 192.651C1358.83 190.33 1355.02 186.732 1352.8 181.855C1350.62 176.978 1350.19 170.87 1351.52 163.531L1368.85 58.7727Z"/>
</mask>
<path d="M43.9176 194L68.0653 48.5455H128.719C139.609 48.5455 148.487 50.0843 155.352 53.1619C162.218 56.2396 167.047 60.5483 169.841 66.0881C172.682 71.6278 173.487 78.0436 172.256 85.3352C171.261 90.8277 169.225 95.7519 166.148 100.108C163.117 104.417 159.33 108.015 154.784 110.903C150.239 113.744 145.22 115.733 139.727 116.869L139.443 118.29C145.314 118.527 150.499 120.089 154.997 122.977C159.543 125.866 162.904 129.914 165.082 135.122C167.26 140.283 167.758 146.344 166.574 153.304C165.295 161.116 162.147 168.1 157.128 174.256C152.156 180.364 145.598 185.193 137.455 188.744C129.311 192.248 119.888 194 109.188 194H43.9176ZM83.9034 165.662H105.636C113.165 165.662 118.989 164.218 123.108 161.33C127.275 158.394 129.737 154.369 130.494 149.256C131.11 145.515 130.778 142.295 129.5 139.597C128.222 136.85 126.091 134.743 123.108 133.276C120.125 131.76 116.361 131.003 111.815 131.003H89.4432L83.9034 165.662ZM93.3494 108.347H112.881C116.669 108.347 120.149 107.707 123.321 106.429C126.541 105.151 129.192 103.304 131.276 100.889C133.406 98.4744 134.732 95.5625 135.253 92.1534C136.058 87.2765 134.945 83.4413 131.915 80.6477C128.884 77.8542 124.457 76.4574 118.634 76.4574H98.6051L93.3494 108.347ZM566.751 123.545C564.1 139.218 558.892 152.452 551.126 163.247C543.409 173.995 534.01 182.139 522.93 187.679C511.898 193.219 500.037 195.989 487.348 195.989C473.948 195.989 462.348 193.006 452.547 187.04C442.746 181.074 435.62 172.385 431.169 160.974C426.766 149.563 425.913 135.714 428.612 119.426C431.169 103.754 436.306 90.4962 444.024 79.6534C451.789 68.8106 461.235 60.5956 472.362 55.0085C483.536 49.374 495.516 46.5568 508.3 46.5568C521.605 46.5568 533.134 49.5634 542.888 55.5767C552.689 61.59 559.791 70.3258 564.195 81.7841C568.598 93.2424 569.45 107.163 566.751 123.545ZM531.595 119.426C533.063 110.288 533.063 102.594 531.595 96.3438C530.175 90.0938 527.381 85.3826 523.214 82.2102C519.048 78.9905 513.626 77.3807 506.95 77.3807C499.564 77.3807 492.888 79.2036 486.922 82.8494C481.003 86.4479 476.055 91.7036 472.078 98.6165C468.101 105.482 465.331 113.792 463.768 123.545C462.159 132.778 462.111 140.473 463.626 146.628C465.189 152.783 468.101 157.423 472.362 160.548C476.624 163.626 482.045 165.165 488.626 165.165C495.965 165.165 502.571 163.389 508.442 159.838C514.313 156.287 519.214 151.102 523.143 144.284C527.121 137.466 529.938 129.18 531.595 119.426ZM702.316 194L726.464 48.5455H787.117C798.007 48.5455 806.885 50.0843 813.751 53.1619C820.616 56.2396 825.446 60.5483 828.239 66.0881C831.08 71.6278 831.885 78.0436 830.654 85.3352C829.66 90.8277 827.624 95.7519 824.546 100.108C821.516 104.417 817.728 108.015 813.183 110.903C808.637 113.744 803.618 115.733 798.126 116.869L797.842 118.29C803.713 118.527 808.897 120.089 813.396 122.977C817.941 125.866 821.303 129.914 823.481 135.122C825.659 140.283 826.156 146.344 824.972 153.304C823.694 161.116 820.545 168.1 815.526 174.256C810.555 180.364 803.997 185.193 795.853 188.744C787.709 192.248 778.287 194 767.586 194H702.316ZM742.302 165.662H764.035C771.563 165.662 777.387 164.218 781.506 161.33C785.673 158.394 788.135 154.369 788.893 149.256C789.508 145.515 789.177 142.295 787.898 139.597C786.62 136.85 784.489 134.743 781.506 133.276C778.523 131.76 774.759 131.003 770.214 131.003H747.842L742.302 165.662ZM751.748 108.347H771.279C775.067 108.347 778.547 107.707 781.719 106.429C784.939 105.151 787.591 103.304 789.674 100.889C791.805 98.4744 793.13 95.5625 793.651 92.1534C794.456 87.2765 793.344 83.4413 790.313 80.6477C787.283 77.8542 782.856 76.4574 777.032 76.4574H757.004L751.748 108.347Z" fill="#F4CE14"/>
<path d="M227.44 196.06C216.029 196.06 206.56 193.811 199.031 189.312C191.55 184.767 186.295 178.304 183.264 169.923C180.234 161.495 179.689 151.481 181.631 139.881C183.525 128.612 187.384 118.763 193.207 110.335C199.079 101.86 206.465 95.2784 215.366 90.5909C224.268 85.8561 234.188 83.4886 245.125 83.4886C252.89 83.4886 259.779 84.696 265.793 87.1108C271.806 89.5256 276.777 93.1241 280.707 97.9062C284.637 102.641 287.313 108.465 288.733 115.378C290.153 122.291 290.106 130.222 288.591 139.17L287.241 147.835H192.497L195.693 127.665H258.193C258.761 123.972 258.454 120.681 257.27 117.793C256.086 114.904 254.169 112.655 251.517 111.045C248.913 109.388 245.717 108.56 241.929 108.56C238.094 108.56 234.495 109.459 231.134 111.259C227.819 113.01 225.002 115.378 222.682 118.361C220.362 121.344 218.847 124.705 218.136 128.446L214.372 149.114C213.615 153.706 213.828 157.636 215.011 160.903C216.195 164.17 218.231 166.68 221.119 168.432C224.008 170.136 227.724 170.989 232.27 170.989C235.3 170.989 238.141 170.586 240.793 169.781C243.444 168.929 245.812 167.674 247.895 166.017C250.026 164.312 251.754 162.253 253.08 159.838L284.756 160.761C282.199 167.911 278.245 174.137 272.895 179.44C267.545 184.696 261.01 188.792 253.293 191.727C245.622 194.616 237.005 196.06 227.44 196.06ZM347.948 196.06C336.537 196.06 327.067 193.811 319.539 189.312C312.058 184.767 306.802 178.304 303.772 169.923C300.742 161.495 300.197 151.481 302.138 139.881C304.032 128.612 307.891 118.763 313.715 110.335C319.586 101.86 326.973 95.2784 335.874 90.5909C344.776 85.8561 354.695 83.4886 365.633 83.4886C373.398 83.4886 380.287 84.696 386.3 87.1108C392.314 89.5256 397.285 93.1241 401.215 97.9062C405.145 102.641 407.82 108.465 409.241 115.378C410.661 122.291 410.614 130.222 409.099 139.17L407.749 147.835H313.005L316.201 127.665H378.701C379.269 123.972 378.961 120.681 377.778 117.793C376.594 114.904 374.676 112.655 372.025 111.045C369.421 109.388 366.225 108.56 362.437 108.56C358.602 108.56 355.003 109.459 351.641 111.259C348.327 113.01 345.51 115.378 343.19 118.361C340.87 121.344 339.354 124.705 338.644 128.446L334.88 149.114C334.122 153.706 334.335 157.636 335.519 160.903C336.703 164.17 338.739 166.68 341.627 168.432C344.515 170.136 348.232 170.989 352.778 170.989C355.808 170.989 358.649 170.586 361.3 169.781C363.952 168.929 366.319 167.674 368.403 166.017C370.533 164.312 372.262 162.253 373.587 159.838L405.263 160.761C402.707 167.911 398.753 174.137 393.403 179.44C388.052 184.696 381.518 188.792 373.8 191.727C366.13 194.616 357.513 196.06 347.948 196.06ZM620.871 131.784L610.501 194H575.771L593.953 84.9091H626.979L623.712 104.938H624.919C628.328 98.2614 633.276 93.0294 639.763 89.2415C646.25 85.4062 653.541 83.4886 661.638 83.4886C669.261 83.4886 675.629 85.1932 680.743 88.6023C685.857 92.0114 689.479 96.7936 691.609 102.949C693.74 109.057 694.095 116.23 692.675 124.469L681.027 194H646.297L656.737 131.287C657.779 125.274 657.045 120.562 654.536 117.153C652.073 113.697 648.049 111.969 642.462 111.969C638.816 111.969 635.478 112.774 632.447 114.384C629.464 115.946 626.955 118.195 624.919 121.131C622.93 124.066 621.581 127.617 620.871 131.784ZM913.325 146.912L923.694 84.9091H958.353L940.171 194H907.075L910.413 173.688H909.276C905.915 180.364 900.967 185.667 894.433 189.597C887.898 193.479 880.536 195.42 872.344 195.42C864.911 195.42 858.661 193.716 853.594 190.307C848.528 186.898 844.93 182.139 842.799 176.031C840.716 169.876 840.337 162.679 841.663 154.44L853.31 84.9091H888.04L877.6 147.622C876.701 153.541 877.482 158.205 879.944 161.614C882.453 165.023 886.383 166.727 891.734 166.727C895.19 166.727 898.433 165.97 901.464 164.455C904.494 162.892 907.051 160.643 909.134 157.707C911.265 154.724 912.662 151.126 913.325 146.912ZM1001.98 195.562C993.929 195.562 986.946 193.479 981.027 189.312C975.108 185.146 970.871 178.896 968.314 170.562C965.804 162.229 965.568 151.884 967.604 139.526C969.734 126.694 973.522 116.135 978.967 107.849C984.412 99.5634 990.757 93.4318 998.001 89.4545C1005.29 85.4773 1012.73 83.4886 1020.3 83.4886C1026.03 83.4886 1030.77 84.483 1034.51 86.4716C1038.29 88.4129 1041.25 90.9223 1043.38 94C1045.52 97.0777 1046.98 100.274 1047.79 103.588H1048.57L1057.73 48.5455H1092.46L1068.31 194H1033.94L1036.85 176.315H1035.79C1033.75 179.677 1031.15 182.826 1027.97 185.761C1024.8 188.697 1021.04 191.064 1016.68 192.864C1012.37 194.663 1007.47 195.562 1001.98 195.562ZM1018.38 168.503C1022.6 168.503 1026.41 167.319 1029.82 164.952C1033.23 162.537 1036.09 159.152 1038.41 154.795C1040.78 150.439 1042.44 145.326 1043.38 139.455C1044.38 133.489 1044.43 128.351 1043.53 124.043C1042.63 119.734 1040.85 116.42 1038.2 114.099C1035.6 111.779 1032.16 110.619 1027.9 110.619C1023.64 110.619 1019.83 111.803 1016.47 114.17C1013.11 116.538 1010.31 119.876 1008.09 124.185C1005.86 128.493 1004.25 133.583 1003.26 139.455C1002.31 145.326 1002.22 150.439 1002.97 154.795C1003.78 159.152 1005.46 162.537 1008.02 164.952C1010.62 167.319 1014.08 168.503 1018.38 168.503ZM1134.44 237.182C1124.02 237.182 1115.35 235.738 1108.44 232.849C1101.53 229.961 1096.37 226.008 1092.96 220.989C1089.55 215.97 1087.92 210.288 1088.06 203.943L1121.3 202.097C1121.58 204.369 1122.41 206.334 1123.78 207.991C1125.16 209.649 1127.12 210.903 1129.68 211.756C1132.23 212.655 1135.41 213.105 1139.19 213.105C1145.02 213.105 1150.08 211.685 1154.39 208.844C1158.7 206.003 1161.35 201.102 1162.35 194.142L1165.54 174.966H1164.34C1162.44 178.328 1159.89 181.334 1156.67 183.986C1153.45 186.637 1149.63 188.721 1145.23 190.236C1140.83 191.751 1135.95 192.509 1130.6 192.509C1122.6 192.509 1115.62 190.662 1109.65 186.969C1103.68 183.228 1099.37 177.452 1096.72 169.639C1094.07 161.779 1093.76 151.67 1095.8 139.312C1097.93 126.576 1101.72 116.088 1107.16 107.849C1112.61 99.5634 1118.95 93.4318 1126.2 89.4545C1133.49 85.4773 1140.95 83.4886 1148.57 83.4886C1154.3 83.4886 1159.03 84.483 1162.77 86.4716C1166.51 88.4129 1169.45 90.9223 1171.58 94C1173.71 97.0777 1175.23 100.274 1176.13 103.588H1177.12L1180.17 84.9091H1214.76L1196.58 194.426C1195.11 203.706 1191.54 211.519 1185.86 217.864C1180.17 224.208 1172.91 229.014 1164.05 232.281C1155.2 235.548 1145.33 237.182 1134.44 237.182ZM1146.65 167.224C1150.87 167.224 1154.68 166.112 1158.09 163.886C1161.5 161.661 1164.36 158.465 1166.68 154.298C1169 150.132 1170.63 145.136 1171.58 139.312C1172.53 133.394 1172.53 128.304 1171.58 124.043C1170.68 119.734 1168.93 116.42 1166.33 114.099C1163.72 111.779 1160.29 110.619 1156.03 110.619C1151.72 110.619 1147.88 111.803 1144.52 114.17C1141.21 116.538 1138.41 119.876 1136.14 124.185C1133.92 128.446 1132.35 133.489 1131.45 139.312C1130.51 145.136 1130.44 150.132 1131.24 154.298C1132.09 158.465 1133.8 161.661 1136.35 163.886C1138.96 166.112 1142.39 167.224 1146.65 167.224ZM1269.43 196.06C1258.02 196.06 1248.55 193.811 1241.02 189.312C1233.54 184.767 1228.29 178.304 1225.26 169.923C1222.23 161.495 1221.68 151.481 1223.62 139.881C1225.52 128.612 1229.38 118.763 1235.2 110.335C1241.07 101.86 1248.46 95.2784 1257.36 90.5909C1266.26 85.8561 1276.18 83.4886 1287.12 83.4886C1294.88 83.4886 1301.77 84.696 1307.78 87.1108C1313.8 89.5256 1318.77 93.1241 1322.7 97.9062C1326.63 102.641 1329.3 108.465 1330.73 115.378C1332.15 122.291 1332.1 130.222 1330.58 139.17L1329.23 147.835H1234.49L1237.69 127.665H1300.19C1300.75 123.972 1300.45 120.681 1299.26 117.793C1298.08 114.904 1296.16 112.655 1293.51 111.045C1290.91 109.388 1287.71 108.56 1283.92 108.56C1280.09 108.56 1276.49 109.459 1273.13 111.259C1269.81 113.01 1266.99 115.378 1264.67 118.361C1262.35 121.344 1260.84 124.705 1260.13 128.446L1256.36 149.114C1255.61 153.706 1255.82 157.636 1257 160.903C1258.19 164.17 1260.22 166.68 1263.11 168.432C1266 170.136 1269.72 170.989 1274.26 170.989C1277.29 170.989 1280.13 170.586 1282.78 169.781C1285.44 168.929 1287.8 167.674 1289.89 166.017C1292.02 164.312 1293.75 162.253 1295.07 159.838L1326.75 160.761C1324.19 167.911 1320.24 174.137 1314.89 179.44C1309.54 184.696 1303 188.792 1295.28 191.727C1287.61 194.616 1279 196.06 1269.43 196.06ZM1418.99 84.9091L1414.66 110.477H1345.84L1350.17 84.9091H1418.99ZM1368.85 58.7727H1403.58L1386.82 159.696C1386.48 161.827 1386.53 163.555 1386.96 164.881C1387.43 166.159 1388.28 167.082 1389.51 167.651C1390.79 168.171 1392.36 168.432 1394.2 168.432C1395.48 168.432 1396.9 168.29 1398.46 168.006C1400.03 167.722 1401.21 167.509 1402.01 167.366L1403.15 192.438C1401.3 192.958 1398.82 193.55 1395.69 194.213C1392.62 194.923 1389.02 195.373 1384.9 195.562C1376.56 195.894 1369.68 194.923 1364.23 192.651C1358.83 190.33 1355.02 186.732 1352.8 181.855C1350.62 176.978 1350.19 170.87 1351.52 163.531L1368.85 58.7727Z" fill="#F5F7F8"/>
<path d="M43.9176 194L17.2822 189.578L12.0656 221H43.9176V194ZM68.0653 48.5455V21.5455H45.1782L41.4299 44.1236L68.0653 48.5455ZM169.841 66.0881L145.733 78.2452L145.774 78.327L145.816 78.4086L169.841 66.0881ZM172.256 85.3352L198.824 90.145L198.852 89.9877L198.879 89.83L172.256 85.3352ZM166.148 100.108L144.096 84.5281L144.079 84.5518L144.063 84.5757L166.148 100.108ZM154.784 110.903L169.094 133.799L169.179 133.746L169.264 133.692L154.784 110.903ZM139.727 116.869L134.257 90.4293L116.756 94.0501L113.252 111.574L139.727 116.869ZM139.443 118.29L112.968 112.995L106.768 143.994L138.355 145.268L139.443 118.29ZM154.997 122.977L140.409 145.697L140.463 145.732L140.517 145.766L154.997 122.977ZM165.082 135.122L140.173 145.539L140.19 145.58L140.207 145.62L165.082 135.122ZM166.574 153.304L139.956 148.777L139.942 148.86L139.928 148.944L166.574 153.304ZM157.128 174.256L136.202 157.193L136.195 157.202L136.188 157.211L157.128 174.256ZM137.455 188.744L148.125 213.546L148.186 213.52L148.246 213.494L137.455 188.744ZM83.9034 165.662L57.2418 161.4L52.2451 192.662H83.9034V165.662ZM123.108 161.33L138.608 183.437L138.634 183.419L138.659 183.402L123.108 161.33ZM130.494 149.256L103.853 144.872L103.818 145.085L103.786 145.299L130.494 149.256ZM129.5 139.597L105.022 150.991L105.06 151.073L105.099 151.155L129.5 139.597ZM123.108 133.276L110.881 157.348L111.033 157.426L111.187 157.502L123.108 133.276ZM89.4432 131.003V104.003H66.416L62.7816 126.741L89.4432 131.003ZM93.3494 108.347L66.7088 103.956L61.5353 135.347H93.3494V108.347ZM123.321 106.429L113.357 81.3347L113.293 81.3602L113.229 81.386L123.321 106.429ZM131.276 100.889L111.03 83.0254L110.931 83.1381L110.832 83.2519L131.276 100.889ZM135.253 92.1534L108.613 87.7566L108.587 87.916L108.563 88.0757L135.253 92.1534ZM98.6051 76.4574V49.4574H75.6908L71.9645 72.0667L98.6051 76.4574ZM70.5531 198.422L94.7008 52.9673L41.4299 44.1236L17.2822 189.578L70.5531 198.422ZM68.0653 75.5455H128.719V21.5455H68.0653V75.5455ZM128.719 75.5455C137.372 75.5455 142.109 76.8139 144.308 77.7997L166.397 28.5242C154.865 23.3547 141.846 21.5455 128.719 21.5455V75.5455ZM144.308 77.7997C145.615 78.3856 146.104 78.8093 146.149 78.849C146.171 78.8684 146.111 78.8177 146.013 78.6907C145.913 78.5617 145.814 78.4072 145.733 78.2452L193.949 53.931C187.805 41.7468 177.675 33.5799 166.397 28.5242L144.308 77.7997ZM145.816 78.4086C145.744 78.2686 145.76 78.2106 145.785 78.4158C145.817 78.667 145.871 79.4256 145.632 80.8404L198.879 89.83C200.891 77.9109 199.834 65.4061 193.866 53.7675L145.816 78.4086ZM145.688 80.5255C145.362 82.3261 144.795 83.5395 144.096 84.5281L188.199 115.688C193.656 107.964 197.161 99.3292 198.824 90.145L145.688 80.5255ZM144.063 84.5757C143.114 85.9252 141.932 87.0803 140.304 88.1148L169.264 133.692C176.727 128.95 183.121 122.908 188.233 115.64L144.063 84.5757ZM140.474 88.0074C138.766 89.0748 136.763 89.9108 134.257 90.4293L145.198 143.309C153.676 141.555 161.711 138.414 169.094 133.799L140.474 88.0074ZM113.252 111.574L112.968 112.995L165.919 123.585L166.203 122.164L113.252 111.574ZM138.355 145.268C139.918 145.331 140.346 145.656 140.409 145.697L169.586 100.258C160.653 94.5218 150.711 91.7222 140.531 91.3117L138.355 145.268ZM140.517 145.766C140.511 145.762 140.458 145.727 140.379 145.658C140.299 145.588 140.222 145.508 140.156 145.429C140.124 145.391 140.1 145.359 140.083 145.334C140.066 145.31 140.058 145.297 140.059 145.299C140.059 145.299 140.103 145.371 140.173 145.539L189.992 124.705C185.793 114.665 178.915 106.186 169.477 100.189L140.517 145.766ZM140.207 145.62C139.923 144.947 140.501 145.576 139.956 148.777L193.192 157.831C195.015 147.112 194.598 135.619 189.958 124.624L140.207 145.62ZM139.928 148.944C139.415 152.079 138.247 154.686 136.202 157.193L178.053 191.318C186.047 181.514 191.176 170.154 193.219 157.664L139.928 148.944ZM136.188 157.211C134.267 159.571 131.369 161.943 126.663 163.995L148.246 213.494C159.828 208.444 170.045 201.156 178.068 191.3L136.188 157.211ZM126.784 163.942C122.632 165.729 116.962 167 109.188 167V221C122.814 221 135.989 218.768 148.125 213.546L126.784 163.942ZM109.188 167H43.9176V221H109.188V167ZM83.9034 192.662H105.636V138.662H83.9034V192.662ZM105.636 192.662C116.112 192.662 128.204 190.732 138.608 183.437L107.607 139.222C108.74 138.428 109.444 138.3 109.152 138.373C108.824 138.454 107.739 138.662 105.636 138.662V192.662ZM138.659 183.402C148.964 176.141 155.38 165.519 157.203 153.212L103.786 145.299C103.888 144.611 104.21 143.388 105.048 142.019C105.89 140.643 106.873 139.74 107.557 139.258L138.659 183.402ZM157.136 153.64C158.403 145.942 158.093 136.888 153.901 128.038L105.099 151.155C103.464 147.703 103.817 145.089 103.853 144.872L157.136 153.64ZM153.978 128.202C149.842 119.318 142.964 112.954 135.029 109.05L111.187 157.502C110.352 157.09 109.175 156.358 107.958 155.155C106.719 153.929 105.721 152.493 105.022 150.991L153.978 128.202ZM135.335 109.203C127.454 105.2 119.161 104.003 111.815 104.003V158.003C112.615 158.003 112.877 158.072 112.72 158.04C112.55 158.006 111.864 157.847 110.881 157.348L135.335 109.203ZM111.815 104.003H89.4432V158.003H111.815V104.003ZM62.7816 126.741L57.2418 161.4L110.565 169.923L116.105 135.264L62.7816 126.741ZM93.3494 135.347H112.881V81.3466H93.3494V135.347ZM112.881 135.347C119.755 135.347 126.705 134.175 133.413 131.472L113.229 81.386C113.383 81.324 113.471 81.3083 113.454 81.3114C113.431 81.3156 113.253 81.3466 112.881 81.3466V135.347ZM133.285 131.523C140.191 128.781 146.554 124.513 151.719 118.526L110.832 83.2519C111.285 82.7267 111.791 82.2792 112.294 81.9289C112.789 81.5841 113.176 81.4067 113.357 81.3347L133.285 131.523ZM151.521 118.753C157.323 112.178 160.698 104.379 161.943 96.2311L108.563 88.0757C108.648 87.5143 108.851 86.6805 109.295 85.7064C109.744 84.7196 110.343 83.8042 111.03 83.0254L151.521 118.753ZM161.892 96.5502C163.838 84.7623 161.333 71.0454 150.215 60.7961L113.614 100.499C111.631 98.6715 109.952 96.1098 109.091 93.1424C108.29 90.3809 108.512 88.3707 108.613 87.7566L161.892 96.5502ZM150.215 60.7961C140.465 51.8079 128.44 49.4574 118.634 49.4574V103.457C120.475 103.457 117.304 103.9 113.614 100.499L150.215 60.7961ZM118.634 49.4574H98.6051V103.457H118.634V49.4574ZM71.9645 72.0667L66.7088 103.956L119.99 112.737L125.246 80.848L71.9645 72.0667ZM199.031 189.312L185.011 212.387L185.097 212.439L185.183 212.49L199.031 189.312ZM183.264 169.923L157.857 179.059L157.865 179.081L157.873 179.104L183.264 169.923ZM181.631 139.881L155.004 135.406L155.003 135.415L155.001 135.424L181.631 139.881ZM193.207 110.335L171.013 94.9601L171.004 94.9731L170.995 94.986L193.207 110.335ZM215.366 90.5909L227.947 114.481L227.997 114.455L228.046 114.428L215.366 90.5909ZM265.793 87.1108L275.854 62.0556L275.854 62.0555L265.793 87.1108ZM280.707 97.9062L259.847 115.049L259.889 115.1L259.931 115.15L280.707 97.9062ZM288.733 115.378L315.18 109.943L315.18 109.943L288.733 115.378ZM288.591 139.17L261.97 134.663L261.94 134.839L261.913 135.016L288.591 139.17ZM287.241 147.835V174.835H310.362L313.92 151.99L287.241 147.835ZM192.497 147.835L165.83 143.61L160.882 174.835H192.497V147.835ZM195.693 127.665V100.665H172.635L169.026 123.439L195.693 127.665ZM258.193 127.665V154.665H281.357L284.879 131.77L258.193 127.665ZM251.517 111.045L237.021 133.824L237.261 133.977L237.505 134.125L251.517 111.045ZM231.134 111.259L243.751 135.129L243.813 135.096L243.874 135.063L231.134 111.259ZM218.136 128.446L191.61 123.409L191.591 123.509L191.573 123.608L218.136 128.446ZM214.372 149.114L187.809 144.276L187.769 144.497L187.732 144.719L214.372 149.114ZM215.011 160.903L189.626 170.101L189.626 170.101L215.011 160.903ZM221.119 168.432L207.117 191.517L207.256 191.602L207.396 191.684L221.119 168.432ZM240.793 169.781L248.636 195.617L248.846 195.553L249.055 195.486L240.793 169.781ZM247.895 166.017L264.703 187.147L264.732 187.124L264.762 187.101L247.895 166.017ZM253.08 159.838L253.866 132.85L237.359 132.368L229.412 146.844L253.08 159.838ZM284.756 160.761L310.179 169.853L322.695 134.856L285.542 133.773L284.756 160.761ZM272.895 179.44L291.816 198.702L291.859 198.66L291.902 198.617L272.895 179.44ZM253.293 191.727L262.807 216.995L262.849 216.979L262.892 216.963L253.293 191.727ZM227.44 169.06C219.47 169.06 215.14 167.485 212.88 166.135L185.183 212.49C197.979 220.136 212.589 223.06 227.44 223.06V169.06ZM213.051 166.238C210.937 164.953 209.632 163.444 208.655 160.742L157.873 179.104C162.957 193.164 172.164 204.581 185.011 212.387L213.051 166.238ZM208.672 160.788C207.621 157.865 206.851 152.762 208.26 144.337L155.001 135.424C152.528 150.2 152.847 165.126 157.857 179.059L208.672 160.788ZM208.257 144.356C209.571 136.537 212.095 130.497 215.42 125.684L170.995 94.986C162.672 107.03 157.478 120.686 155.004 135.406L208.257 144.356ZM215.402 125.71C218.864 120.713 222.986 117.093 227.947 114.481L202.786 66.7009C189.944 73.4637 179.293 83.0066 171.013 94.9601L215.402 125.71ZM228.046 114.428C232.718 111.943 238.225 110.489 245.125 110.489V56.4886C230.15 56.4886 215.818 59.7688 202.687 66.7533L228.046 114.428ZM245.125 110.489C250.111 110.489 253.483 111.263 255.731 112.166L275.854 62.0555C266.075 58.1287 255.669 56.4886 245.125 56.4886V110.489ZM255.731 112.166C257.742 112.974 258.932 113.935 259.847 115.049L301.567 80.7639C294.623 72.313 285.87 66.0775 275.854 62.0556L255.731 112.166ZM259.931 115.15C260.638 116.002 261.625 117.599 262.286 120.812L315.18 109.943C313 99.3313 308.636 89.2801 301.483 80.6622L259.931 115.15ZM262.286 120.812C262.871 123.662 263.079 128.111 261.97 134.663L315.212 143.678C317.133 132.332 317.436 120.919 315.18 109.943L262.286 120.812ZM261.913 135.016L260.563 143.68L313.92 151.99L315.269 143.325L261.913 135.016ZM287.241 120.835H192.497V174.835H287.241V120.835ZM219.164 152.061L222.36 131.89L169.026 123.439L165.83 143.61L219.164 152.061ZM195.693 154.665H258.193V100.665H195.693V154.665ZM284.879 131.77C286.045 124.19 285.634 115.802 282.253 107.554L232.287 128.032C231.274 125.56 231.477 123.753 231.507 123.559L284.879 131.77ZM282.253 107.554C278.894 99.3584 273.15 92.5931 265.529 87.9662L237.505 134.125C236.493 133.51 235.398 132.63 234.398 131.457C233.4 130.287 232.718 129.084 232.287 128.032L282.253 107.554ZM266.013 88.2666C258.185 83.2854 249.682 81.5597 241.929 81.5597V135.56C241.752 135.56 239.641 135.491 237.021 133.824L266.013 88.2666ZM241.929 81.5597C233.676 81.5597 225.698 83.544 218.393 87.4536L243.874 135.063C243.652 135.182 243.317 135.324 242.902 135.428C242.488 135.532 242.144 135.56 241.929 135.56V81.5597ZM218.516 87.388C211.791 90.9425 206.019 95.8065 201.369 101.784L243.994 134.937C244.01 134.917 244.009 134.92 243.991 134.939C243.972 134.959 243.943 134.987 243.905 135.019C243.867 135.05 243.83 135.078 243.798 135.1C243.765 135.121 243.748 135.131 243.751 135.129L218.516 87.388ZM201.369 101.784C196.401 108.173 193.113 115.496 191.61 123.409L244.662 133.483C244.634 133.632 244.564 133.895 244.421 134.214C244.277 134.533 244.116 134.781 243.994 134.937L201.369 101.784ZM191.573 123.608L187.809 144.276L240.935 153.952L244.699 133.284L191.573 123.608ZM187.732 144.719C186.468 152.383 186.422 161.256 189.626 170.101L240.397 151.706C240.816 152.864 240.906 153.711 240.924 154.044C240.941 154.354 240.896 154.21 241.012 153.508L187.732 144.719ZM189.626 170.101C192.843 178.98 198.8 186.472 207.117 191.517L235.122 145.347C236.209 146.006 237.368 146.961 238.393 148.225C239.412 149.48 240.039 150.72 240.397 151.706L189.626 170.101ZM207.396 191.684C215.665 196.564 224.549 197.989 232.27 197.989V143.989C231.653 143.989 231.652 143.928 232.108 144.032C232.59 144.143 233.594 144.443 234.842 145.179L207.396 191.684ZM232.27 197.989C237.711 197.989 243.215 197.262 248.636 195.617L232.95 143.945C232.997 143.931 232.982 143.94 232.886 143.954C232.788 143.968 232.588 143.989 232.27 143.989V197.989ZM249.055 195.486C254.662 193.684 259.954 190.925 264.703 187.147L231.087 144.887C231.355 144.674 231.637 144.491 231.913 144.345C232.187 144.199 232.403 144.117 232.53 144.076L249.055 195.486ZM264.762 187.101C269.697 183.152 273.726 178.334 276.747 172.832L229.412 146.844C229.578 146.542 229.807 146.195 230.106 145.839C230.405 145.483 230.722 145.178 231.028 144.934L264.762 187.101ZM252.293 186.827L283.969 187.75L285.542 133.773L253.866 132.85L252.293 186.827ZM259.332 151.67C258.123 155.052 256.35 157.824 253.888 160.264L291.902 198.617C300.141 190.451 306.275 180.77 310.179 169.853L259.332 151.67ZM253.974 160.179C251.543 162.567 248.279 164.747 243.694 166.491L262.892 216.963C273.742 212.836 283.546 206.825 291.816 198.702L253.974 160.179ZM243.778 166.459C239.611 168.028 234.288 169.06 227.44 169.06V223.06C239.722 223.06 251.634 221.203 262.807 216.995L243.778 166.459ZM319.539 189.312L305.519 212.387L305.605 212.439L305.691 212.49L319.539 189.312ZM303.772 169.923L278.364 179.059L278.373 179.081L278.381 179.104L303.772 169.923ZM302.138 139.881L275.512 135.406L275.51 135.415L275.509 135.424L302.138 139.881ZM313.715 110.335L291.52 94.9601L291.512 94.9731L291.503 94.986L313.715 110.335ZM335.874 90.5909L348.455 114.481L348.504 114.455L348.554 114.428L335.874 90.5909ZM386.3 87.1108L396.362 62.0556L396.362 62.0555L386.3 87.1108ZM401.215 97.9062L380.355 115.049L380.397 115.1L380.439 115.15L401.215 97.9062ZM409.241 115.378L435.688 109.943L435.688 109.943L409.241 115.378ZM409.099 139.17L382.478 134.663L382.448 134.839L382.42 135.016L409.099 139.17ZM407.749 147.835V174.835H430.87L434.428 151.99L407.749 147.835ZM313.005 147.835L286.338 143.61L281.39 174.835H313.005V147.835ZM316.201 127.665V100.665H293.142L289.534 123.439L316.201 127.665ZM378.701 127.665V154.665H401.865L405.387 131.77L378.701 127.665ZM372.025 111.045L357.529 133.824L357.769 133.977L358.012 134.125L372.025 111.045ZM351.641 111.259L364.259 135.129L364.32 135.096L364.382 135.063L351.641 111.259ZM338.644 128.446L312.118 123.409L312.099 123.509L312.081 123.608L338.644 128.446ZM334.88 149.114L308.317 144.276L308.277 144.497L308.24 144.719L334.88 149.114ZM335.519 160.903L310.134 170.101L310.134 170.101L335.519 160.903ZM341.627 168.432L327.625 191.517L327.764 191.602L327.904 191.684L341.627 168.432ZM361.3 169.781L369.143 195.617L369.354 195.553L369.563 195.486L361.3 169.781ZM368.403 166.017L385.211 187.147L385.24 187.124L385.269 187.101L368.403 166.017ZM373.587 159.838L374.374 132.85L357.867 132.368L349.92 146.844L373.587 159.838ZM405.263 160.761L430.687 169.853L443.202 134.856L406.05 133.773L405.263 160.761ZM393.403 179.44L412.323 198.702L412.367 198.66L412.41 198.617L393.403 179.44ZM373.8 191.727L383.315 216.995L383.357 216.979L383.399 216.963L373.8 191.727ZM347.948 169.06C339.978 169.06 335.648 167.485 333.388 166.135L305.691 212.49C318.487 220.136 333.097 223.06 347.948 223.06V169.06ZM333.559 166.238C331.445 164.953 330.14 163.444 329.163 160.742L278.381 179.104C283.465 193.164 292.671 204.581 305.519 212.387L333.559 166.238ZM329.18 160.788C328.129 157.865 327.358 152.762 328.768 144.337L275.509 135.424C273.036 150.2 273.355 165.126 278.364 179.059L329.18 160.788ZM328.765 144.356C330.079 136.537 332.603 130.497 335.928 125.684L291.503 94.986C283.18 107.03 277.986 120.686 275.512 135.406L328.765 144.356ZM335.91 125.71C339.372 120.713 343.494 117.093 348.455 114.481L323.294 66.7009C310.451 73.4637 299.801 83.0066 291.52 94.9601L335.91 125.71ZM348.554 114.428C353.226 111.943 358.733 110.489 365.633 110.489V56.4886C350.658 56.4886 336.326 59.7688 323.195 66.7533L348.554 114.428ZM365.633 110.489C370.619 110.489 373.991 111.263 376.239 112.166L396.362 62.0555C386.583 58.1287 376.177 56.4886 365.633 56.4886V110.489ZM376.239 112.166C378.25 112.974 379.44 113.935 380.355 115.049L422.075 80.7639C415.13 72.313 406.377 66.0775 396.362 62.0556L376.239 112.166ZM380.439 115.15C381.146 116.002 382.133 117.599 382.793 120.812L435.688 109.943C433.508 99.3313 429.144 89.2801 421.991 80.6622L380.439 115.15ZM382.793 120.812C383.379 123.662 383.587 128.111 382.478 134.663L435.72 143.678C437.641 132.332 437.943 120.919 435.688 109.943L382.793 120.812ZM382.42 135.016L381.071 143.68L434.428 151.99L435.777 143.325L382.42 135.016ZM407.749 120.835H313.005V174.835H407.749V120.835ZM339.672 152.061L342.868 131.89L289.534 123.439L286.338 143.61L339.672 152.061ZM316.201 154.665H378.701V100.665H316.201V154.665ZM405.387 131.77C406.553 124.19 406.141 115.802 402.761 107.554L352.794 128.032C351.781 125.56 351.985 123.753 352.015 123.559L405.387 131.77ZM402.761 107.554C399.402 99.3584 393.658 92.5931 386.037 87.9662L358.012 134.125C357.001 133.51 355.906 132.63 354.906 131.457C353.908 130.287 353.226 129.084 352.794 128.032L402.761 107.554ZM386.52 88.2666C378.693 83.2854 370.19 81.5597 362.437 81.5597V135.56C362.26 135.56 360.148 135.491 357.529 133.824L386.52 88.2666ZM362.437 81.5597C354.184 81.5597 346.205 83.544 338.901 87.4536L364.382 135.063C364.16 135.182 363.825 135.324 363.41 135.428C362.996 135.532 362.652 135.56 362.437 135.56V81.5597ZM339.024 87.388C332.299 90.9425 326.527 95.8065 321.877 101.784L364.502 134.937C364.518 134.917 364.517 134.92 364.499 134.939C364.48 134.959 364.451 134.987 364.413 135.019C364.375 135.05 364.338 135.078 364.305 135.1C364.273 135.121 364.256 135.131 364.259 135.129L339.024 87.388ZM321.877 101.784C316.909 108.173 313.621 115.496 312.118 123.409L365.17 133.483C365.142 133.632 365.072 133.895 364.929 134.214C364.785 134.533 364.624 134.781 364.502 134.937L321.877 101.784ZM312.081 123.608L308.317 144.276L361.443 153.952L365.207 133.284L312.081 123.608ZM308.24 144.719C306.976 152.383 306.929 161.256 310.134 170.101L360.904 151.706C361.324 152.864 361.414 153.711 361.432 154.044C361.449 154.354 361.404 154.21 361.52 153.508L308.24 144.719ZM310.134 170.101C313.351 178.98 319.307 186.472 327.625 191.517L355.63 145.347C356.717 146.006 357.876 146.961 358.901 148.225C359.92 149.48 360.547 150.72 360.904 151.706L310.134 170.101ZM327.904 191.684C336.173 196.564 345.057 197.989 352.778 197.989V143.989C352.161 143.989 352.16 143.928 352.615 144.032C353.098 144.143 354.102 144.443 355.35 145.179L327.904 191.684ZM352.778 197.989C358.219 197.989 363.723 197.262 369.143 195.617L353.457 143.945C353.505 143.931 353.49 143.94 353.394 143.954C353.296 143.968 353.096 143.989 352.778 143.989V197.989ZM369.563 195.486C375.17 193.684 380.461 190.925 385.211 187.147L351.595 144.887C351.863 144.674 352.145 144.491 352.421 144.345C352.694 144.199 352.911 144.117 353.038 144.076L369.563 195.486ZM385.269 187.101C390.205 183.152 394.234 178.334 397.255 172.832L349.92 146.844C350.086 146.542 350.315 146.195 350.613 145.839C350.912 145.483 351.23 145.178 351.536 144.934L385.269 187.101ZM372.801 186.827L404.477 187.75L406.05 133.773L374.374 132.85L372.801 186.827ZM379.84 151.67C378.631 155.052 376.857 157.824 374.396 160.264L412.41 198.617C420.649 190.451 426.783 180.77 430.687 169.853L379.84 151.67ZM374.482 160.179C372.051 162.567 368.787 164.747 364.201 166.491L383.399 216.963C394.249 212.836 404.054 206.825 412.323 198.702L374.482 160.179ZM364.286 166.459C360.119 168.028 354.795 169.06 347.948 169.06V223.06C360.23 223.06 372.141 221.203 383.315 216.995L364.286 166.459ZM566.751 123.545L593.373 128.049L593.383 127.992L593.392 127.934L566.751 123.545ZM551.126 163.247L529.208 147.481L529.201 147.49L529.195 147.499L551.126 163.247ZM522.93 187.679L510.856 163.529L510.835 163.54L510.814 163.55L522.93 187.679ZM452.547 187.04L438.508 210.103L438.508 210.103L452.547 187.04ZM431.169 160.974L405.979 170.695L405.997 170.74L406.015 170.786L431.169 160.974ZM428.612 119.426L455.249 123.84L455.255 123.807L455.26 123.773L428.612 119.426ZM444.024 79.6534L422.073 63.9328L422.05 63.9645L422.027 63.9963L444.024 79.6534ZM472.362 55.0085L484.478 79.1375L484.498 79.1273L484.519 79.117L472.362 55.0085ZM542.888 55.5767L528.718 78.56L528.743 78.5753L528.768 78.5905L542.888 55.5767ZM564.195 81.7841L589.398 72.0986L589.398 72.0986L564.195 81.7841ZM531.595 119.426L558.214 123.949L558.234 123.828L558.253 123.708L531.595 119.426ZM531.595 96.3438L505.267 102.328L505.288 102.422L505.31 102.517L531.595 96.3438ZM523.214 82.2102L506.705 103.575L506.782 103.634L506.859 103.692L523.214 82.2102ZM486.922 82.8494L500.949 105.92L500.975 105.904L501.001 105.888L486.922 82.8494ZM472.078 98.6165L495.441 112.151L495.461 112.116L495.481 112.081L472.078 98.6165ZM463.768 123.545L490.367 128.183L490.399 128L490.429 127.816L463.768 123.545ZM463.626 146.628L437.409 153.081L437.432 153.176L437.456 153.271L463.626 146.628ZM472.362 160.548L456.395 182.321L456.474 182.379L456.554 182.437L472.362 160.548ZM508.442 159.838L494.468 136.735L494.468 136.735L508.442 159.838ZM523.143 144.284L499.821 130.68L499.786 130.74L499.751 130.801L523.143 144.284ZM540.13 119.041C538.033 131.435 534.141 140.623 529.208 147.481L573.045 179.013C583.642 164.28 590.167 147 593.373 128.049L540.13 119.041ZM529.195 147.499C523.853 154.938 517.751 160.082 510.856 163.529L535.005 211.829C550.269 204.197 562.964 193.053 573.058 178.995L529.195 147.499ZM510.814 163.55C503.649 167.148 495.952 168.989 487.348 168.989V222.989C504.123 222.989 520.147 219.289 535.047 211.808L510.814 163.55ZM487.348 168.989C478.058 168.989 471.49 166.962 466.585 163.976L438.508 210.103C453.206 219.049 469.839 222.989 487.348 222.989V168.989ZM466.585 163.976C462.195 161.304 458.777 157.454 456.323 151.163L406.015 170.786C412.462 187.316 423.297 200.844 438.508 210.103L466.585 163.976ZM456.359 151.254C454.195 145.648 453.072 136.976 455.249 123.84L401.975 115.012C398.754 134.452 399.336 153.479 405.979 170.695L456.359 151.254ZM455.26 123.773C457.279 111.398 461.117 102.199 466.021 95.3105L422.027 63.9963C411.495 78.793 405.059 96.11 401.965 115.079L455.26 123.773ZM465.976 95.374C471.378 87.8299 477.539 82.6219 484.478 79.1375L460.246 30.8796C444.932 38.5694 432.2 49.7913 422.073 63.9328L465.976 95.374ZM484.519 79.117C491.839 75.4257 499.644 73.5568 508.3 73.5568V19.5568C491.387 19.5568 475.234 23.3224 460.206 30.9L484.519 79.117ZM508.3 73.5568C517.421 73.5568 523.872 75.5723 528.718 78.56L557.057 32.5934C542.396 23.5546 525.788 19.5568 508.3 19.5568V73.5568ZM528.768 78.5905C533.157 81.2835 536.564 85.1522 538.992 91.4696L589.398 72.0986C583.019 55.4993 572.22 41.8964 557.007 32.5629L528.768 78.5905ZM538.992 91.4695C541.17 97.1381 542.294 105.902 540.111 119.157L593.392 127.934C596.606 108.424 596.026 89.3467 589.398 72.0986L538.992 91.4695ZM558.253 123.708C560.053 112.504 560.425 101.008 557.88 90.1708L505.31 102.517C505.701 104.18 506.073 108.072 504.937 115.144L558.253 123.708ZM557.924 90.36C555.425 79.367 549.833 68.5418 539.57 60.728L506.859 103.692C506.484 103.407 506.14 103.086 505.842 102.748C505.545 102.412 505.34 102.113 505.211 101.894C504.953 101.46 505.076 101.489 505.267 102.328L557.924 90.36ZM539.724 60.8455C529.688 53.0908 517.979 50.3807 506.95 50.3807V104.381C508.142 104.381 508.524 104.526 508.338 104.471C508.238 104.442 508.015 104.366 507.708 104.211C507.398 104.055 507.053 103.844 506.705 103.575L539.724 60.8455ZM506.95 50.3807C494.889 50.3807 483.291 53.4258 472.843 59.8108L501.001 105.888C502.485 104.981 504.239 104.381 506.95 104.381V50.3807ZM472.895 59.7789C462.539 66.0754 454.573 74.9009 448.675 85.1517L495.481 112.081C497.538 108.506 499.468 106.82 500.949 105.92L472.895 59.7789ZM448.715 85.0821C442.731 95.4128 439.07 107.027 437.108 119.275L490.429 127.816C491.592 120.556 493.471 115.551 495.441 112.151L448.715 85.0821ZM437.17 118.908C435.198 130.215 434.678 141.988 437.409 153.081L489.844 140.174C489.544 138.957 489.119 135.342 490.367 128.183L437.17 118.908ZM437.456 153.271C440.237 164.226 446.112 174.78 456.395 182.321L488.329 138.775C488.66 139.018 488.974 139.298 489.252 139.599C489.529 139.899 489.725 140.17 489.852 140.373C490.107 140.779 489.994 140.761 489.796 139.985L437.456 153.271ZM456.554 182.437C466.464 189.594 477.814 192.165 488.626 192.165V138.165C487.422 138.165 486.947 138.023 486.997 138.037C487.026 138.045 487.17 138.089 487.396 138.196C487.623 138.305 487.891 138.458 488.17 138.66L456.554 182.437ZM488.626 192.165C500.535 192.165 512.034 189.22 522.415 182.941L494.468 136.735C493.107 137.559 491.396 138.165 488.626 138.165V192.165ZM522.415 182.941C532.729 176.703 540.667 167.949 546.536 157.767L499.751 130.801C497.76 134.255 495.897 135.871 494.468 136.735L522.415 182.941ZM546.466 157.889C552.434 147.656 556.145 136.124 558.214 123.949L504.977 114.904C503.731 122.235 501.807 127.276 499.821 130.68L546.466 157.889ZM620.871 131.784L594.255 127.247L594.246 127.296L594.238 127.345L620.871 131.784ZM610.501 194V221H633.374L637.134 198.439L610.501 194ZM575.771 194L549.139 189.561L543.899 221H575.771V194ZM593.953 84.9091V57.9091H571.081L567.32 80.4703L593.953 84.9091ZM626.979 84.9091L653.626 89.2559L658.74 57.9091H626.979V84.9091ZM623.712 104.938L597.064 100.591L591.951 131.938H623.712V104.938ZM624.919 104.938V131.938H641.448L648.965 117.216L624.919 104.938ZM639.763 89.2415L653.378 112.557L653.441 112.52L653.504 112.483L639.763 89.2415ZM680.743 88.6023L665.766 111.068L665.766 111.068L680.743 88.6023ZM691.609 102.949L666.095 111.781L666.105 111.811L666.116 111.842L691.609 102.949ZM692.675 124.469L666.067 119.881L666.056 119.945L666.046 120.008L692.675 124.469ZM681.027 194V221H703.88L707.656 198.461L681.027 194ZM646.297 194L619.663 189.566L614.43 221H646.297V194ZM656.737 131.287L630.133 126.678L630.118 126.766L630.104 126.853L656.737 131.287ZM654.536 117.153L632.544 132.818L632.667 132.99L632.791 133.159L654.536 117.153ZM632.447 114.384L644.976 138.301L645.045 138.265L645.115 138.228L632.447 114.384ZM624.919 121.131L602.733 105.743L602.648 105.865L602.565 105.988L624.919 121.131ZM594.238 127.345L583.869 189.561L637.134 198.439L647.503 136.223L594.238 127.345ZM610.501 167H575.771V221H610.501V167ZM602.404 198.439L620.586 89.3479L567.32 80.4703L549.139 189.561L602.404 198.439ZM593.953 111.909H626.979V57.9091H593.953V111.909ZM600.331 80.5623L597.064 100.591L650.359 109.284L653.626 89.2559L600.331 80.5623ZM623.712 131.938H624.919V77.9375H623.712V131.938ZM648.965 117.216C650.02 115.152 651.343 113.746 653.378 112.557L626.148 65.9256C615.209 72.313 606.636 81.3711 600.873 92.6585L648.965 117.216ZM653.504 112.483C655.52 111.291 658.003 110.489 661.638 110.489V56.4886C649.08 56.4886 636.979 59.5212 626.021 65.9998L653.504 112.483ZM661.638 110.489C663.451 110.489 664.565 110.692 665.15 110.849C665.697 110.995 665.832 111.111 665.766 111.068L695.72 66.1369C685.209 59.1299 673.305 56.4886 661.638 56.4886V110.489ZM665.766 111.068C665.839 111.116 665.852 111.133 665.83 111.112C665.808 111.091 665.785 111.065 665.772 111.048C665.759 111.031 665.783 111.06 665.836 111.159C665.889 111.26 665.983 111.458 666.095 111.781L717.124 94.1169C713.187 82.7444 706.045 73.0207 695.72 66.1369L665.766 111.068ZM666.116 111.842C666.359 112.54 666.931 114.872 666.067 119.881L719.282 129.056C721.259 117.588 721.121 105.574 717.103 94.0558L666.116 111.842ZM666.046 120.008L654.398 189.539L707.656 198.461L719.304 128.93L666.046 120.008ZM681.027 167H646.297V221H681.027V167ZM672.93 198.434L683.371 135.721L630.104 126.853L619.663 189.566L672.93 198.434ZM683.341 135.895C685.078 125.869 684.772 112.684 676.28 101.147L632.791 133.159C631.163 130.947 630.506 128.785 630.29 127.4C630.098 126.166 630.286 125.799 630.133 126.678L683.341 135.895ZM676.527 101.488C667.46 88.7603 653.741 84.9688 642.462 84.9688V138.969C642.563 138.969 641.16 138.995 639.017 138.074C636.637 137.052 634.279 135.253 632.544 132.818L676.527 101.488ZM642.462 84.9688C634.683 84.9688 626.955 86.7279 619.78 90.5394L645.115 138.228C644.625 138.488 644.088 138.691 643.553 138.82C643.026 138.947 642.64 138.969 642.462 138.969V84.9688ZM619.919 90.4661C612.841 94.1739 607.097 99.4511 602.733 105.743L647.105 136.518C646.995 136.677 646.753 136.986 646.348 137.349C645.938 137.716 645.467 138.044 644.976 138.301L619.919 90.4661ZM602.565 105.988C598.04 112.667 595.49 120.001 594.255 127.247L647.487 136.321C647.58 135.773 647.667 135.555 647.655 135.587C647.648 135.603 647.618 135.679 647.555 135.802C647.492 135.926 647.399 136.087 647.273 136.274L602.565 105.988ZM702.316 194L675.681 189.578L670.464 221H702.316V194ZM726.464 48.5455V21.5455H703.577L699.828 44.1236L726.464 48.5455ZM828.239 66.0881L804.131 78.2452L804.172 78.327L804.214 78.4086L828.239 66.0881ZM830.654 85.3352L857.222 90.145L857.251 89.9877L857.277 89.83L830.654 85.3352ZM824.546 100.108L802.495 84.5281L802.478 84.5518L802.461 84.5757L824.546 100.108ZM813.183 110.903L827.492 133.799L827.578 133.746L827.663 133.692L813.183 110.903ZM798.126 116.869L792.655 90.4293L775.155 94.0501L771.65 111.574L798.126 116.869ZM797.842 118.29L771.366 112.995L765.166 143.994L796.754 145.268L797.842 118.29ZM813.396 122.977L798.807 145.697L798.861 145.732L798.915 145.766L813.396 122.977ZM823.481 135.122L798.571 145.539L798.588 145.58L798.605 145.62L823.481 135.122ZM824.972 153.304L798.354 148.777L798.34 148.86L798.327 148.944L824.972 153.304ZM815.526 174.256L794.601 157.193L794.593 157.202L794.586 157.211L815.526 174.256ZM795.853 188.744L806.524 213.546L806.584 213.52L806.645 213.494L795.853 188.744ZM742.302 165.662L715.64 161.4L710.644 192.662H742.302V165.662ZM781.506 161.33L797.007 183.437L797.032 183.419L797.057 183.402L781.506 161.33ZM788.893 149.256L762.251 144.872L762.216 145.085L762.184 145.299L788.893 149.256ZM787.898 139.597L763.421 150.991L763.459 151.073L763.498 151.155L787.898 139.597ZM781.506 133.276L769.279 157.348L769.432 157.426L769.586 157.502L781.506 133.276ZM747.842 131.003V104.003H724.814L721.18 126.741L747.842 131.003ZM751.748 108.347L725.107 103.956L719.934 135.347H751.748V108.347ZM781.719 106.429L771.756 81.3347L771.691 81.3602L771.628 81.386L781.719 106.429ZM789.674 100.889L769.428 83.0254L769.329 83.1381L769.231 83.2519L789.674 100.889ZM793.651 92.1534L767.012 87.7566L766.985 87.916L766.961 88.0757L793.651 92.1534ZM757.004 76.4574V49.4574H734.089L730.363 72.0667L757.004 76.4574ZM728.951 198.422L753.099 52.9673L699.828 44.1236L675.681 189.578L728.951 198.422ZM726.464 75.5455H787.117V21.5455H726.464V75.5455ZM787.117 75.5455C795.77 75.5455 800.507 76.8139 802.706 77.7997L824.795 28.5242C813.263 23.3547 800.244 21.5455 787.117 21.5455V75.5455ZM802.706 77.7997C804.013 78.3856 804.503 78.8093 804.547 78.849C804.569 78.8684 804.51 78.8177 804.411 78.6907C804.311 78.5617 804.213 78.4072 804.131 78.2452L852.348 53.931C846.203 41.7468 836.073 33.5799 824.795 28.5242L802.706 77.7997ZM804.214 78.4086C804.142 78.2686 804.158 78.2106 804.184 78.4158C804.215 78.667 804.27 79.4256 804.031 80.8404L857.277 89.83C859.29 77.9109 858.233 65.4061 852.264 53.7675L804.214 78.4086ZM804.086 80.5255C803.76 82.3261 803.193 83.5395 802.495 84.5281L846.598 115.688C852.054 107.964 855.56 99.3292 857.222 90.145L804.086 80.5255ZM802.461 84.5757C801.512 85.9252 800.33 87.0803 798.702 88.1148L827.663 133.692C835.126 128.95 841.52 122.908 846.631 115.64L802.461 84.5757ZM798.873 88.0074C797.165 89.0748 795.162 89.9108 792.655 90.4293L803.596 143.309C812.075 141.555 820.109 138.414 827.492 133.799L798.873 88.0074ZM771.65 111.574L771.366 112.995L824.317 123.585L824.601 122.164L771.65 111.574ZM796.754 145.268C798.316 145.331 798.744 145.656 798.807 145.697L827.984 100.258C819.051 94.5218 809.11 91.7222 798.929 91.3117L796.754 145.268ZM798.915 145.766C798.909 145.762 798.856 145.727 798.777 145.658C798.698 145.588 798.62 145.508 798.554 145.429C798.523 145.391 798.499 145.359 798.481 145.334C798.464 145.31 798.457 145.297 798.457 145.299C798.458 145.299 798.501 145.371 798.571 145.539L848.39 124.705C844.192 114.665 837.314 106.186 827.876 100.189L798.915 145.766ZM798.605 145.62C798.321 144.947 798.899 145.576 798.354 148.777L851.59 157.831C853.413 147.112 852.996 135.619 848.356 124.624L798.605 145.62ZM798.327 148.944C797.814 152.079 796.645 154.686 794.601 157.193L836.452 191.318C844.445 181.514 849.574 170.154 851.618 157.664L798.327 148.944ZM794.586 157.211C792.666 159.571 789.767 161.943 785.061 163.995L806.645 213.494C818.227 208.444 828.444 201.156 836.466 191.3L794.586 157.211ZM785.182 163.942C781.031 165.729 775.361 167 767.586 167V221C781.213 221 794.388 218.768 806.524 213.546L785.182 163.942ZM767.586 167H702.316V221H767.586V167ZM742.302 192.662H764.035V138.662H742.302V192.662ZM764.035 192.662C774.51 192.662 786.602 190.732 797.007 183.437L766.006 139.222C767.138 138.428 767.842 138.3 767.551 138.373C767.223 138.454 766.137 138.662 764.035 138.662V192.662ZM797.057 183.402C807.362 176.141 813.778 165.519 815.601 153.212L762.184 145.299C762.286 144.611 762.609 143.388 763.446 142.019C764.288 140.643 765.271 139.74 765.956 139.258L797.057 183.402ZM815.534 153.64C816.801 145.942 816.491 136.888 812.299 128.038L763.498 151.155C761.862 147.703 762.215 145.089 762.251 144.872L815.534 153.64ZM812.376 128.202C808.24 119.318 801.363 112.954 793.427 109.05L769.586 157.502C768.75 157.09 767.573 156.358 766.357 155.155C765.117 153.929 764.12 152.493 763.421 150.991L812.376 128.202ZM793.734 109.203C785.853 105.2 777.56 104.003 770.214 104.003V158.003C771.014 158.003 771.275 158.072 771.119 158.04C770.949 158.006 770.262 157.847 769.279 157.348L793.734 109.203ZM770.214 104.003H747.842V158.003H770.214V104.003ZM721.18 126.741L715.64 161.4L768.963 169.923L774.503 135.264L721.18 126.741ZM751.748 135.347H771.279V81.3466H751.748V135.347ZM771.279 135.347C778.153 135.347 785.104 134.175 791.811 131.472L771.628 81.386C771.781 81.324 771.87 81.3083 771.853 81.3114C771.83 81.3156 771.651 81.3466 771.279 81.3466V135.347ZM791.683 131.523C798.59 128.781 804.952 124.513 810.117 118.526L769.231 83.2519C769.684 82.7267 770.189 82.2792 770.693 81.9289C771.188 81.5841 771.574 81.4067 771.756 81.3347L791.683 131.523ZM809.92 118.753C815.721 112.178 819.097 104.379 820.342 96.2311L766.961 88.0757C767.047 87.5143 767.25 86.6805 767.693 85.7064C768.143 84.7196 768.741 83.8042 769.428 83.0254L809.92 118.753ZM820.291 96.5502C822.236 84.7623 819.732 71.0454 808.614 60.7961L772.013 100.499C770.03 98.6715 768.351 96.1098 767.49 93.1424C766.689 90.3809 766.91 88.3707 767.012 87.7566L820.291 96.5502ZM808.614 60.7961C798.864 51.8079 786.839 49.4574 777.032 49.4574V103.457C778.873 103.457 775.702 103.9 772.013 100.499L808.614 60.7961ZM777.032 49.4574H757.004V103.457H777.032V49.4574ZM730.363 72.0667L725.107 103.956L778.388 112.737L783.644 80.848L730.363 72.0667ZM913.325 146.912L886.694 142.458L886.673 142.587L886.653 142.716L913.325 146.912ZM923.694 84.9091V57.9091H900.834L897.064 80.4555L923.694 84.9091ZM958.353 84.9091L984.986 89.3479L990.225 57.9091H958.353V84.9091ZM940.171 194V221H963.044L966.804 198.439L940.171 194ZM907.075 194L880.432 189.622L875.275 221H907.075V194ZM910.413 173.688L937.055 178.066L942.212 146.688H910.413V173.688ZM909.276 173.688V146.688H892.642L885.161 161.544L909.276 173.688ZM894.433 189.597L908.225 212.808L908.287 212.771L908.349 212.734L894.433 189.597ZM853.594 190.307L838.521 212.708L853.594 190.307ZM842.799 176.031L817.224 184.687L817.264 184.806L817.306 184.924L842.799 176.031ZM841.663 154.44L815.034 149.98L815.019 150.065L815.006 150.151L841.663 154.44ZM853.31 84.9091V57.9091H830.457L826.681 80.4483L853.31 84.9091ZM888.04 84.9091L914.674 89.343L919.907 57.9091H888.04V84.9091ZM877.6 147.622L850.967 143.188L850.935 143.376L850.907 143.565L877.6 147.622ZM879.944 161.614L858.056 177.422L858.127 177.521L858.2 177.62L879.944 161.614ZM901.464 164.455L913.539 188.604L913.689 188.529L913.838 188.452L901.464 164.455ZM909.134 157.707L887.163 142.014L887.139 142.048L887.116 142.081L909.134 157.707ZM939.955 151.366L950.324 89.3627L897.064 80.4555L886.694 142.458L939.955 151.366ZM923.694 111.909H958.353V57.9091H923.694V111.909ZM931.72 80.4703L913.539 189.561L966.804 198.439L984.986 89.3479L931.72 80.4703ZM940.171 167H907.075V221H940.171V167ZM933.717 198.378L937.055 178.066L883.77 169.309L880.432 189.622L933.717 198.378ZM910.413 146.688H909.276V200.688H910.413V146.688ZM885.161 161.544C884.141 163.57 882.774 165.102 880.516 166.459L908.349 212.734C919.16 206.232 927.688 197.157 933.392 185.831L885.161 161.544ZM880.64 166.385C878.603 167.596 876.072 168.42 872.344 168.42V222.42C884.999 222.42 897.194 219.363 908.225 212.808L880.64 166.385ZM872.344 168.42C870.682 168.42 869.684 168.229 869.186 168.093C868.725 167.968 868.616 167.871 868.668 167.906L838.521 212.708C848.93 219.712 860.721 222.42 872.344 222.42V168.42ZM868.668 167.906C868.592 167.855 868.574 167.835 868.59 167.85C868.606 167.865 868.623 167.885 868.631 167.896C868.639 167.905 868.611 167.871 868.556 167.767C868.5 167.661 868.405 167.461 868.292 167.138L817.306 184.924C821.237 196.194 828.315 205.84 838.521 212.708L868.668 167.906ZM868.374 167.375C868.043 166.398 867.499 163.828 868.32 158.73L815.006 150.151C813.174 161.53 813.388 173.354 817.224 184.687L868.374 167.375ZM868.292 158.901L879.939 89.3699L826.681 80.4483L815.034 149.98L868.292 158.901ZM853.31 111.909H888.04V57.9091H853.31V111.909ZM861.407 80.4752L850.967 143.188L904.234 152.056L914.674 89.343L861.407 80.4752ZM850.907 143.565C849.397 153.499 849.969 166.225 858.056 177.422L901.832 145.805C903.321 147.867 903.931 149.848 904.14 151.098C904.328 152.219 904.164 152.529 904.294 151.68L850.907 143.565ZM858.2 177.62C867.123 189.742 880.312 193.727 891.734 193.727V139.727C891.863 139.727 893.359 139.743 895.517 140.678C897.874 141.701 900.079 143.422 901.688 145.608L858.2 177.62ZM891.734 193.727C899.294 193.727 906.681 192.033 913.539 188.604L889.389 140.305C889.728 140.135 890.149 139.976 890.617 139.867C891.083 139.758 891.473 139.727 891.734 139.727V193.727ZM913.838 188.452C920.921 184.8 926.714 179.588 931.153 173.334L887.116 142.081C887.216 141.94 887.442 141.656 887.821 141.323C888.205 140.985 888.642 140.688 889.09 140.457L913.838 188.452ZM931.105 173.401C936.045 166.485 938.788 158.789 939.997 151.108L886.653 142.716C886.59 143.114 886.541 143.178 886.609 143.001C886.683 142.811 886.852 142.45 887.163 142.014L931.105 173.401ZM981.027 189.312L965.484 211.39L965.484 211.39L981.027 189.312ZM968.314 170.562L942.461 178.348L942.481 178.415L942.502 178.482L968.314 170.562ZM967.604 139.526L940.968 135.103L940.966 135.12L940.963 135.136L967.604 139.526ZM978.967 107.849L1001.53 122.677L1001.53 122.677L978.967 107.849ZM998.001 89.4545L985.072 65.7513L985.04 65.7691L985.007 65.7869L998.001 89.4545ZM1034.51 86.4716L1021.83 110.312L1022.01 110.407L1022.19 110.5L1034.51 86.4716ZM1043.38 94L1021.19 109.369L1021.19 109.369L1043.38 94ZM1047.79 103.588L1021.55 109.96L1026.56 130.588H1047.79V103.588ZM1048.57 103.588V130.588H1071.45L1075.2 108.021L1048.57 103.588ZM1057.73 48.5455V21.5455H1034.85L1031.1 44.1123L1057.73 48.5455ZM1092.46 48.5455L1119.1 52.9673L1124.31 21.5455H1092.46V48.5455ZM1068.31 194V221H1091.2L1094.95 198.422L1068.31 194ZM1033.94 194L1007.3 189.613L1002.13 221H1033.94V194ZM1036.85 176.315L1063.49 180.702L1068.66 149.315H1036.85V176.315ZM1035.79 176.315V149.315H1020.57L1012.69 162.328L1035.79 176.315ZM1027.97 185.761L1009.63 165.944L1009.63 165.944L1027.97 185.761ZM1016.68 192.864L1006.37 167.909L1006.32 167.929L1006.28 167.949L1016.68 192.864ZM1029.82 164.952L1045.22 187.129L1045.32 187.057L1045.43 186.984L1029.82 164.952ZM1038.41 154.795L1014.69 141.903L1014.64 142.003L1014.58 142.103L1038.41 154.795ZM1043.38 139.455L1016.75 135.016L1016.74 135.085L1016.73 135.155L1043.38 139.455ZM1038.2 114.099L1020.24 134.259L1020.33 134.34L1020.42 134.419L1038.2 114.099ZM1003.26 139.455L976.636 134.946L976.618 135.051L976.602 135.155L1003.26 139.455ZM1002.97 154.795L976.372 159.422L976.397 159.562L976.422 159.702L1002.97 154.795ZM1008.02 164.952L989.477 184.581L989.663 184.757L989.853 184.93L1008.02 164.952ZM1001.98 168.562C998.843 168.562 997.433 167.843 996.57 167.235L965.484 211.39C976.458 219.116 989.016 222.562 1001.98 222.562V168.562ZM996.57 167.235C996.491 167.18 995.296 166.455 994.126 162.643L942.502 178.482C946.446 191.337 953.725 203.112 965.484 211.39L996.57 167.235ZM994.167 162.777C993.25 159.732 992.605 153.866 994.245 143.915L940.963 135.136C938.53 149.902 938.359 164.726 942.461 178.348L994.167 162.777ZM994.239 143.948C995.936 133.726 998.691 126.999 1001.53 122.677L956.403 93.0216C948.353 105.272 943.532 119.662 940.968 135.103L994.239 143.948ZM1001.53 122.677C1005.04 117.343 1008.32 114.594 1011 113.122L985.007 65.7869C973.199 72.2701 963.788 81.7834 956.403 93.0216L1001.53 122.677ZM1010.93 113.158C1014.65 111.13 1017.67 110.489 1020.3 110.489V56.4886C1007.78 56.4886 995.939 59.8241 985.072 65.7513L1010.93 113.158ZM1020.3 110.489C1021.63 110.489 1022.36 110.606 1022.6 110.658C1022.83 110.706 1022.5 110.665 1021.83 110.312L1047.18 62.6314C1038.41 57.9666 1028.96 56.4886 1020.3 56.4886V110.489ZM1022.19 110.5C1022.42 110.617 1022.35 110.608 1022.1 110.402C1021.85 110.186 1021.51 109.841 1021.19 109.369L1065.58 78.6313C1060.59 71.4218 1054.02 66.1319 1046.82 62.4434L1022.19 110.5ZM1021.19 109.369C1021.41 109.694 1021.51 109.896 1021.55 109.974C1021.58 110.047 1021.57 110.037 1021.55 109.96L1074.03 97.2161C1072.37 90.3803 1069.42 84.1686 1065.58 78.6313L1021.19 109.369ZM1047.79 130.588H1048.57V76.5881H1047.79V130.588ZM1075.2 108.021L1084.37 52.9786L1031.1 44.1123L1021.94 99.1549L1075.2 108.021ZM1057.73 75.5455H1092.46V21.5455H1057.73V75.5455ZM1065.83 44.1236L1041.68 189.578L1094.95 198.422L1119.1 52.9673L1065.83 44.1236ZM1068.31 167H1033.94V221H1068.31V167ZM1060.58 198.387L1063.49 180.702L1010.21 171.929L1007.3 189.613L1060.58 198.387ZM1036.85 149.315H1035.79V203.315H1036.85V149.315ZM1012.69 162.328C1012.08 163.331 1011.14 164.552 1009.63 165.944L1046.31 205.578C1051.15 201.1 1055.42 196.023 1058.88 190.302L1012.69 162.328ZM1009.63 165.944C1009.02 166.516 1008.04 167.221 1006.37 167.909L1026.99 217.819C1034.04 214.907 1040.58 210.878 1046.31 205.578L1009.63 165.944ZM1006.28 167.949C1005.79 168.151 1004.52 168.562 1001.98 168.562V222.562C1010.42 222.562 1018.95 221.175 1027.08 217.779L1006.28 167.949ZM1018.38 195.503C1028.01 195.503 1037.22 192.687 1045.22 187.129L1014.42 142.775C1014.89 142.448 1015.56 142.088 1016.4 141.83C1017.22 141.573 1017.93 141.503 1018.38 141.503V195.503ZM1045.43 186.984C1052.84 181.736 1058.3 174.886 1062.24 167.488L1014.58 142.103C1014.22 142.776 1013.98 143.086 1013.91 143.161C1013.86 143.225 1013.95 143.104 1014.21 142.919L1045.43 186.984ZM1062.14 167.688C1066.22 160.18 1068.7 152.051 1070.04 143.754L1016.73 135.155C1016.17 138.6 1015.34 140.699 1014.69 141.903L1062.14 167.688ZM1070.02 143.893C1071.37 135.776 1071.74 127.087 1069.96 118.524L1017.1 129.561C1017.09 129.535 1017.18 129.934 1017.17 130.878C1017.16 131.823 1017.06 133.182 1016.75 135.016L1070.02 143.893ZM1069.96 118.524C1068.16 109.927 1064.05 100.839 1055.98 93.7799L1020.42 134.419C1019.14 133.298 1018.26 132.089 1017.72 131.075C1017.2 130.111 1017.09 129.512 1017.1 129.561L1069.96 118.524ZM1056.16 93.9396C1047.57 86.2888 1037.25 83.6193 1027.9 83.6193V137.619C1027.6 137.619 1026.54 137.578 1025.03 137.068C1023.44 136.533 1021.75 135.607 1020.24 134.259L1056.16 93.9396ZM1027.9 83.6193C1018.29 83.6193 1009.01 86.401 1000.92 92.0951L1032.01 136.246C1031.46 136.635 1030.72 137.023 1029.86 137.292C1029 137.558 1028.3 137.619 1027.9 137.619V83.6193ZM1000.92 92.0951C993.421 97.3771 987.96 104.316 984.097 111.795L1032.08 136.575C1032.38 135.985 1032.57 135.765 1032.56 135.778C1032.55 135.784 1032.5 135.841 1032.41 135.93C1032.31 136.019 1032.18 136.129 1032.01 136.246L1000.92 92.0951ZM984.097 111.795C980.341 119.068 977.994 126.929 976.636 134.946L1029.88 143.963C1030.51 140.237 1031.38 137.918 1032.08 136.575L984.097 111.795ZM976.602 135.155C975.331 143.03 974.959 151.293 976.372 159.422L1029.57 150.169C1029.47 149.586 1029.29 147.621 1029.91 143.754L976.602 135.155ZM976.422 159.702C977.996 168.215 981.782 177.314 989.477 184.581L1026.55 145.322C1029.14 147.76 1029.56 150.088 1029.52 149.889L976.422 159.702ZM989.853 184.93C998.484 192.776 1008.94 195.503 1018.38 195.503V141.503C1018.69 141.503 1019.77 141.544 1021.31 142.071C1022.93 142.627 1024.65 143.584 1026.18 144.973L989.853 184.93ZM1108.44 232.849L1098.03 257.762L1098.03 257.762L1108.44 232.849ZM1092.96 220.989L1070.62 236.159L1092.96 220.989ZM1088.06 203.943L1086.56 176.985L1061.62 178.37L1061.07 203.339L1088.06 203.943ZM1121.3 202.097L1148.09 198.748L1144.96 173.74L1119.8 175.138L1121.3 202.097ZM1123.78 207.991L1102.99 225.218L1102.99 225.218L1123.78 207.991ZM1129.68 211.756L1138.64 186.286L1138.43 186.212L1138.22 186.141L1129.68 211.756ZM1154.39 208.844L1139.53 186.302L1139.53 186.302L1154.39 208.844ZM1162.35 194.142L1135.72 189.703L1135.66 190.013L1135.62 190.324L1162.35 194.142ZM1165.54 174.966L1192.18 179.405L1197.42 147.966H1165.54V174.966ZM1164.34 174.966V147.966H1148.56L1140.81 161.713L1164.34 174.966ZM1156.67 183.986L1139.5 163.144L1139.5 163.144L1156.67 183.986ZM1109.65 186.969L1095.31 209.844L1095.37 209.885L1095.44 209.926L1109.65 186.969ZM1096.72 169.639L1071.14 178.27L1071.15 178.293L1071.16 178.317L1096.72 169.639ZM1095.8 139.312L1069.17 134.858L1069.16 134.891L1069.16 134.923L1095.8 139.312ZM1107.16 107.849L1129.69 122.737L1129.71 122.707L1129.73 122.677L1107.16 107.849ZM1126.2 89.4545L1113.27 65.7513L1113.24 65.7691L1113.2 65.7869L1126.2 89.4545ZM1162.77 86.4716L1150.1 110.312L1150.22 110.375L1150.34 110.436L1162.77 86.4716ZM1176.13 103.588L1150.07 110.661L1155.48 130.588H1176.13V103.588ZM1177.12 103.588V130.588H1200.06L1203.77 107.945L1177.12 103.588ZM1180.17 84.9091V57.9091H1157.23L1153.53 80.5525L1180.17 84.9091ZM1214.76 84.9091L1241.4 89.3311L1246.61 57.9091H1214.76V84.9091ZM1196.58 194.426L1169.95 190.004L1169.93 190.106L1169.91 190.208L1196.58 194.426ZM1185.86 217.864L1165.74 199.851L1185.86 217.864ZM1164.05 232.281L1154.71 206.951L1154.71 206.951L1164.05 232.281ZM1158.09 163.886L1172.85 186.496L1158.09 163.886ZM1171.58 139.312L1198.23 143.646L1198.24 143.612L1198.24 143.578L1171.58 139.312ZM1171.58 124.043L1145.15 129.561L1145.19 129.731L1145.22 129.9L1171.58 124.043ZM1166.33 114.099L1148.36 134.259L1148.36 134.259L1166.33 114.099ZM1144.52 114.17L1128.98 92.0951L1128.9 92.1471L1128.83 92.1997L1144.52 114.17ZM1136.14 124.185L1112.26 111.588L1112.23 111.637L1112.21 111.686L1136.14 124.185ZM1131.45 139.312L1158.1 143.646L1158.12 143.54L1158.14 143.434L1131.45 139.312ZM1131.24 154.298L1104.73 159.42L1104.76 159.564L1104.79 159.709L1131.24 154.298ZM1136.35 163.886L1118.63 184.253L1118.72 184.333L1118.81 184.413L1136.35 163.886ZM1134.44 210.182C1126.29 210.182 1121.45 209.022 1118.85 207.936L1098.03 257.762C1109.26 262.454 1121.75 264.182 1134.44 264.182V210.182ZM1118.85 207.936C1115.63 206.593 1115.13 205.581 1115.29 205.818L1070.62 236.159C1077.6 246.434 1087.42 253.33 1098.03 257.762L1118.85 207.936ZM1115.29 205.818C1115.21 205.697 1115.17 205.623 1115.16 205.591C1115.14 205.559 1115.13 205.534 1115.13 205.503C1115.12 205.467 1115.04 205.194 1115.05 204.548L1061.07 203.339C1060.8 215.024 1063.91 226.272 1070.62 236.159L1115.29 205.818ZM1089.56 230.902L1122.79 229.055L1119.8 175.138L1086.56 176.985L1089.56 230.902ZM1094.51 205.446C1095.38 212.478 1098.12 219.343 1102.99 225.218L1144.57 190.765C1146.7 193.326 1147.78 196.26 1148.09 198.748L1094.51 205.446ZM1102.99 225.218C1108.31 231.633 1115 235.322 1121.14 237.37L1138.22 186.141C1139.25 186.485 1142 187.665 1144.57 190.765L1102.99 225.218ZM1120.72 237.225C1127.05 239.452 1133.47 240.105 1139.19 240.105V186.105C1138.35 186.105 1137.89 186.053 1137.76 186.035C1137.71 186.027 1137.76 186.032 1137.9 186.065C1138.04 186.099 1138.3 186.166 1138.64 186.286L1120.72 237.225ZM1139.19 240.105C1149.6 240.105 1159.99 237.498 1169.26 231.385L1139.53 186.302C1139.63 186.24 1139.73 186.179 1139.85 186.128C1139.96 186.077 1140.04 186.052 1140.07 186.042C1140.1 186.033 1140.06 186.048 1139.93 186.066C1139.79 186.083 1139.55 186.105 1139.19 186.105V240.105ZM1169.26 231.385C1182.11 222.907 1187.4 209.674 1189.08 197.96L1135.62 190.324C1135.46 191.434 1135.33 191.176 1135.87 190.189C1136.49 189.045 1137.68 187.524 1139.53 186.302L1169.26 231.385ZM1188.98 198.581L1192.18 179.405L1138.91 170.527L1135.72 189.703L1188.98 198.581ZM1165.54 147.966H1164.34V201.966H1165.54V147.966ZM1140.81 161.713C1140.68 161.948 1140.36 162.436 1139.5 163.144L1173.83 204.828C1179.41 200.233 1184.2 194.708 1187.86 188.219L1140.81 161.713ZM1139.5 163.144C1139.05 163.519 1138.15 164.118 1136.45 164.705L1154.02 215.767C1161.12 213.323 1167.85 209.755 1173.83 204.828L1139.5 163.144ZM1136.45 164.705C1135.26 165.115 1133.4 165.509 1130.6 165.509V219.509C1138.5 219.509 1146.4 218.387 1154.02 215.767L1136.45 164.705ZM1130.6 165.509C1126.9 165.509 1124.98 164.706 1123.86 164.012L1095.44 209.926C1106.25 216.617 1118.3 219.509 1130.6 219.509V165.509ZM1123.99 164.093C1123.9 164.038 1123.79 163.964 1123.59 163.688C1123.35 163.369 1122.84 162.57 1122.29 160.962L1071.16 178.317C1075.44 190.955 1083.2 202.256 1095.31 209.844L1123.99 164.093ZM1122.31 161.009C1121.61 158.934 1120.79 153.738 1122.44 143.702L1069.16 134.923C1066.74 149.603 1066.54 164.624 1071.14 178.27L1122.31 161.009ZM1122.43 143.767C1124.12 133.662 1126.86 127.013 1129.69 122.737L1084.64 92.9623C1076.57 105.163 1071.74 119.49 1069.17 134.858L1122.43 143.767ZM1129.73 122.677C1133.23 117.343 1136.51 114.594 1139.19 113.122L1113.2 65.7869C1101.39 72.2701 1091.98 81.7834 1084.6 93.0216L1129.73 122.677ZM1139.13 113.158C1142.82 111.145 1145.86 110.489 1148.57 110.489V56.4886C1136.03 56.4886 1124.16 59.8094 1113.27 65.7513L1139.13 113.158ZM1148.57 110.489C1149.9 110.489 1150.62 110.606 1150.87 110.658C1151.1 110.706 1150.76 110.665 1150.1 110.312L1175.45 62.6314C1166.67 57.9666 1157.23 56.4886 1148.57 56.4886V110.489ZM1150.34 110.436C1150.54 110.544 1150.47 110.532 1150.24 110.333C1149.99 110.125 1149.68 109.801 1149.38 109.369L1193.78 78.6313C1188.84 71.5009 1182.36 66.2168 1175.21 62.5068L1150.34 110.436ZM1149.38 109.369C1149.92 110.148 1150.04 110.566 1150.07 110.661L1202.18 96.5154C1200.41 89.9811 1197.5 84.0077 1193.78 78.6313L1149.38 109.369ZM1176.13 130.588H1177.12V76.5881H1176.13V130.588ZM1203.77 107.945L1206.82 89.2657L1153.53 80.5525L1150.47 99.2315L1203.77 107.945ZM1180.17 111.909H1214.76V57.9091H1180.17V111.909ZM1188.13 80.4871L1169.95 190.004L1223.22 198.848L1241.4 89.3311L1188.13 80.4871ZM1169.91 190.208C1169.17 194.905 1167.6 197.773 1165.74 199.851L1205.97 235.876C1215.47 225.265 1221.06 212.508 1223.25 198.644L1169.91 190.208ZM1165.74 199.851C1163.31 202.572 1159.88 205.041 1154.71 206.951L1173.4 257.612C1185.93 252.988 1197.04 245.845 1205.97 235.876L1165.74 199.851ZM1154.71 206.951C1149.27 208.958 1142.62 210.182 1134.44 210.182V264.182C1148.03 264.182 1161.13 262.139 1173.4 257.612L1154.71 206.951ZM1146.65 194.224C1155.91 194.224 1164.89 191.691 1172.85 186.496L1143.33 141.277C1143.79 140.976 1144.4 140.678 1145.1 140.472C1145.8 140.268 1146.36 140.224 1146.65 140.224V194.224ZM1172.85 186.496C1180.5 181.496 1186.18 174.771 1190.27 167.433L1143.09 141.163C1142.8 141.685 1142.64 141.85 1142.69 141.799C1142.71 141.774 1142.77 141.704 1142.89 141.606C1143 141.508 1143.15 141.394 1143.33 141.277L1172.85 186.496ZM1190.27 167.433C1194.43 159.971 1196.9 151.853 1198.23 143.646L1144.93 134.979C1144.37 138.419 1143.58 140.293 1143.09 141.163L1190.27 167.433ZM1198.24 143.578C1199.54 135.468 1199.84 126.761 1197.94 118.185L1145.22 129.9C1145.21 129.847 1145.52 131.32 1144.92 135.047L1198.24 143.578ZM1198.01 118.524C1196.24 110.053 1192.23 101.014 1184.29 93.9396L1148.36 134.259C1145.63 131.825 1145.12 129.415 1145.15 129.561L1198.01 118.524ZM1184.29 93.9396C1175.7 86.2888 1165.37 83.6193 1156.03 83.6193V137.619C1155.72 137.619 1154.66 137.578 1153.15 137.068C1151.57 136.533 1149.88 135.607 1148.36 134.259L1184.29 93.9396ZM1156.03 83.6193C1146.44 83.6193 1137.11 86.3638 1128.98 92.0951L1160.07 136.246C1159.49 136.653 1158.74 137.042 1157.88 137.306C1157.04 137.567 1156.37 137.619 1156.03 137.619V83.6193ZM1128.83 92.1997C1121.48 97.4457 1116.11 104.282 1112.26 111.588L1160.02 136.781C1160.37 136.115 1160.61 135.825 1160.65 135.778C1160.68 135.743 1160.54 135.908 1160.21 136.141L1128.83 92.1997ZM1112.21 111.686C1108.34 119.086 1106.02 127.079 1104.77 135.191L1158.14 143.434C1158.68 139.898 1159.49 137.806 1160.07 136.683L1112.21 111.686ZM1104.8 134.979C1103.53 142.805 1103.14 151.177 1104.73 159.42L1157.75 149.177C1157.75 149.193 1157.67 148.777 1157.69 147.811C1157.7 146.848 1157.81 145.478 1158.1 143.646L1104.8 134.979ZM1104.79 159.709C1106.52 168.18 1110.57 177.236 1118.63 184.253L1154.08 143.52C1157.03 146.086 1157.66 148.749 1157.69 148.888L1104.79 159.709ZM1118.81 184.413C1127.41 191.761 1137.58 194.224 1146.65 194.224V140.224C1146.85 140.224 1147.8 140.249 1149.21 140.705C1150.69 141.186 1152.35 142.041 1153.89 143.36L1118.81 184.413ZM1241.02 189.312L1227 212.387L1227.09 212.439L1227.17 212.49L1241.02 189.312ZM1225.26 169.923L1199.85 179.059L1199.86 179.081L1199.87 179.104L1225.26 169.923ZM1223.62 139.881L1197 135.406L1196.99 135.415L1196.99 135.424L1223.62 139.881ZM1235.2 110.335L1213 94.9601L1213 94.9731L1212.99 94.986L1235.2 110.335ZM1257.36 90.5909L1269.94 114.481L1269.99 114.455L1270.04 114.428L1257.36 90.5909ZM1307.78 87.1108L1317.85 62.0556L1317.85 62.0555L1307.78 87.1108ZM1322.7 97.9062L1301.84 115.049L1301.88 115.1L1301.92 115.15L1322.7 97.9062ZM1330.73 115.378L1357.17 109.943L1357.17 109.943L1330.73 115.378ZM1330.58 139.17L1303.96 134.663L1303.93 134.839L1303.9 135.016L1330.58 139.17ZM1329.23 147.835V174.835H1352.35L1355.91 151.99L1329.23 147.835ZM1234.49 147.835L1207.82 143.61L1202.87 174.835H1234.49V147.835ZM1237.69 127.665V100.665H1214.63L1211.02 123.439L1237.69 127.665ZM1300.19 127.665V154.665H1323.35L1326.87 131.77L1300.19 127.665ZM1293.51 111.045L1279.01 133.824L1279.25 133.977L1279.5 134.125L1293.51 111.045ZM1273.13 111.259L1285.74 135.129L1285.8 135.096L1285.87 135.063L1273.13 111.259ZM1260.13 128.446L1233.6 123.409L1233.58 123.509L1233.57 123.608L1260.13 128.446ZM1256.36 149.114L1229.8 144.276L1229.76 144.497L1229.72 144.719L1256.36 149.114ZM1257 160.903L1231.62 170.101L1231.62 170.101L1257 160.903ZM1263.11 168.432L1249.11 191.517L1249.25 191.602L1249.39 191.684L1263.11 168.432ZM1282.78 169.781L1290.63 195.617L1290.84 195.553L1291.05 195.486L1282.78 169.781ZM1289.89 166.017L1306.7 187.147L1306.72 187.124L1306.75 187.101L1289.89 166.017ZM1295.07 159.838L1295.86 132.85L1279.35 132.368L1271.4 146.844L1295.07 159.838ZM1326.75 160.761L1352.17 169.853L1364.69 134.856L1327.53 133.773L1326.75 160.761ZM1314.89 179.44L1333.81 198.702L1333.85 198.66L1333.89 198.617L1314.89 179.44ZM1295.28 191.727L1304.8 216.995L1304.84 216.979L1304.88 216.963L1295.28 191.727ZM1269.43 169.06C1261.46 169.06 1257.13 167.485 1254.87 166.135L1227.17 212.49C1239.97 220.136 1254.58 223.06 1269.43 223.06V169.06ZM1255.04 166.238C1252.93 164.953 1251.62 163.444 1250.65 160.742L1199.87 179.104C1204.95 193.164 1214.16 204.581 1227 212.387L1255.04 166.238ZM1250.66 160.788C1249.61 157.865 1248.84 152.762 1250.25 144.337L1196.99 135.424C1194.52 150.2 1194.84 165.126 1199.85 179.059L1250.66 160.788ZM1250.25 144.356C1251.56 136.537 1254.09 130.497 1257.41 125.684L1212.99 94.986C1204.66 107.03 1199.47 120.686 1197 135.406L1250.25 144.356ZM1257.39 125.71C1260.86 120.713 1264.98 117.093 1269.94 114.481L1244.78 66.7009C1231.94 73.4637 1221.29 83.0066 1213 94.9601L1257.39 125.71ZM1270.04 114.428C1274.71 111.943 1280.22 110.489 1287.12 110.489V56.4886C1272.14 56.4886 1257.81 59.7688 1244.68 66.7533L1270.04 114.428ZM1287.12 110.489C1292.1 110.489 1295.48 111.263 1297.72 112.166L1317.85 62.0555C1308.07 58.1287 1297.66 56.4886 1287.12 56.4886V110.489ZM1297.72 112.166C1299.73 112.974 1300.92 113.935 1301.84 115.049L1343.56 80.7639C1336.61 72.313 1327.86 66.0775 1317.85 62.0556L1297.72 112.166ZM1301.92 115.15C1302.63 116.002 1303.62 117.599 1304.28 120.812L1357.17 109.943C1354.99 99.3313 1350.63 89.2801 1343.48 80.6622L1301.92 115.15ZM1304.28 120.812C1304.86 123.662 1305.07 128.111 1303.96 134.663L1357.2 143.678C1359.13 132.332 1359.43 120.919 1357.17 109.943L1304.28 120.812ZM1303.9 135.016L1302.56 143.68L1355.91 151.99L1357.26 143.325L1303.9 135.016ZM1329.23 120.835H1234.49V174.835H1329.23V120.835ZM1261.16 152.061L1264.35 131.89L1211.02 123.439L1207.82 143.61L1261.16 152.061ZM1237.69 154.665H1300.19V100.665H1237.69V154.665ZM1326.87 131.77C1328.04 124.19 1327.63 115.802 1324.25 107.554L1274.28 128.032C1273.27 125.56 1273.47 123.753 1273.5 123.559L1326.87 131.77ZM1324.25 107.554C1320.89 99.3584 1315.14 92.5931 1307.52 87.9662L1279.5 134.125C1278.48 133.51 1277.39 132.63 1276.39 131.457C1275.39 130.287 1274.71 129.084 1274.28 128.032L1324.25 107.554ZM1308 88.2666C1300.18 83.2854 1291.67 81.5597 1283.92 81.5597V135.56C1283.74 135.56 1281.63 135.491 1279.01 133.824L1308 88.2666ZM1283.92 81.5597C1275.67 81.5597 1267.69 83.544 1260.39 87.4536L1285.87 135.063C1285.64 135.182 1285.31 135.324 1284.89 135.428C1284.48 135.532 1284.14 135.56 1283.92 135.56V81.5597ZM1260.51 87.388C1253.78 90.9425 1248.01 95.8065 1243.36 101.784L1285.99 134.937C1286 134.917 1286 134.92 1285.98 134.939C1285.96 134.959 1285.94 134.987 1285.9 135.019C1285.86 135.05 1285.82 135.078 1285.79 135.1C1285.76 135.121 1285.74 135.131 1285.74 135.129L1260.51 87.388ZM1243.36 101.784C1238.39 108.173 1235.1 115.496 1233.6 123.409L1286.65 133.483C1286.63 133.632 1286.56 133.895 1286.41 134.214C1286.27 134.533 1286.11 134.781 1285.99 134.937L1243.36 101.784ZM1233.57 123.608L1229.8 144.276L1282.93 153.952L1286.69 133.284L1233.57 123.608ZM1229.72 144.719C1228.46 152.383 1228.41 161.256 1231.62 170.101L1282.39 151.706C1282.81 152.864 1282.9 153.711 1282.92 154.044C1282.93 154.354 1282.89 154.21 1283 153.508L1229.72 144.719ZM1231.62 170.101C1234.84 178.98 1240.79 186.472 1249.11 191.517L1277.11 145.347C1278.2 146.006 1279.36 146.961 1280.39 148.225C1281.4 149.48 1282.03 150.72 1282.39 151.706L1231.62 170.101ZM1249.39 191.684C1257.66 196.564 1266.54 197.989 1274.26 197.989V143.989C1273.65 143.989 1273.64 143.928 1274.1 144.032C1274.58 144.143 1275.59 144.443 1276.83 145.179L1249.39 191.684ZM1274.26 197.989C1279.7 197.989 1285.21 197.262 1290.63 195.617L1274.94 143.945C1274.99 143.931 1274.97 143.94 1274.88 143.954C1274.78 143.968 1274.58 143.989 1274.26 143.989V197.989ZM1291.05 195.486C1296.65 193.684 1301.95 190.925 1306.7 187.147L1273.08 144.887C1273.35 144.674 1273.63 144.491 1273.91 144.345C1274.18 144.199 1274.4 144.117 1274.52 144.076L1291.05 195.486ZM1306.75 187.101C1311.69 183.152 1315.72 178.334 1318.74 172.832L1271.4 146.844C1271.57 146.542 1271.8 146.195 1272.1 145.839C1272.4 145.483 1272.71 145.178 1273.02 144.934L1306.75 187.101ZM1294.29 186.827L1325.96 187.75L1327.53 133.773L1295.86 132.85L1294.29 186.827ZM1301.32 151.67C1300.12 155.052 1298.34 157.824 1295.88 160.264L1333.89 198.617C1342.13 190.451 1348.27 180.77 1352.17 169.853L1301.32 151.67ZM1295.97 160.179C1293.54 162.567 1290.27 164.747 1285.69 166.491L1304.88 216.963C1315.73 212.836 1325.54 206.825 1333.81 198.702L1295.97 160.179ZM1285.77 166.459C1281.6 168.028 1276.28 169.06 1269.43 169.06V223.06C1281.71 223.06 1293.63 221.203 1304.8 216.995L1285.77 166.459ZM1418.99 84.9091L1445.61 89.4198L1450.95 57.9091H1418.99V84.9091ZM1414.66 110.477V137.477H1437.47L1441.28 114.988L1414.66 110.477ZM1345.84 110.477L1319.21 105.967L1313.88 137.477H1345.84V110.477ZM1350.17 84.9091V57.9091H1327.36L1323.55 80.3984L1350.17 84.9091ZM1368.85 58.7727V31.7727H1345.95L1342.21 54.3662L1368.85 58.7727ZM1403.58 58.7727L1430.21 63.1963L1435.43 31.7727H1403.58V58.7727ZM1386.82 159.696L1360.18 155.272L1360.16 155.409L1360.14 155.546L1386.82 159.696ZM1386.96 164.881L1361.25 173.143L1361.43 173.705L1361.64 174.258L1386.96 164.881ZM1389.51 167.651L1378.2 192.165L1378.76 192.423L1379.33 192.655L1389.51 167.651ZM1402.01 167.366L1428.99 166.144L1427.59 135.435L1397.32 140.777L1402.01 167.366ZM1403.15 192.438L1410.48 218.424L1431.09 212.61L1430.12 191.215L1403.15 192.438ZM1395.69 194.213L1390.09 167.801L1389.86 167.851L1389.62 167.905L1395.69 194.213ZM1384.9 195.562L1385.97 222.541L1386.05 222.538L1386.14 222.534L1384.9 195.562ZM1364.23 192.651L1353.57 217.456L1353.7 217.512L1353.83 217.567L1364.23 192.651ZM1352.8 181.855L1328.14 192.865L1328.19 192.965L1328.23 193.064L1352.8 181.855ZM1351.52 163.531L1378.09 168.331L1378.12 168.135L1378.16 167.938L1351.52 163.531ZM1392.37 80.3984L1388.04 105.967L1441.28 114.988L1445.61 89.4198L1392.37 80.3984ZM1414.66 83.4773H1345.84V137.477H1414.66V83.4773ZM1372.46 114.988L1376.79 89.4198L1323.55 80.3984L1319.21 105.967L1372.46 114.988ZM1350.17 111.909H1418.99V57.9091H1350.17V111.909ZM1368.85 85.7727H1403.58V31.7727H1368.85V85.7727ZM1376.94 54.3492L1360.18 155.272L1413.45 164.12L1430.21 63.1963L1376.94 54.3492ZM1360.14 155.546C1359.48 159.772 1359.02 166.211 1361.25 173.143L1412.66 156.618C1413.39 158.893 1413.56 160.748 1413.59 161.851C1413.62 162.965 1413.52 163.672 1413.49 163.846L1360.14 155.546ZM1361.64 174.258C1364.58 182.195 1370.44 188.585 1378.2 192.165L1400.83 143.136C1403.18 144.22 1405.63 145.873 1407.79 148.218C1409.95 150.562 1411.39 153.117 1412.28 155.503L1361.64 174.258ZM1379.33 192.655C1384.73 194.857 1389.97 195.432 1394.2 195.432V141.432C1394.74 141.432 1396.85 141.486 1399.7 142.646L1379.33 192.655ZM1394.2 195.432C1397.43 195.432 1400.5 195.078 1403.29 194.57L1393.63 141.441C1393.48 141.468 1393.46 141.468 1393.54 141.459C1393.62 141.451 1393.85 141.432 1394.2 141.432V195.432ZM1403.29 194.57C1404.84 194.288 1405.97 194.085 1406.71 193.956L1397.32 140.777C1396.45 140.932 1395.21 141.155 1393.63 141.441L1403.29 194.57ZM1375.04 168.589L1376.18 193.66L1430.12 191.215L1428.99 166.144L1375.04 168.589ZM1395.82 166.451C1394.79 166.741 1392.96 167.192 1390.09 167.801L1401.3 220.625C1404.68 219.909 1407.81 219.176 1410.48 218.424L1395.82 166.451ZM1389.62 167.905C1388.53 168.157 1386.61 168.455 1383.66 168.591L1386.14 222.534C1391.42 222.291 1396.7 221.689 1401.76 220.522L1389.62 167.905ZM1383.82 168.584C1377.91 168.819 1375.27 168.001 1374.63 167.734L1353.83 217.567C1364.08 221.846 1375.22 222.969 1385.97 222.541L1383.82 168.584ZM1374.89 167.845C1374.75 167.785 1375.2 167.96 1375.86 168.579C1376.55 169.227 1377.06 169.988 1377.36 170.647L1328.23 193.064C1333.52 204.649 1342.65 212.763 1353.57 217.456L1374.89 167.845ZM1377.45 170.845C1377.82 171.682 1377.8 172.093 1377.78 171.737C1377.75 171.338 1377.74 170.257 1378.09 168.331L1324.95 158.732C1323.03 169.367 1323.03 181.422 1328.14 192.865L1377.45 170.845ZM1378.16 167.938L1395.48 63.1793L1342.21 54.3662L1324.88 159.125L1378.16 167.938Z" fill="#1D1D1D" mask="url(#path-2-outside-1_5_2)"/>
</svg>
